<?xml version="1.0" encoding="utf-8" standalone="no"?>
<!DOCTYPE svg PUBLIC "-//W3C//DTD SVG 1.1//EN"
  "http://www.w3.org/Graphics/SVG/1.1/DTD/svg11.dtd">
<!-- Created with matplotlib (https://matplotlib.org/) -->
<svg height="432pt" version="1.1" viewBox="0 0 576 432" width="576pt" xmlns="http://www.w3.org/2000/svg" xmlns:xlink="http://www.w3.org/1999/xlink">
 <defs>
  <style type="text/css">
*{stroke-linecap:butt;stroke-linejoin:round;}
  </style>
 </defs>
 <g id="figure_1">
  <g id="patch_1">
   <path d="M 0 432 
L 576 432 
L 576 0 
L 0 0 
z
" style="fill:#ffffff;"/>
  </g>
  <g id="axes_1">
   <g id="patch_2">
    <path d="M 72 384.48 
L 518.4 384.48 
L 518.4 51.84 
L 72 51.84 
z
" style="fill:#ffffff;"/>
   </g>
   <g id="matplotlib.axis_1">
    <g id="xtick_1">
     <g id="line2d_1">
      <defs>
       <path d="M 0 0 
L 0 3.5 
" id="mdcf5ded744" style="stroke:#000000;stroke-width:0.8;"/>
      </defs>
      <g>
       <use style="stroke:#000000;stroke-width:0.8;" x="92.032069" xlink:href="#mdcf5ded744" y="384.48"/>
      </g>
     </g>
     <g id="text_1">
      <!-- 0 -->
      <defs>
       <path d="M 31.78125 66.40625 
Q 24.171875 66.40625 20.328125 58.90625 
Q 16.5 51.421875 16.5 36.375 
Q 16.5 21.390625 20.328125 13.890625 
Q 24.171875 6.390625 31.78125 6.390625 
Q 39.453125 6.390625 43.28125 13.890625 
Q 47.125 21.390625 47.125 36.375 
Q 47.125 51.421875 43.28125 58.90625 
Q 39.453125 66.40625 31.78125 66.40625 
z
M 31.78125 74.21875 
Q 44.046875 74.21875 50.515625 64.515625 
Q 56.984375 54.828125 56.984375 36.375 
Q 56.984375 17.96875 50.515625 8.265625 
Q 44.046875 -1.421875 31.78125 -1.421875 
Q 19.53125 -1.421875 13.0625 8.265625 
Q 6.59375 17.96875 6.59375 36.375 
Q 6.59375 54.828125 13.0625 64.515625 
Q 19.53125 74.21875 31.78125 74.21875 
z
" id="DejaVuSans-48"/>
      </defs>
      <g transform="translate(88.850819 399.078438)scale(0.1 -0.1)">
       <use xlink:href="#DejaVuSans-48"/>
      </g>
     </g>
    </g>
    <g id="xtick_2">
     <g id="line2d_2">
      <g>
       <use style="stroke:#000000;stroke-width:0.8;" x="156.158003" xlink:href="#mdcf5ded744" y="384.48"/>
      </g>
     </g>
     <g id="text_2">
      <!-- 50 -->
      <defs>
       <path d="M 10.796875 72.90625 
L 49.515625 72.90625 
L 49.515625 64.59375 
L 19.828125 64.59375 
L 19.828125 46.734375 
Q 21.96875 47.46875 24.109375 47.828125 
Q 26.265625 48.1875 28.421875 48.1875 
Q 40.625 48.1875 47.75 41.5 
Q 54.890625 34.8125 54.890625 23.390625 
Q 54.890625 11.625 47.5625 5.09375 
Q 40.234375 -1.421875 26.90625 -1.421875 
Q 22.3125 -1.421875 17.546875 -0.640625 
Q 12.796875 0.140625 7.71875 1.703125 
L 7.71875 11.625 
Q 12.109375 9.234375 16.796875 8.0625 
Q 21.484375 6.890625 26.703125 6.890625 
Q 35.15625 6.890625 40.078125 11.328125 
Q 45.015625 15.765625 45.015625 23.390625 
Q 45.015625 31 40.078125 35.4375 
Q 35.15625 39.890625 26.703125 39.890625 
Q 22.75 39.890625 18.8125 39.015625 
Q 14.890625 38.140625 10.796875 36.28125 
z
" id="DejaVuSans-53"/>
      </defs>
      <g transform="translate(149.795503 399.078438)scale(0.1 -0.1)">
       <use xlink:href="#DejaVuSans-53"/>
       <use x="63.623047" xlink:href="#DejaVuSans-48"/>
      </g>
     </g>
    </g>
    <g id="xtick_3">
     <g id="line2d_3">
      <g>
       <use style="stroke:#000000;stroke-width:0.8;" x="220.283938" xlink:href="#mdcf5ded744" y="384.48"/>
      </g>
     </g>
     <g id="text_3">
      <!-- 100 -->
      <defs>
       <path d="M 12.40625 8.296875 
L 28.515625 8.296875 
L 28.515625 63.921875 
L 10.984375 60.40625 
L 10.984375 69.390625 
L 28.421875 72.90625 
L 38.28125 72.90625 
L 38.28125 8.296875 
L 54.390625 8.296875 
L 54.390625 0 
L 12.40625 0 
z
" id="DejaVuSans-49"/>
      </defs>
      <g transform="translate(210.740188 399.078438)scale(0.1 -0.1)">
       <use xlink:href="#DejaVuSans-49"/>
       <use x="63.623047" xlink:href="#DejaVuSans-48"/>
       <use x="127.246094" xlink:href="#DejaVuSans-48"/>
      </g>
     </g>
    </g>
    <g id="xtick_4">
     <g id="line2d_4">
      <g>
       <use style="stroke:#000000;stroke-width:0.8;" x="284.409872" xlink:href="#mdcf5ded744" y="384.48"/>
      </g>
     </g>
     <g id="text_4">
      <!-- 150 -->
      <g transform="translate(274.866122 399.078438)scale(0.1 -0.1)">
       <use xlink:href="#DejaVuSans-49"/>
       <use x="63.623047" xlink:href="#DejaVuSans-53"/>
       <use x="127.246094" xlink:href="#DejaVuSans-48"/>
      </g>
     </g>
    </g>
    <g id="xtick_5">
     <g id="line2d_5">
      <g>
       <use style="stroke:#000000;stroke-width:0.8;" x="348.535806" xlink:href="#mdcf5ded744" y="384.48"/>
      </g>
     </g>
     <g id="text_5">
      <!-- 200 -->
      <defs>
       <path d="M 19.1875 8.296875 
L 53.609375 8.296875 
L 53.609375 0 
L 7.328125 0 
L 7.328125 8.296875 
Q 12.9375 14.109375 22.625 23.890625 
Q 32.328125 33.6875 34.8125 36.53125 
Q 39.546875 41.84375 41.421875 45.53125 
Q 43.3125 49.21875 43.3125 52.78125 
Q 43.3125 58.59375 39.234375 62.25 
Q 35.15625 65.921875 28.609375 65.921875 
Q 23.96875 65.921875 18.8125 64.3125 
Q 13.671875 62.703125 7.8125 59.421875 
L 7.8125 69.390625 
Q 13.765625 71.78125 18.9375 73 
Q 24.125 74.21875 28.421875 74.21875 
Q 39.75 74.21875 46.484375 68.546875 
Q 53.21875 62.890625 53.21875 53.421875 
Q 53.21875 48.921875 51.53125 44.890625 
Q 49.859375 40.875 45.40625 35.40625 
Q 44.1875 33.984375 37.640625 27.21875 
Q 31.109375 20.453125 19.1875 8.296875 
z
" id="DejaVuSans-50"/>
      </defs>
      <g transform="translate(338.992056 399.078438)scale(0.1 -0.1)">
       <use xlink:href="#DejaVuSans-50"/>
       <use x="63.623047" xlink:href="#DejaVuSans-48"/>
       <use x="127.246094" xlink:href="#DejaVuSans-48"/>
      </g>
     </g>
    </g>
    <g id="xtick_6">
     <g id="line2d_6">
      <g>
       <use style="stroke:#000000;stroke-width:0.8;" x="412.661741" xlink:href="#mdcf5ded744" y="384.48"/>
      </g>
     </g>
     <g id="text_6">
      <!-- 250 -->
      <g transform="translate(403.117991 399.078438)scale(0.1 -0.1)">
       <use xlink:href="#DejaVuSans-50"/>
       <use x="63.623047" xlink:href="#DejaVuSans-53"/>
       <use x="127.246094" xlink:href="#DejaVuSans-48"/>
      </g>
     </g>
    </g>
    <g id="xtick_7">
     <g id="line2d_7">
      <g>
       <use style="stroke:#000000;stroke-width:0.8;" x="476.787675" xlink:href="#mdcf5ded744" y="384.48"/>
      </g>
     </g>
     <g id="text_7">
      <!-- 300 -->
      <defs>
       <path d="M 40.578125 39.3125 
Q 47.65625 37.796875 51.625 33 
Q 55.609375 28.21875 55.609375 21.1875 
Q 55.609375 10.40625 48.1875 4.484375 
Q 40.765625 -1.421875 27.09375 -1.421875 
Q 22.515625 -1.421875 17.65625 -0.515625 
Q 12.796875 0.390625 7.625 2.203125 
L 7.625 11.71875 
Q 11.71875 9.328125 16.59375 8.109375 
Q 21.484375 6.890625 26.8125 6.890625 
Q 36.078125 6.890625 40.9375 10.546875 
Q 45.796875 14.203125 45.796875 21.1875 
Q 45.796875 27.640625 41.28125 31.265625 
Q 36.765625 34.90625 28.71875 34.90625 
L 20.21875 34.90625 
L 20.21875 43.015625 
L 29.109375 43.015625 
Q 36.375 43.015625 40.234375 45.921875 
Q 44.09375 48.828125 44.09375 54.296875 
Q 44.09375 59.90625 40.109375 62.90625 
Q 36.140625 65.921875 28.71875 65.921875 
Q 24.65625 65.921875 20.015625 65.03125 
Q 15.375 64.15625 9.8125 62.3125 
L 9.8125 71.09375 
Q 15.4375 72.65625 20.34375 73.4375 
Q 25.25 74.21875 29.59375 74.21875 
Q 40.828125 74.21875 47.359375 69.109375 
Q 53.90625 64.015625 53.90625 55.328125 
Q 53.90625 49.265625 50.4375 45.09375 
Q 46.96875 40.921875 40.578125 39.3125 
z
" id="DejaVuSans-51"/>
      </defs>
      <g transform="translate(467.243925 399.078438)scale(0.1 -0.1)">
       <use xlink:href="#DejaVuSans-51"/>
       <use x="63.623047" xlink:href="#DejaVuSans-48"/>
       <use x="127.246094" xlink:href="#DejaVuSans-48"/>
      </g>
     </g>
    </g>
    <g id="text_8">
     <!-- Time [s] -->
     <defs>
      <path d="M -0.296875 72.90625 
L 61.375 72.90625 
L 61.375 64.59375 
L 35.5 64.59375 
L 35.5 0 
L 25.59375 0 
L 25.59375 64.59375 
L -0.296875 64.59375 
z
" id="DejaVuSans-84"/>
      <path d="M 9.421875 54.6875 
L 18.40625 54.6875 
L 18.40625 0 
L 9.421875 0 
z
M 9.421875 75.984375 
L 18.40625 75.984375 
L 18.40625 64.59375 
L 9.421875 64.59375 
z
" id="DejaVuSans-105"/>
      <path d="M 52 44.1875 
Q 55.375 50.25 60.0625 53.125 
Q 64.75 56 71.09375 56 
Q 79.640625 56 84.28125 50.015625 
Q 88.921875 44.046875 88.921875 33.015625 
L 88.921875 0 
L 79.890625 0 
L 79.890625 32.71875 
Q 79.890625 40.578125 77.09375 44.375 
Q 74.3125 48.1875 68.609375 48.1875 
Q 61.625 48.1875 57.5625 43.546875 
Q 53.515625 38.921875 53.515625 30.90625 
L 53.515625 0 
L 44.484375 0 
L 44.484375 32.71875 
Q 44.484375 40.625 41.703125 44.40625 
Q 38.921875 48.1875 33.109375 48.1875 
Q 26.21875 48.1875 22.15625 43.53125 
Q 18.109375 38.875 18.109375 30.90625 
L 18.109375 0 
L 9.078125 0 
L 9.078125 54.6875 
L 18.109375 54.6875 
L 18.109375 46.1875 
Q 21.1875 51.21875 25.484375 53.609375 
Q 29.78125 56 35.6875 56 
Q 41.65625 56 45.828125 52.96875 
Q 50 49.953125 52 44.1875 
z
" id="DejaVuSans-109"/>
      <path d="M 56.203125 29.59375 
L 56.203125 25.203125 
L 14.890625 25.203125 
Q 15.484375 15.921875 20.484375 11.0625 
Q 25.484375 6.203125 34.421875 6.203125 
Q 39.59375 6.203125 44.453125 7.46875 
Q 49.3125 8.734375 54.109375 11.28125 
L 54.109375 2.78125 
Q 49.265625 0.734375 44.1875 -0.34375 
Q 39.109375 -1.421875 33.890625 -1.421875 
Q 20.796875 -1.421875 13.15625 6.1875 
Q 5.515625 13.8125 5.515625 26.8125 
Q 5.515625 40.234375 12.765625 48.109375 
Q 20.015625 56 32.328125 56 
Q 43.359375 56 49.78125 48.890625 
Q 56.203125 41.796875 56.203125 29.59375 
z
M 47.21875 32.234375 
Q 47.125 39.59375 43.09375 43.984375 
Q 39.0625 48.390625 32.421875 48.390625 
Q 24.90625 48.390625 20.390625 44.140625 
Q 15.875 39.890625 15.1875 32.171875 
z
" id="DejaVuSans-101"/>
      <path id="DejaVuSans-32"/>
      <path d="M 8.59375 75.984375 
L 29.296875 75.984375 
L 29.296875 69 
L 17.578125 69 
L 17.578125 -6.203125 
L 29.296875 -6.203125 
L 29.296875 -13.1875 
L 8.59375 -13.1875 
z
" id="DejaVuSans-91"/>
      <path d="M 44.28125 53.078125 
L 44.28125 44.578125 
Q 40.484375 46.53125 36.375 47.5 
Q 32.28125 48.484375 27.875 48.484375 
Q 21.1875 48.484375 17.84375 46.4375 
Q 14.5 44.390625 14.5 40.28125 
Q 14.5 37.15625 16.890625 35.375 
Q 19.28125 33.59375 26.515625 31.984375 
L 29.59375 31.296875 
Q 39.15625 29.25 43.1875 25.515625 
Q 47.21875 21.78125 47.21875 15.09375 
Q 47.21875 7.46875 41.1875 3.015625 
Q 35.15625 -1.421875 24.609375 -1.421875 
Q 20.21875 -1.421875 15.453125 -0.5625 
Q 10.6875 0.296875 5.421875 2 
L 5.421875 11.28125 
Q 10.40625 8.6875 15.234375 7.390625 
Q 20.0625 6.109375 24.8125 6.109375 
Q 31.15625 6.109375 34.5625 8.28125 
Q 37.984375 10.453125 37.984375 14.40625 
Q 37.984375 18.0625 35.515625 20.015625 
Q 33.0625 21.96875 24.703125 23.78125 
L 21.578125 24.515625 
Q 13.234375 26.265625 9.515625 29.90625 
Q 5.8125 33.546875 5.8125 39.890625 
Q 5.8125 47.609375 11.28125 51.796875 
Q 16.75 56 26.8125 56 
Q 31.78125 56 36.171875 55.265625 
Q 40.578125 54.546875 44.28125 53.078125 
z
" id="DejaVuSans-115"/>
      <path d="M 30.421875 75.984375 
L 30.421875 -13.1875 
L 9.71875 -13.1875 
L 9.71875 -6.203125 
L 21.390625 -6.203125 
L 21.390625 69 
L 9.71875 69 
L 9.71875 75.984375 
z
" id="DejaVuSans-93"/>
     </defs>
     <g transform="translate(274.717187 412.756563)scale(0.1 -0.1)">
      <use xlink:href="#DejaVuSans-84"/>
      <use x="61.037109" xlink:href="#DejaVuSans-105"/>
      <use x="88.820312" xlink:href="#DejaVuSans-109"/>
      <use x="186.232422" xlink:href="#DejaVuSans-101"/>
      <use x="247.755859" xlink:href="#DejaVuSans-32"/>
      <use x="279.542969" xlink:href="#DejaVuSans-91"/>
      <use x="318.556641" xlink:href="#DejaVuSans-115"/>
      <use x="370.65625" xlink:href="#DejaVuSans-93"/>
     </g>
    </g>
   </g>
   <g id="matplotlib.axis_2">
    <g id="ytick_1">
     <g id="line2d_8">
      <defs>
       <path d="M 0 0 
L -3.5 0 
" id="m80e1dafed2" style="stroke:#000000;stroke-width:0.8;"/>
      </defs>
      <g>
       <use style="stroke:#000000;stroke-width:0.8;" x="72" xlink:href="#m80e1dafed2" y="384.48"/>
      </g>
     </g>
     <g id="text_9">
      <!-- 0 -->
      <g transform="translate(58.6375 388.279219)scale(0.1 -0.1)">
       <use xlink:href="#DejaVuSans-48"/>
      </g>
     </g>
    </g>
    <g id="ytick_2">
     <g id="line2d_9">
      <g>
       <use style="stroke:#000000;stroke-width:0.8;" x="72" xlink:href="#m80e1dafed2" y="336.96"/>
      </g>
     </g>
     <g id="text_10">
      <!-- 5 -->
      <g transform="translate(58.6375 340.759219)scale(0.1 -0.1)">
       <use xlink:href="#DejaVuSans-53"/>
      </g>
     </g>
    </g>
    <g id="ytick_3">
     <g id="line2d_10">
      <g>
       <use style="stroke:#000000;stroke-width:0.8;" x="72" xlink:href="#m80e1dafed2" y="289.44"/>
      </g>
     </g>
     <g id="text_11">
      <!-- 10 -->
      <g transform="translate(52.275 293.239219)scale(0.1 -0.1)">
       <use xlink:href="#DejaVuSans-49"/>
       <use x="63.623047" xlink:href="#DejaVuSans-48"/>
      </g>
     </g>
    </g>
    <g id="ytick_4">
     <g id="line2d_11">
      <g>
       <use style="stroke:#000000;stroke-width:0.8;" x="72" xlink:href="#m80e1dafed2" y="241.92"/>
      </g>
     </g>
     <g id="text_12">
      <!-- 15 -->
      <g transform="translate(52.275 245.719219)scale(0.1 -0.1)">
       <use xlink:href="#DejaVuSans-49"/>
       <use x="63.623047" xlink:href="#DejaVuSans-53"/>
      </g>
     </g>
    </g>
    <g id="ytick_5">
     <g id="line2d_12">
      <g>
       <use style="stroke:#000000;stroke-width:0.8;" x="72" xlink:href="#m80e1dafed2" y="194.4"/>
      </g>
     </g>
     <g id="text_13">
      <!-- 20 -->
      <g transform="translate(52.275 198.199219)scale(0.1 -0.1)">
       <use xlink:href="#DejaVuSans-50"/>
       <use x="63.623047" xlink:href="#DejaVuSans-48"/>
      </g>
     </g>
    </g>
    <g id="ytick_6">
     <g id="line2d_13">
      <g>
       <use style="stroke:#000000;stroke-width:0.8;" x="72" xlink:href="#m80e1dafed2" y="146.88"/>
      </g>
     </g>
     <g id="text_14">
      <!-- 25 -->
      <g transform="translate(52.275 150.679219)scale(0.1 -0.1)">
       <use xlink:href="#DejaVuSans-50"/>
       <use x="63.623047" xlink:href="#DejaVuSans-53"/>
      </g>
     </g>
    </g>
    <g id="ytick_7">
     <g id="line2d_14">
      <g>
       <use style="stroke:#000000;stroke-width:0.8;" x="72" xlink:href="#m80e1dafed2" y="99.36"/>
      </g>
     </g>
     <g id="text_15">
      <!-- 30 -->
      <g transform="translate(52.275 103.159219)scale(0.1 -0.1)">
       <use xlink:href="#DejaVuSans-51"/>
       <use x="63.623047" xlink:href="#DejaVuSans-48"/>
      </g>
     </g>
    </g>
    <g id="ytick_8">
     <g id="line2d_15">
      <g>
       <use style="stroke:#000000;stroke-width:0.8;" x="72" xlink:href="#m80e1dafed2" y="51.84"/>
      </g>
     </g>
     <g id="text_16">
      <!-- 35 -->
      <g transform="translate(52.275 55.639219)scale(0.1 -0.1)">
       <use xlink:href="#DejaVuSans-51"/>
       <use x="63.623047" xlink:href="#DejaVuSans-53"/>
      </g>
     </g>
    </g>
    <g id="text_17">
     <!-- Error [%] -->
     <defs>
      <path d="M 9.8125 72.90625 
L 55.90625 72.90625 
L 55.90625 64.59375 
L 19.671875 64.59375 
L 19.671875 43.015625 
L 54.390625 43.015625 
L 54.390625 34.71875 
L 19.671875 34.71875 
L 19.671875 8.296875 
L 56.78125 8.296875 
L 56.78125 0 
L 9.8125 0 
z
" id="DejaVuSans-69"/>
      <path d="M 41.109375 46.296875 
Q 39.59375 47.171875 37.8125 47.578125 
Q 36.03125 48 33.890625 48 
Q 26.265625 48 22.1875 43.046875 
Q 18.109375 38.09375 18.109375 28.8125 
L 18.109375 0 
L 9.078125 0 
L 9.078125 54.6875 
L 18.109375 54.6875 
L 18.109375 46.1875 
Q 20.953125 51.171875 25.484375 53.578125 
Q 30.03125 56 36.53125 56 
Q 37.453125 56 38.578125 55.875 
Q 39.703125 55.765625 41.0625 55.515625 
z
" id="DejaVuSans-114"/>
      <path d="M 30.609375 48.390625 
Q 23.390625 48.390625 19.1875 42.75 
Q 14.984375 37.109375 14.984375 27.296875 
Q 14.984375 17.484375 19.15625 11.84375 
Q 23.34375 6.203125 30.609375 6.203125 
Q 37.796875 6.203125 41.984375 11.859375 
Q 46.1875 17.53125 46.1875 27.296875 
Q 46.1875 37.015625 41.984375 42.703125 
Q 37.796875 48.390625 30.609375 48.390625 
z
M 30.609375 56 
Q 42.328125 56 49.015625 48.375 
Q 55.71875 40.765625 55.71875 27.296875 
Q 55.71875 13.875 49.015625 6.21875 
Q 42.328125 -1.421875 30.609375 -1.421875 
Q 18.84375 -1.421875 12.171875 6.21875 
Q 5.515625 13.875 5.515625 27.296875 
Q 5.515625 40.765625 12.171875 48.375 
Q 18.84375 56 30.609375 56 
z
" id="DejaVuSans-111"/>
      <path d="M 72.703125 32.078125 
Q 68.453125 32.078125 66.03125 28.46875 
Q 63.625 24.859375 63.625 18.40625 
Q 63.625 12.0625 66.03125 8.421875 
Q 68.453125 4.78125 72.703125 4.78125 
Q 76.859375 4.78125 79.265625 8.421875 
Q 81.6875 12.0625 81.6875 18.40625 
Q 81.6875 24.8125 79.265625 28.4375 
Q 76.859375 32.078125 72.703125 32.078125 
z
M 72.703125 38.28125 
Q 80.421875 38.28125 84.953125 32.90625 
Q 89.5 27.546875 89.5 18.40625 
Q 89.5 9.28125 84.9375 3.921875 
Q 80.375 -1.421875 72.703125 -1.421875 
Q 64.890625 -1.421875 60.34375 3.921875 
Q 55.8125 9.28125 55.8125 18.40625 
Q 55.8125 27.59375 60.375 32.9375 
Q 64.9375 38.28125 72.703125 38.28125 
z
M 22.3125 68.015625 
Q 18.109375 68.015625 15.6875 64.375 
Q 13.28125 60.75 13.28125 54.390625 
Q 13.28125 47.953125 15.671875 44.328125 
Q 18.0625 40.71875 22.3125 40.71875 
Q 26.5625 40.71875 28.96875 44.328125 
Q 31.390625 47.953125 31.390625 54.390625 
Q 31.390625 60.6875 28.953125 64.34375 
Q 26.515625 68.015625 22.3125 68.015625 
z
M 66.40625 74.21875 
L 74.21875 74.21875 
L 28.609375 -1.421875 
L 20.796875 -1.421875 
z
M 22.3125 74.21875 
Q 30.03125 74.21875 34.609375 68.875 
Q 39.203125 63.53125 39.203125 54.390625 
Q 39.203125 45.171875 34.640625 39.84375 
Q 30.078125 34.515625 22.3125 34.515625 
Q 14.546875 34.515625 10.03125 39.859375 
Q 5.515625 45.21875 5.515625 54.390625 
Q 5.515625 63.484375 10.046875 68.84375 
Q 14.59375 74.21875 22.3125 74.21875 
z
" id="DejaVuSans-37"/>
     </defs>
     <g transform="translate(46.195312 240.784219)rotate(-90)scale(0.1 -0.1)">
      <use xlink:href="#DejaVuSans-69"/>
      <use x="63.183594" xlink:href="#DejaVuSans-114"/>
      <use x="104.28125" xlink:href="#DejaVuSans-114"/>
      <use x="145.363281" xlink:href="#DejaVuSans-111"/>
      <use x="206.544922" xlink:href="#DejaVuSans-114"/>
      <use x="247.658203" xlink:href="#DejaVuSans-32"/>
      <use x="279.445312" xlink:href="#DejaVuSans-91"/>
      <use x="318.458984" xlink:href="#DejaVuSans-37"/>
      <use x="413.478516" xlink:href="#DejaVuSans-93"/>
     </g>
    </g>
   </g>
   <g id="line2d_16">
    <path clip-path="url(#p4dc8792b24)" d="M 92.370151 433 
L 92.460757 -1 
M 93.752298 -1 
L 93.829415 14.200167 
L 94.086347 9.885586 
L 94.549535 4.593622 
L 94.553056 -1 
M 95.443015 -1 
L 95.623271 22.553281 
L 95.878532 27.842433 
L 96.145621 -1 
M 97.17675 -1 
L 97.416853 25.364911 
L 97.67279 40.955575 
L 97.929769 26.701071 
L 98.214177 -1 
M 98.931811 -1 
L 99.212789 22.415314 
L 99.471626 38.969478 
L 99.728313 45.830444 
L 99.984333 30.569373 
L 100.098995 -1 
M 100.73355 -1 
L 101.265366 33.75119 
L 101.519742 42.848038 
L 101.777716 34.098769 
L 102.034196 19.43753 
L 102.177472 -1 
M 102.535544 -1 
L 103.315341 44.135109 
L 103.571648 45.576763 
L 103.832717 38.366293 
L 104.020151 -1 
M 104.337986 -1 
L 105.110872 37.134079 
L 105.365359 46.21832 
L 105.623705 42.348082 
L 105.880492 31.257746 
L 106.136259 -1 
M 106.139647 -1 
L 106.902602 34.040763 
L 107.367298 52.789214 
L 107.671069 42.01712 
L 107.91678 -1 
M 107.985017 -1 
L 108.956983 39.017399 
L 109.216063 46.223393 
L 109.471268 45.096842 
L 109.982677 27.857217 
L 110.237015 23.457738 
L 110.493026 26.3454 
L 111.009024 41.0714 
L 111.263263 49.203402 
L 111.521934 53.755408 
L 111.776714 -0.584015 
L 112.291932 22.070986 
L 113.05885 45.99617 
L 113.318045 48.50297 
L 113.73933 47.367203 
L 113.845134 10.596676 
L 114.341176 28.129214 
L 115.112129 48.658226 
L 115.367409 46.272956 
L 115.622476 41.005418 
L 115.878688 17.979065 
L 116.904258 45.903756 
L 117.161722 49.394943 
L 117.41788 47.210175 
L 117.676842 41.077037 
L 117.933831 23.579841 
L 118.701006 42.339711 
L 118.957497 48.189704 
L 119.210923 50.013046 
L 119.471103 45.502134 
L 119.726758 21.695178 
L 120.753253 45.912523 
L 121.006917 48.857089 
L 121.263907 48.193138 
L 121.520174 42.771726 
L 121.776098 26.249793 
L 123.060786 50.673942 
L 123.315391 48.85162 
L 123.574737 43.82333 
L 123.826417 29.245696 
L 124.596466 44.733618 
L 124.852656 49.53773 
L 125.109793 50.021998 
L 125.368059 46.269091 
L 125.622458 26.4299 
L 126.646777 46.521222 
L 126.907612 50.112886 
L 127.161539 48.48471 
L 127.415005 43.905553 
L 127.675592 30.073356 
L 128.444303 43.884234 
L 128.958384 51.522845 
L 129.211294 48.994443 
L 129.724185 41.444334 
L 129.98042 40.072582 
L 144.575016 51.792599 
L 144.842038 51.524266 
L 145.098725 49.124357 
L 145.356601 37.023165 
L 146.381278 50.572596 
L 146.638064 52.168878 
L 146.894422 51.136137 
L 147.148602 48.158968 
L 147.407888 39.024839 
L 148.431415 51.47265 
L 148.690893 53.040833 
L 148.944278 52.006272 
L 149.204005 49.183115 
L 149.457325 40.274513 
L 150.224966 49.59797 
L 150.483889 51.723296 
L 150.737906 52.566684 
L 150.994266 50.390688 
L 151.251387 38.834788 
L 151.767826 44.694172 
L 152.281136 50.532791 
L 152.538195 52.568823 
L 152.791711 51.604435 
L 153.048162 48.930645 
L 153.307232 40.07494 
L 154.330402 51.340078 
L 154.588476 52.746099 
L 154.844301 51.834613 
L 155.098554 49.223183 
L 155.35762 41.18687 
L 156.383035 52.130199 
L 156.638881 52.3574 
L 156.893959 50.918964 
L 157.150257 39.30647 
L 157.664324 45.685411 
L 158.435158 52.327668 
L 158.689058 52.529193 
L 158.942763 50.054025 
L 159.379867 42.508882 
L 159.96934 48.877167 
L 160.484115 53.009769 
L 160.741844 52.191823 
L 160.998509 49.82032 
L 161.255218 42.423623 
L 162.27774 52.430077 
L 162.535244 53.672682 
L 162.794568 53.396724 
L 163.049907 51.06869 
L 163.305231 43.347777 
L 164.331374 53.113237 
L 164.585008 53.790391 
L 164.841252 53.001136 
L 165.354342 48.535723 
L 165.793715 49.795589 
L 165.932425 49.506529 
L 166.637902 54.896195 
L 166.896338 56.074852 
L 167.154111 42.553759 
L 167.663092 47.609536 
L 168.173231 52.218635 
L 168.431216 53.840662 
L 168.689992 54.051176 
L 168.944166 51.884903 
L 169.202493 43.843212 
L 170.227314 52.858918 
L 170.485326 54.439741 
L 170.742175 53.710696 
L 170.995662 51.598563 
L 171.254275 45.097262 
L 172.360144 54.52504 
L 172.552237 55.108051 
L 172.788814 54.238313 
L 173.045957 52.202111 
L 173.305085 45.8528 
L 174.326213 54.416013 
L 174.584578 54.606952 
L 174.84439 53.499956 
L 175.097927 44.255519 
L 176.126445 53.091396 
L 176.38469 54.563509 
L 176.637789 54.283673 
L 177.150991 50.410509 
L 177.403696 49.312613 
L 177.664558 49.526899 
L 178.175235 52.779695 
L 178.686888 56.035115 
L 178.943943 56.203217 
L 179.199717 46.106141 
L 179.96975 51.920018 
L 180.228986 53.741375 
L 180.48101 54.284748 
L 180.73974 53.24567 
L 180.996785 44.243978 
L 182.278996 54.235998 
L 182.533085 53.982352 
L 197.138733 51.597517 
L 197.392757 52.107136 
L 197.91003 54.873682 
L 198.165751 56.408869 
L 198.423655 56.932733 
L 198.678212 47.710647 
L 199.701484 54.405432 
L 199.957755 55.581903 
L 200.213516 55.083837 
L 200.473637 53.620579 
L 200.729571 48.555446 
L 201.752708 55.129974 
L 202.009411 55.302388 
L 202.267205 54.500243 
L 202.524937 47.597378 
L 203.036409 51.142405 
L 203.805276 55.191248 
L 204.470846 53.827535 
L 204.635691 49.059362 
L 205.59999 54.760472 
L 205.855723 55.238448 
L 206.111698 54.45411 
L 206.372469 47.189344 
L 207.13843 52.625558 
L 207.651048 55.129158 
L 207.906784 54.666418 
L 208.164459 53.599658 
L 208.419495 48.566533 
L 209.444445 54.706725 
L 209.701305 55.480814 
L 209.95812 54.725957 
L 210.474624 52.041848 
L 211.070198 52.806709 
L 211.498978 54.781746 
L 212.010049 56.588319 
L 212.267671 48.44193 
L 213.291278 54.372948 
L 213.546581 55.113786 
L 213.805959 54.692891 
L 214.059307 53.363036 
L 214.319052 49.180129 
L 215.086062 53.698693 
L 215.345338 54.739725 
L 215.599049 54.878085 
L 215.857789 53.883142 
L 216.114318 48.317531 
L 217.142872 54.08451 
L 217.393638 54.779116 
L 217.649993 54.357278 
L 217.905168 52.796577 
L 218.163832 49.025233 
L 219.187567 54.679746 
L 219.443448 54.824721 
L 219.705069 54.155146 
L 219.960868 47.925927 
L 220.473173 50.983842 
L 220.987104 53.777807 
L 221.241598 54.746967 
L 221.497625 54.336407 
L 221.752714 53.09738 
L 222.010703 48.889834 
L 222.778177 52.862854 
L 223.293541 54.801997 
L 223.55081 54.403752 
L 223.806571 53.187183 
L 224.063107 49.304295 
L 224.833193 53.498301 
L 225.086091 54.430991 
L 225.342708 54.573296 
L 225.597596 53.635491 
L 225.857681 48.762921 
L 226.880776 54.080456 
L 227.136403 54.746755 
L 227.395329 54.36793 
L 227.651964 52.927906 
L 227.90685 49.411385 
L 228.679892 53.498893 
L 228.93284 54.405082 
L 229.186236 54.789655 
L 229.445321 53.896762 
L 229.704585 48.387938 
L 230.470928 52.896994 
L 230.981691 54.705669 
L 231.24267 54.346926 
L 231.497995 53.19688 
L 231.754492 49.278068 
L 232.780774 54.385938 
L 233.033982 55.013055 
L 233.290966 54.387537 
L 233.547042 48.262139 
L 234.315662 52.655358 
L 234.827596 54.669562 
L 235.085388 54.306679 
L 249.658276 52.114779 
L 250.238298 54.199607 
L 250.461033 54.409784 
L 250.715206 53.62043 
L 250.971706 49.069172 
L 252.002548 53.56552 
L 252.255032 54.11317 
L 252.511905 53.788168 
L 252.767462 52.575213 
L 253.021715 49.614642 
L 254.047783 54.038579 
L 254.30418 54.154715 
L 254.563342 53.623551 
L 254.822484 48.975392 
L 255.847664 53.341198 
L 256.100661 54.094908 
L 256.35224 53.974148 
L 256.61549 53.033971 
L 256.871523 49.931605 
L 257.896316 53.81855 
L 258.154054 54.151788 
L 258.409583 53.619366 
L 258.664688 48.85393 
L 259.43876 52.598889 
L 259.949029 54.087758 
L 260.205651 53.988682 
L 260.461085 53.041086 
L 260.716307 49.590472 
L 261.743556 53.813662 
L 261.997998 54.127038 
L 262.254059 53.608851 
L 262.767015 51.960609 
L 263.037163 51.709899 
L 263.542691 52.941161 
L 264.053043 54.602108 
L 264.307088 54.909373 
L 264.567181 49.490453 
L 265.591347 53.60605 
L 265.846287 54.119129 
L 266.101905 53.610976 
L 266.614019 51.793916 
L 266.873975 51.714723 
L 267.127368 52.016059 
L 267.898204 54.369826 
L 268.151089 54.86886 
L 268.407276 49.356755 
L 269.433706 53.388471 
L 269.690002 53.895048 
L 269.946365 53.60105 
L 270.204899 52.718508 
L 270.460137 49.855215 
L 271.230467 52.748755 
L 271.487096 53.647128 
L 271.741567 53.745539 
L 271.997463 52.862095 
L 272.255131 49.255746 
L 273.280071 53.194259 
L 273.536267 53.493796 
L 273.794425 53.213248 
L 274.053046 52.157166 
L 274.308047 49.744713 
L 275.076951 52.764405 
L 275.333392 53.449227 
L 275.588904 53.742906 
L 275.844647 53.07056 
L 276.100128 49.14937 
L 276.61232 51.45704 
L 277.382775 53.877098 
L 277.64114 53.602258 
L 277.897723 52.559571 
L 278.153624 49.819534 
L 279.178115 53.633808 
L 279.433513 54.110701 
L 279.689425 53.451573 
L 279.951845 49.256027 
L 280.461023 51.506206 
L 281.229251 53.868976 
L 281.488503 53.790252 
L 281.744998 52.954533 
L 282.16559 50.622712 
L 283.281864 54.104055 
L 283.537704 53.643509 
L 284.051869 52.183589 
L 284.306279 51.909275 
L 284.818765 53.025489 
L 285.331871 54.509941 
L 285.589402 54.794339 
L 285.846885 49.966983 
L 286.868201 53.618546 
L 287.128595 54.092463 
L 287.384861 53.824293 
L 287.642303 53.016951 
L 302.199415 53.276791 
L 302.498105 53.998482 
L 302.755988 54.260677 
L 303.010911 53.671805 
L 303.269398 50.259585 
L 304.292098 53.61208 
L 304.555822 54.223641 
L 304.80821 53.965989 
L 305.063788 53.219382 
L 305.319083 50.65868 
L 306.342882 53.984143 
L 306.60454 54.252629 
L 306.857376 53.833486 
L 307.11602 49.991975 
L 307.883578 52.870288 
L 308.389244 54.172464 
L 308.653633 54.118162 
L 308.908563 53.545922 
L 309.16529 52.655536 
L 309.421087 52.253902 
L 309.679914 52.511031 
L 310.190675 53.816325 
L 310.703707 54.964579 
L 310.960389 49.887638 
L 311.469731 51.97882 
L 311.981198 53.596543 
L 312.244276 54.184637 
L 312.496742 54.25845 
L 312.755038 53.705418 
L 313.012028 50.59876 
L 313.523329 52.359999 
L 314.035878 53.966694 
L 314.294668 54.217693 
L 314.550071 53.820502 
L 314.988037 53.619866 
L 315.190869 51.496428 
L 315.871464 53.558788 
L 316.101782 54.20331 
L 316.345125 54.408689 
L 316.601899 53.860545 
L 316.855935 50.485212 
L 317.37188 52.385103 
L 318.142303 54.365328 
L 318.392303 54.11642 
L 318.651361 53.580437 
L 318.908782 51.021883 
L 319.934594 54.153423 
L 320.188183 54.539233 
L 320.445605 54.312622 
L 320.70515 53.627268 
L 320.958007 51.53986 
L 322.091163 54.629551 
L 322.303692 54.591001 
L 322.531636 53.97827 
L 322.750983 50.899375 
L 323.780189 54.139782 
L 324.036333 54.372907 
L 324.293125 53.995932 
L 324.547371 53.308807 
L 324.801173 51.563339 
L 325.317109 52.795182 
L 325.833571 54.635328 
L 326.091538 54.719163 
L 326.343356 54.331418 
L 326.60531 51.112651 
L 327.113399 52.914094 
L 327.883513 54.812081 
L 328.139576 54.588827 
L 328.399228 53.925382 
L 328.65314 51.758027 
L 329.422156 54.085378 
L 329.931873 54.98168 
L 330.193051 54.624292 
L 330.448808 50.996019 
L 330.96247 52.93013 
L 331.731171 54.793577 
L 331.988085 54.724287 
L 332.754992 52.888657 
L 333.011232 52.967004 
L 333.52774 54.160308 
L 334.225558 55.676064 
L 334.461072 51.027426 
L 334.956295 53.027306 
L 335.649627 54.811998 
L 335.874333 54.806745 
L 336.103862 54.231862 
L 336.34609 51.236904 
L 336.859076 52.978681 
L 337.627149 54.650638 
L 337.883542 54.437443 
L 338.139931 53.792674 
L 338.396464 51.862127 
L 339.681145 54.82903 
L 339.934841 54.324072 
L 340.189616 51.264533 
L 355.002357 53.409575 
L 355.307431 51.070846 
L 356.081615 53.203767 
L 356.331519 53.672508 
L 356.591867 53.898706 
L 356.845255 53.440301 
L 357.360272 52.282637 
L 357.617067 52.234799 
L 358.132734 53.336031 
L 358.64153 54.42036 
L 358.901437 54.643281 
L 359.151686 51.278277 
L 359.918457 53.362813 
L 360.176635 53.844395 
L 360.435542 53.932022 
L 360.693822 53.623317 
L 360.948516 50.954056 
L 361.97297 53.630792 
L 362.230347 53.845145 
L 362.487929 53.537069 
L 362.74552 52.839294 
L 362.999633 51.35903 
L 363.76819 53.417621 
L 364.025911 53.891155 
L 364.282959 53.843309 
L 364.539107 53.40476 
L 364.793433 52.705185 
L 365.051757 52.40403 
L 365.562339 52.947278 
L 366.336286 54.487807 
L 366.589243 50.586654 
L 367.10651 52.290378 
L 367.872435 53.930231 
L 368.129514 53.883097 
L 368.385582 53.322909 
L 368.641792 51.241893 
L 369.665979 53.842865 
L 369.922179 54.048367 
L 370.179827 53.621894 
L 370.437122 50.925877 
L 371.463505 53.639426 
L 371.717728 53.839133 
L 371.98855 53.697902 
L 372.246046 53.023671 
L 372.499496 51.342387 
L 372.998281 52.719578 
L 373.512954 53.882828 
L 373.76746 53.830902 
L 374.021116 53.401896 
L 374.27984 51.12038 
L 375.308366 53.677193 
L 375.563705 53.627698 
L 375.817143 53.201451 
L 376.334035 52.12838 
L 376.601137 52.230311 
L 377.103615 53.226774 
L 377.625801 54.266749 
L 377.878589 54.334984 
L 378.142091 51.230547 
L 378.911929 53.179689 
L 379.172939 53.634737 
L 379.441687 53.738327 
L 380.209169 52.252562 
L 380.465011 52.450002 
L 381.48832 54.21197 
L 381.74837 50.658338 
L 382.511784 52.808522 
L 382.77687 53.387621 
L 383.034888 53.587718 
L 383.301012 53.321295 
L 383.565653 52.690539 
L 383.818865 51.317187 
L 384.599914 53.131758 
L 384.866693 53.590229 
L 385.124624 53.548097 
L 385.390516 53.163211 
L 385.651429 52.529468 
L 385.914254 52.260243 
L 386.170521 52.454668 
L 386.674307 53.421024 
L 386.932261 53.97693 
L 387.183513 54.159411 
L 387.445065 50.679468 
L 388.215212 52.80162 
L 388.752558 53.714667 
L 389.018609 53.571706 
L 389.282181 53.06865 
L 389.543354 51.384374 
L 390.584135 53.833893 
L 390.842879 53.912041 
L 391.136559 53.592904 
L 391.414232 51.249561 
L 392.494637 53.883848 
L 392.753002 54.077922 
L 393.013928 53.808491 
L 407.541705 53.227816 
L 407.85616 53.080096 
L 408.126003 52.62143 
L 408.397051 51.061936 
L 409.45217 53.389312 
L 409.710731 53.462608 
L 409.977224 53.109531 
L 410.239389 50.880754 
L 410.764675 52.252096 
L 411.284339 53.283435 
L 411.541897 53.464371 
L 412.081395 52.666657 
L 412.351273 52.215204 
L 412.618946 52.197285 
L 413.157556 53.150449 
L 413.702011 54.114802 
L 413.96383 54.193101 
L 414.281163 51.54968 
L 415.367845 53.897434 
L 415.640032 53.995762 
L 415.904927 53.645121 
L 416.177802 51.474535 
L 417.282401 53.951022 
L 417.544388 54.137019 
L 418.161194 53.393915 
L 418.438128 53.070565 
L 418.710953 53.062205 
L 418.980888 53.370362 
L 419.802411 54.854073 
L 420.067537 55.044482 
L 420.340197 52.357121 
L 421.727426 54.814512 
L 421.997109 54.478104 
L 422.272292 52.24036 
L 422.814235 53.596091 
L 423.632206 54.949478 
L 423.909937 54.73641 
L 424.687111 53.359684 
L 425.530872 55.177152 
L 425.836998 55.653982 
L 426.115025 55.65347 
L 426.396104 55.341628 
L 426.666181 54.798922 
L 426.937349 54.575629 
L 427.221043 54.797098 
L 428.372677 56.55489 
L 428.65524 53.522114 
L 429.484604 55.500492 
L 430.04218 56.340096 
L 430.321669 56.237038 
L 431.105005 54.784359 
L 432.064425 56.787665 
L 432.343059 57.204642 
L 432.617524 57.404863 
L 432.894471 57.088175 
L 433.167517 55.002252 
L 434.325032 57.466318 
L 434.607339 57.67989 
L 434.890704 57.480169 
L 435.18296 57.090395 
L 435.461917 55.852249 
L 436.351024 57.599951 
L 436.64417 58.142224 
L 436.939611 58.171855 
L 437.282339 57.979241 
L 437.577329 56.158825 
L 438.726799 58.478191 
L 439.005098 58.578653 
L 439.846137 57.558953 
L 440.133144 57.573328 
L 440.412178 57.879391 
L 441.273937 59.352851 
L 441.557227 59.56359 
L 441.842617 56.92554 
L 442.998387 59.230549 
L 443.285401 59.345235 
L 443.581365 59.171005 
L 443.86909 57.060079 
L 445.05096 59.500552 
L 445.337644 59.816404 
L 445.638759 59.75304 
L 460.080932 52.528764 
L 460.410652 53.093944 
L 460.70213 53.308433 
L 460.989102 53.135278 
L 461.283539 52.691142 
L 461.578994 51.683925 
L 462.449632 53.357166 
L 462.73711 53.752759 
L 463.063043 53.835366 
L 463.548615 53.811726 
L 463.835819 53.451125 
L 464.129987 53.291477 
L 464.427644 53.420159 
L 465.628033 55.173206 
L 465.915853 52.469244 
L 466.788339 54.221836 
L 467.091738 54.827601 
L 467.39258 55.147613 
L 467.691661 55.089285 
L 467.992089 54.752528 
L 468.281465 53.37263 
L 469.49978 55.604156 
L 469.796712 55.72884 
L 470.090043 55.567387 
L 470.39291 53.657324 
L 471.319852 55.483581 
L 471.920879 56.301338 
L 472.225515 56.158916 
L 472.517497 55.717442 
L 472.811511 54.633771 
L 473.728877 56.342966 
L 474.031925 56.753921 
L 474.325838 56.779034 
L 474.627117 56.5389 
L 474.919051 54.902613 
L 475.515367 56.072266 
L 476.280262 57.429086 
L 476.573644 57.452698 
L 477.481784 56.558661 
L 477.773281 56.6714 
L 478.419866 57.643146 
L 479.020868 58.539643 
L 479.313252 58.652575 
L 479.615857 56.493539 
L 480.530328 58.081515 
L 480.834696 58.579688 
L 481.141861 58.624762 
L 481.45711 58.317558 
L 481.765053 56.816716 
L 483.147115 59.249215 
L 483.450138 59.286838 
L 483.754469 59.053499 
L 484.056251 58.634955 
L 484.360816 58.403362 
L 484.66918 58.540675 
L 486.202482 60.479844 
L 486.51086 58.354568 
L 487.436187 60.027079 
L 487.752171 60.446197 
L 488.060511 60.491147 
L 488.72818 60.031619 
L 489.195497 60.061975 
L 489.504152 60.287433 
L 490.771104 61.959679 
L 491.079639 59.401106 
L 492.010384 61.245146 
L 492.638931 62.069301 
L 492.951969 62.030439 
L 493.256075 61.708691 
L 493.566714 60.505691 
L 494.491834 62.154208 
L 494.799891 62.554344 
L 495.624121 62.887418 
L 495.934583 61.157611 
L 497.168136 63.304868 
L 497.475724 63.528611 
L 497.787683 63.402984 
L 498.109091 63.114938 
L 498.109091 63.114938 
" style="fill:none;stroke:#1f77b4;stroke-linecap:square;stroke-width:1.5;"/>
   </g>
   <g id="patch_3">
    <path d="M 72 384.48 
L 72 51.84 
" style="fill:none;stroke:#000000;stroke-linecap:square;stroke-linejoin:miter;stroke-width:0.8;"/>
   </g>
   <g id="patch_4">
    <path d="M 518.4 384.48 
L 518.4 51.84 
" style="fill:none;stroke:#000000;stroke-linecap:square;stroke-linejoin:miter;stroke-width:0.8;"/>
   </g>
   <g id="patch_5">
    <path d="M 72 384.48 
L 518.4 384.48 
" style="fill:none;stroke:#000000;stroke-linecap:square;stroke-linejoin:miter;stroke-width:0.8;"/>
   </g>
   <g id="patch_6">
    <path d="M 72 51.84 
L 518.4 51.84 
" style="fill:none;stroke:#000000;stroke-linecap:square;stroke-linejoin:miter;stroke-width:0.8;"/>
   </g>
   <g id="text_18">
    <!-- 11_06_14_21 -->
    <defs>
     <path d="M 50.984375 -16.609375 
L 50.984375 -23.578125 
L -0.984375 -23.578125 
L -0.984375 -16.609375 
z
" id="DejaVuSans-95"/>
     <path d="M 33.015625 40.375 
Q 26.375 40.375 22.484375 35.828125 
Q 18.609375 31.296875 18.609375 23.390625 
Q 18.609375 15.53125 22.484375 10.953125 
Q 26.375 6.390625 33.015625 6.390625 
Q 39.65625 6.390625 43.53125 10.953125 
Q 47.40625 15.53125 47.40625 23.390625 
Q 47.40625 31.296875 43.53125 35.828125 
Q 39.65625 40.375 33.015625 40.375 
z
M 52.59375 71.296875 
L 52.59375 62.3125 
Q 48.875 64.0625 45.09375 64.984375 
Q 41.3125 65.921875 37.59375 65.921875 
Q 27.828125 65.921875 22.671875 59.328125 
Q 17.53125 52.734375 16.796875 39.40625 
Q 19.671875 43.65625 24.015625 45.921875 
Q 28.375 48.1875 33.59375 48.1875 
Q 44.578125 48.1875 50.953125 41.515625 
Q 57.328125 34.859375 57.328125 23.390625 
Q 57.328125 12.15625 50.6875 5.359375 
Q 44.046875 -1.421875 33.015625 -1.421875 
Q 20.359375 -1.421875 13.671875 8.265625 
Q 6.984375 17.96875 6.984375 36.375 
Q 6.984375 53.65625 15.1875 63.9375 
Q 23.390625 74.21875 37.203125 74.21875 
Q 40.921875 74.21875 44.703125 73.484375 
Q 48.484375 72.75 52.59375 71.296875 
z
" id="DejaVuSans-54"/>
     <path d="M 37.796875 64.3125 
L 12.890625 25.390625 
L 37.796875 25.390625 
z
M 35.203125 72.90625 
L 47.609375 72.90625 
L 47.609375 25.390625 
L 58.015625 25.390625 
L 58.015625 17.1875 
L 47.609375 17.1875 
L 47.609375 0 
L 37.796875 0 
L 37.796875 17.1875 
L 4.890625 17.1875 
L 4.890625 26.703125 
z
" id="DejaVuSans-52"/>
    </defs>
    <g transform="translate(255.66 45.84)scale(0.12 -0.12)">
     <use xlink:href="#DejaVuSans-49"/>
     <use x="63.623047" xlink:href="#DejaVuSans-49"/>
     <use x="127.246094" xlink:href="#DejaVuSans-95"/>
     <use x="177.246094" xlink:href="#DejaVuSans-48"/>
     <use x="240.869141" xlink:href="#DejaVuSans-54"/>
     <use x="304.492188" xlink:href="#DejaVuSans-95"/>
     <use x="354.492188" xlink:href="#DejaVuSans-49"/>
     <use x="418.115234" xlink:href="#DejaVuSans-52"/>
     <use x="481.738281" xlink:href="#DejaVuSans-95"/>
     <use x="531.738281" xlink:href="#DejaVuSans-50"/>
     <use x="595.361328" xlink:href="#DejaVuSans-49"/>
    </g>
   </g>
  </g>
 </g>
 <defs>
  <clipPath id="p4dc8792b24">
   <rect height="332.64" width="446.4" x="72" y="51.84"/>
  </clipPath>
 </defs>
</svg>
