<?xml version="1.0" encoding="utf-8" standalone="no"?>
<!DOCTYPE svg PUBLIC "-//W3C//DTD SVG 1.1//EN"
  "http://www.w3.org/Graphics/SVG/1.1/DTD/svg11.dtd">
<!-- Created with matplotlib (https://matplotlib.org/) -->
<svg height="432pt" version="1.1" viewBox="0 0 576 432" width="576pt" xmlns="http://www.w3.org/2000/svg" xmlns:xlink="http://www.w3.org/1999/xlink">
 <defs>
  <style type="text/css">
*{stroke-linecap:butt;stroke-linejoin:round;}
  </style>
 </defs>
 <g id="figure_1">
  <g id="patch_1">
   <path d="M 0 432 
L 576 432 
L 576 0 
L 0 0 
z
" style="fill:#ffffff;"/>
  </g>
  <g id="axes_1">
   <g id="patch_2">
    <path d="M 72 384.48 
L 518.4 384.48 
L 518.4 51.84 
L 72 51.84 
z
" style="fill:#ffffff;"/>
   </g>
   <g id="matplotlib.axis_1">
    <g id="xtick_1">
     <g id="line2d_1">
      <defs>
       <path d="M 0 0 
L 0 3.5 
" id="m5e5467fe6b" style="stroke:#000000;stroke-width:0.8;"/>
      </defs>
      <g>
       <use style="stroke:#000000;stroke-width:0.8;" x="92.290909" xlink:href="#m5e5467fe6b" y="384.48"/>
      </g>
     </g>
     <g id="text_1">
      <!-- 0 -->
      <defs>
       <path d="M 31.78125 66.40625 
Q 24.171875 66.40625 20.328125 58.90625 
Q 16.5 51.421875 16.5 36.375 
Q 16.5 21.390625 20.328125 13.890625 
Q 24.171875 6.390625 31.78125 6.390625 
Q 39.453125 6.390625 43.28125 13.890625 
Q 47.125 21.390625 47.125 36.375 
Q 47.125 51.421875 43.28125 58.90625 
Q 39.453125 66.40625 31.78125 66.40625 
z
M 31.78125 74.21875 
Q 44.046875 74.21875 50.515625 64.515625 
Q 56.984375 54.828125 56.984375 36.375 
Q 56.984375 17.96875 50.515625 8.265625 
Q 44.046875 -1.421875 31.78125 -1.421875 
Q 19.53125 -1.421875 13.0625 8.265625 
Q 6.59375 17.96875 6.59375 36.375 
Q 6.59375 54.828125 13.0625 64.515625 
Q 19.53125 74.21875 31.78125 74.21875 
z
" id="DejaVuSans-48"/>
      </defs>
      <g transform="translate(89.109659 399.078438)scale(0.1 -0.1)">
       <use xlink:href="#DejaVuSans-48"/>
      </g>
     </g>
    </g>
    <g id="xtick_2">
     <g id="line2d_2">
      <g>
       <use style="stroke:#000000;stroke-width:0.8;" x="160.420211" xlink:href="#m5e5467fe6b" y="384.48"/>
      </g>
     </g>
     <g id="text_2">
      <!-- 10 -->
      <defs>
       <path d="M 12.40625 8.296875 
L 28.515625 8.296875 
L 28.515625 63.921875 
L 10.984375 60.40625 
L 10.984375 69.390625 
L 28.421875 72.90625 
L 38.28125 72.90625 
L 38.28125 8.296875 
L 54.390625 8.296875 
L 54.390625 0 
L 12.40625 0 
z
" id="DejaVuSans-49"/>
      </defs>
      <g transform="translate(154.057711 399.078438)scale(0.1 -0.1)">
       <use xlink:href="#DejaVuSans-49"/>
       <use x="63.623047" xlink:href="#DejaVuSans-48"/>
      </g>
     </g>
    </g>
    <g id="xtick_3">
     <g id="line2d_3">
      <g>
       <use style="stroke:#000000;stroke-width:0.8;" x="228.549513" xlink:href="#m5e5467fe6b" y="384.48"/>
      </g>
     </g>
     <g id="text_3">
      <!-- 20 -->
      <defs>
       <path d="M 19.1875 8.296875 
L 53.609375 8.296875 
L 53.609375 0 
L 7.328125 0 
L 7.328125 8.296875 
Q 12.9375 14.109375 22.625 23.890625 
Q 32.328125 33.6875 34.8125 36.53125 
Q 39.546875 41.84375 41.421875 45.53125 
Q 43.3125 49.21875 43.3125 52.78125 
Q 43.3125 58.59375 39.234375 62.25 
Q 35.15625 65.921875 28.609375 65.921875 
Q 23.96875 65.921875 18.8125 64.3125 
Q 13.671875 62.703125 7.8125 59.421875 
L 7.8125 69.390625 
Q 13.765625 71.78125 18.9375 73 
Q 24.125 74.21875 28.421875 74.21875 
Q 39.75 74.21875 46.484375 68.546875 
Q 53.21875 62.890625 53.21875 53.421875 
Q 53.21875 48.921875 51.53125 44.890625 
Q 49.859375 40.875 45.40625 35.40625 
Q 44.1875 33.984375 37.640625 27.21875 
Q 31.109375 20.453125 19.1875 8.296875 
z
" id="DejaVuSans-50"/>
      </defs>
      <g transform="translate(222.187013 399.078438)scale(0.1 -0.1)">
       <use xlink:href="#DejaVuSans-50"/>
       <use x="63.623047" xlink:href="#DejaVuSans-48"/>
      </g>
     </g>
    </g>
    <g id="xtick_4">
     <g id="line2d_4">
      <g>
       <use style="stroke:#000000;stroke-width:0.8;" x="296.678814" xlink:href="#m5e5467fe6b" y="384.48"/>
      </g>
     </g>
     <g id="text_4">
      <!-- 30 -->
      <defs>
       <path d="M 40.578125 39.3125 
Q 47.65625 37.796875 51.625 33 
Q 55.609375 28.21875 55.609375 21.1875 
Q 55.609375 10.40625 48.1875 4.484375 
Q 40.765625 -1.421875 27.09375 -1.421875 
Q 22.515625 -1.421875 17.65625 -0.515625 
Q 12.796875 0.390625 7.625 2.203125 
L 7.625 11.71875 
Q 11.71875 9.328125 16.59375 8.109375 
Q 21.484375 6.890625 26.8125 6.890625 
Q 36.078125 6.890625 40.9375 10.546875 
Q 45.796875 14.203125 45.796875 21.1875 
Q 45.796875 27.640625 41.28125 31.265625 
Q 36.765625 34.90625 28.71875 34.90625 
L 20.21875 34.90625 
L 20.21875 43.015625 
L 29.109375 43.015625 
Q 36.375 43.015625 40.234375 45.921875 
Q 44.09375 48.828125 44.09375 54.296875 
Q 44.09375 59.90625 40.109375 62.90625 
Q 36.140625 65.921875 28.71875 65.921875 
Q 24.65625 65.921875 20.015625 65.03125 
Q 15.375 64.15625 9.8125 62.3125 
L 9.8125 71.09375 
Q 15.4375 72.65625 20.34375 73.4375 
Q 25.25 74.21875 29.59375 74.21875 
Q 40.828125 74.21875 47.359375 69.109375 
Q 53.90625 64.015625 53.90625 55.328125 
Q 53.90625 49.265625 50.4375 45.09375 
Q 46.96875 40.921875 40.578125 39.3125 
z
" id="DejaVuSans-51"/>
      </defs>
      <g transform="translate(290.316314 399.078438)scale(0.1 -0.1)">
       <use xlink:href="#DejaVuSans-51"/>
       <use x="63.623047" xlink:href="#DejaVuSans-48"/>
      </g>
     </g>
    </g>
    <g id="xtick_5">
     <g id="line2d_5">
      <g>
       <use style="stroke:#000000;stroke-width:0.8;" x="364.808116" xlink:href="#m5e5467fe6b" y="384.48"/>
      </g>
     </g>
     <g id="text_5">
      <!-- 40 -->
      <defs>
       <path d="M 37.796875 64.3125 
L 12.890625 25.390625 
L 37.796875 25.390625 
z
M 35.203125 72.90625 
L 47.609375 72.90625 
L 47.609375 25.390625 
L 58.015625 25.390625 
L 58.015625 17.1875 
L 47.609375 17.1875 
L 47.609375 0 
L 37.796875 0 
L 37.796875 17.1875 
L 4.890625 17.1875 
L 4.890625 26.703125 
z
" id="DejaVuSans-52"/>
      </defs>
      <g transform="translate(358.445616 399.078438)scale(0.1 -0.1)">
       <use xlink:href="#DejaVuSans-52"/>
       <use x="63.623047" xlink:href="#DejaVuSans-48"/>
      </g>
     </g>
    </g>
    <g id="xtick_6">
     <g id="line2d_6">
      <g>
       <use style="stroke:#000000;stroke-width:0.8;" x="432.937418" xlink:href="#m5e5467fe6b" y="384.48"/>
      </g>
     </g>
     <g id="text_6">
      <!-- 50 -->
      <defs>
       <path d="M 10.796875 72.90625 
L 49.515625 72.90625 
L 49.515625 64.59375 
L 19.828125 64.59375 
L 19.828125 46.734375 
Q 21.96875 47.46875 24.109375 47.828125 
Q 26.265625 48.1875 28.421875 48.1875 
Q 40.625 48.1875 47.75 41.5 
Q 54.890625 34.8125 54.890625 23.390625 
Q 54.890625 11.625 47.5625 5.09375 
Q 40.234375 -1.421875 26.90625 -1.421875 
Q 22.3125 -1.421875 17.546875 -0.640625 
Q 12.796875 0.140625 7.71875 1.703125 
L 7.71875 11.625 
Q 12.109375 9.234375 16.796875 8.0625 
Q 21.484375 6.890625 26.703125 6.890625 
Q 35.15625 6.890625 40.078125 11.328125 
Q 45.015625 15.765625 45.015625 23.390625 
Q 45.015625 31 40.078125 35.4375 
Q 35.15625 39.890625 26.703125 39.890625 
Q 22.75 39.890625 18.8125 39.015625 
Q 14.890625 38.140625 10.796875 36.28125 
z
" id="DejaVuSans-53"/>
      </defs>
      <g transform="translate(426.574918 399.078438)scale(0.1 -0.1)">
       <use xlink:href="#DejaVuSans-53"/>
       <use x="63.623047" xlink:href="#DejaVuSans-48"/>
      </g>
     </g>
    </g>
    <g id="xtick_7">
     <g id="line2d_7">
      <g>
       <use style="stroke:#000000;stroke-width:0.8;" x="501.06672" xlink:href="#m5e5467fe6b" y="384.48"/>
      </g>
     </g>
     <g id="text_7">
      <!-- 60 -->
      <defs>
       <path d="M 33.015625 40.375 
Q 26.375 40.375 22.484375 35.828125 
Q 18.609375 31.296875 18.609375 23.390625 
Q 18.609375 15.53125 22.484375 10.953125 
Q 26.375 6.390625 33.015625 6.390625 
Q 39.65625 6.390625 43.53125 10.953125 
Q 47.40625 15.53125 47.40625 23.390625 
Q 47.40625 31.296875 43.53125 35.828125 
Q 39.65625 40.375 33.015625 40.375 
z
M 52.59375 71.296875 
L 52.59375 62.3125 
Q 48.875 64.0625 45.09375 64.984375 
Q 41.3125 65.921875 37.59375 65.921875 
Q 27.828125 65.921875 22.671875 59.328125 
Q 17.53125 52.734375 16.796875 39.40625 
Q 19.671875 43.65625 24.015625 45.921875 
Q 28.375 48.1875 33.59375 48.1875 
Q 44.578125 48.1875 50.953125 41.515625 
Q 57.328125 34.859375 57.328125 23.390625 
Q 57.328125 12.15625 50.6875 5.359375 
Q 44.046875 -1.421875 33.015625 -1.421875 
Q 20.359375 -1.421875 13.671875 8.265625 
Q 6.984375 17.96875 6.984375 36.375 
Q 6.984375 53.65625 15.1875 63.9375 
Q 23.390625 74.21875 37.203125 74.21875 
Q 40.921875 74.21875 44.703125 73.484375 
Q 48.484375 72.75 52.59375 71.296875 
z
" id="DejaVuSans-54"/>
      </defs>
      <g transform="translate(494.70422 399.078438)scale(0.1 -0.1)">
       <use xlink:href="#DejaVuSans-54"/>
       <use x="63.623047" xlink:href="#DejaVuSans-48"/>
      </g>
     </g>
    </g>
    <g id="text_8">
     <!-- Time [s] -->
     <defs>
      <path d="M -0.296875 72.90625 
L 61.375 72.90625 
L 61.375 64.59375 
L 35.5 64.59375 
L 35.5 0 
L 25.59375 0 
L 25.59375 64.59375 
L -0.296875 64.59375 
z
" id="DejaVuSans-84"/>
      <path d="M 9.421875 54.6875 
L 18.40625 54.6875 
L 18.40625 0 
L 9.421875 0 
z
M 9.421875 75.984375 
L 18.40625 75.984375 
L 18.40625 64.59375 
L 9.421875 64.59375 
z
" id="DejaVuSans-105"/>
      <path d="M 52 44.1875 
Q 55.375 50.25 60.0625 53.125 
Q 64.75 56 71.09375 56 
Q 79.640625 56 84.28125 50.015625 
Q 88.921875 44.046875 88.921875 33.015625 
L 88.921875 0 
L 79.890625 0 
L 79.890625 32.71875 
Q 79.890625 40.578125 77.09375 44.375 
Q 74.3125 48.1875 68.609375 48.1875 
Q 61.625 48.1875 57.5625 43.546875 
Q 53.515625 38.921875 53.515625 30.90625 
L 53.515625 0 
L 44.484375 0 
L 44.484375 32.71875 
Q 44.484375 40.625 41.703125 44.40625 
Q 38.921875 48.1875 33.109375 48.1875 
Q 26.21875 48.1875 22.15625 43.53125 
Q 18.109375 38.875 18.109375 30.90625 
L 18.109375 0 
L 9.078125 0 
L 9.078125 54.6875 
L 18.109375 54.6875 
L 18.109375 46.1875 
Q 21.1875 51.21875 25.484375 53.609375 
Q 29.78125 56 35.6875 56 
Q 41.65625 56 45.828125 52.96875 
Q 50 49.953125 52 44.1875 
z
" id="DejaVuSans-109"/>
      <path d="M 56.203125 29.59375 
L 56.203125 25.203125 
L 14.890625 25.203125 
Q 15.484375 15.921875 20.484375 11.0625 
Q 25.484375 6.203125 34.421875 6.203125 
Q 39.59375 6.203125 44.453125 7.46875 
Q 49.3125 8.734375 54.109375 11.28125 
L 54.109375 2.78125 
Q 49.265625 0.734375 44.1875 -0.34375 
Q 39.109375 -1.421875 33.890625 -1.421875 
Q 20.796875 -1.421875 13.15625 6.1875 
Q 5.515625 13.8125 5.515625 26.8125 
Q 5.515625 40.234375 12.765625 48.109375 
Q 20.015625 56 32.328125 56 
Q 43.359375 56 49.78125 48.890625 
Q 56.203125 41.796875 56.203125 29.59375 
z
M 47.21875 32.234375 
Q 47.125 39.59375 43.09375 43.984375 
Q 39.0625 48.390625 32.421875 48.390625 
Q 24.90625 48.390625 20.390625 44.140625 
Q 15.875 39.890625 15.1875 32.171875 
z
" id="DejaVuSans-101"/>
      <path id="DejaVuSans-32"/>
      <path d="M 8.59375 75.984375 
L 29.296875 75.984375 
L 29.296875 69 
L 17.578125 69 
L 17.578125 -6.203125 
L 29.296875 -6.203125 
L 29.296875 -13.1875 
L 8.59375 -13.1875 
z
" id="DejaVuSans-91"/>
      <path d="M 44.28125 53.078125 
L 44.28125 44.578125 
Q 40.484375 46.53125 36.375 47.5 
Q 32.28125 48.484375 27.875 48.484375 
Q 21.1875 48.484375 17.84375 46.4375 
Q 14.5 44.390625 14.5 40.28125 
Q 14.5 37.15625 16.890625 35.375 
Q 19.28125 33.59375 26.515625 31.984375 
L 29.59375 31.296875 
Q 39.15625 29.25 43.1875 25.515625 
Q 47.21875 21.78125 47.21875 15.09375 
Q 47.21875 7.46875 41.1875 3.015625 
Q 35.15625 -1.421875 24.609375 -1.421875 
Q 20.21875 -1.421875 15.453125 -0.5625 
Q 10.6875 0.296875 5.421875 2 
L 5.421875 11.28125 
Q 10.40625 8.6875 15.234375 7.390625 
Q 20.0625 6.109375 24.8125 6.109375 
Q 31.15625 6.109375 34.5625 8.28125 
Q 37.984375 10.453125 37.984375 14.40625 
Q 37.984375 18.0625 35.515625 20.015625 
Q 33.0625 21.96875 24.703125 23.78125 
L 21.578125 24.515625 
Q 13.234375 26.265625 9.515625 29.90625 
Q 5.8125 33.546875 5.8125 39.890625 
Q 5.8125 47.609375 11.28125 51.796875 
Q 16.75 56 26.8125 56 
Q 31.78125 56 36.171875 55.265625 
Q 40.578125 54.546875 44.28125 53.078125 
z
" id="DejaVuSans-115"/>
      <path d="M 30.421875 75.984375 
L 30.421875 -13.1875 
L 9.71875 -13.1875 
L 9.71875 -6.203125 
L 21.390625 -6.203125 
L 21.390625 69 
L 9.71875 69 
L 9.71875 75.984375 
z
" id="DejaVuSans-93"/>
     </defs>
     <g transform="translate(274.717187 412.756563)scale(0.1 -0.1)">
      <use xlink:href="#DejaVuSans-84"/>
      <use x="61.037109" xlink:href="#DejaVuSans-105"/>
      <use x="88.820312" xlink:href="#DejaVuSans-109"/>
      <use x="186.232422" xlink:href="#DejaVuSans-101"/>
      <use x="247.755859" xlink:href="#DejaVuSans-32"/>
      <use x="279.542969" xlink:href="#DejaVuSans-91"/>
      <use x="318.556641" xlink:href="#DejaVuSans-115"/>
      <use x="370.65625" xlink:href="#DejaVuSans-93"/>
     </g>
    </g>
   </g>
   <g id="matplotlib.axis_2">
    <g id="ytick_1">
     <g id="line2d_8">
      <defs>
       <path d="M 0 0 
L -3.5 0 
" id="me6a884d3a5" style="stroke:#000000;stroke-width:0.8;"/>
      </defs>
      <g>
       <use style="stroke:#000000;stroke-width:0.8;" x="72" xlink:href="#me6a884d3a5" y="367.305797"/>
      </g>
     </g>
     <g id="text_9">
      <!-- 0.00 -->
      <defs>
       <path d="M 10.6875 12.40625 
L 21 12.40625 
L 21 0 
L 10.6875 0 
z
" id="DejaVuSans-46"/>
      </defs>
      <g transform="translate(42.734375 371.105016)scale(0.1 -0.1)">
       <use xlink:href="#DejaVuSans-48"/>
       <use x="63.623047" xlink:href="#DejaVuSans-46"/>
       <use x="95.410156" xlink:href="#DejaVuSans-48"/>
       <use x="159.033203" xlink:href="#DejaVuSans-48"/>
      </g>
     </g>
    </g>
    <g id="ytick_2">
     <g id="line2d_9">
      <g>
       <use style="stroke:#000000;stroke-width:0.8;" x="72" xlink:href="#me6a884d3a5" y="326.221736"/>
      </g>
     </g>
     <g id="text_10">
      <!-- 0.02 -->
      <g transform="translate(42.734375 330.020954)scale(0.1 -0.1)">
       <use xlink:href="#DejaVuSans-48"/>
       <use x="63.623047" xlink:href="#DejaVuSans-46"/>
       <use x="95.410156" xlink:href="#DejaVuSans-48"/>
       <use x="159.033203" xlink:href="#DejaVuSans-50"/>
      </g>
     </g>
    </g>
    <g id="ytick_3">
     <g id="line2d_10">
      <g>
       <use style="stroke:#000000;stroke-width:0.8;" x="72" xlink:href="#me6a884d3a5" y="285.137674"/>
      </g>
     </g>
     <g id="text_11">
      <!-- 0.04 -->
      <g transform="translate(42.734375 288.936893)scale(0.1 -0.1)">
       <use xlink:href="#DejaVuSans-48"/>
       <use x="63.623047" xlink:href="#DejaVuSans-46"/>
       <use x="95.410156" xlink:href="#DejaVuSans-48"/>
       <use x="159.033203" xlink:href="#DejaVuSans-52"/>
      </g>
     </g>
    </g>
    <g id="ytick_4">
     <g id="line2d_11">
      <g>
       <use style="stroke:#000000;stroke-width:0.8;" x="72" xlink:href="#me6a884d3a5" y="244.053613"/>
      </g>
     </g>
     <g id="text_12">
      <!-- 0.06 -->
      <g transform="translate(42.734375 247.852832)scale(0.1 -0.1)">
       <use xlink:href="#DejaVuSans-48"/>
       <use x="63.623047" xlink:href="#DejaVuSans-46"/>
       <use x="95.410156" xlink:href="#DejaVuSans-48"/>
       <use x="159.033203" xlink:href="#DejaVuSans-54"/>
      </g>
     </g>
    </g>
    <g id="ytick_5">
     <g id="line2d_12">
      <g>
       <use style="stroke:#000000;stroke-width:0.8;" x="72" xlink:href="#me6a884d3a5" y="202.969551"/>
      </g>
     </g>
     <g id="text_13">
      <!-- 0.08 -->
      <defs>
       <path d="M 31.78125 34.625 
Q 24.75 34.625 20.71875 30.859375 
Q 16.703125 27.09375 16.703125 20.515625 
Q 16.703125 13.921875 20.71875 10.15625 
Q 24.75 6.390625 31.78125 6.390625 
Q 38.8125 6.390625 42.859375 10.171875 
Q 46.921875 13.96875 46.921875 20.515625 
Q 46.921875 27.09375 42.890625 30.859375 
Q 38.875 34.625 31.78125 34.625 
z
M 21.921875 38.8125 
Q 15.578125 40.375 12.03125 44.71875 
Q 8.5 49.078125 8.5 55.328125 
Q 8.5 64.0625 14.71875 69.140625 
Q 20.953125 74.21875 31.78125 74.21875 
Q 42.671875 74.21875 48.875 69.140625 
Q 55.078125 64.0625 55.078125 55.328125 
Q 55.078125 49.078125 51.53125 44.71875 
Q 48 40.375 41.703125 38.8125 
Q 48.828125 37.15625 52.796875 32.3125 
Q 56.78125 27.484375 56.78125 20.515625 
Q 56.78125 9.90625 50.3125 4.234375 
Q 43.84375 -1.421875 31.78125 -1.421875 
Q 19.734375 -1.421875 13.25 4.234375 
Q 6.78125 9.90625 6.78125 20.515625 
Q 6.78125 27.484375 10.78125 32.3125 
Q 14.796875 37.15625 21.921875 38.8125 
z
M 18.3125 54.390625 
Q 18.3125 48.734375 21.84375 45.5625 
Q 25.390625 42.390625 31.78125 42.390625 
Q 38.140625 42.390625 41.71875 45.5625 
Q 45.3125 48.734375 45.3125 54.390625 
Q 45.3125 60.0625 41.71875 63.234375 
Q 38.140625 66.40625 31.78125 66.40625 
Q 25.390625 66.40625 21.84375 63.234375 
Q 18.3125 60.0625 18.3125 54.390625 
z
" id="DejaVuSans-56"/>
      </defs>
      <g transform="translate(42.734375 206.76877)scale(0.1 -0.1)">
       <use xlink:href="#DejaVuSans-48"/>
       <use x="63.623047" xlink:href="#DejaVuSans-46"/>
       <use x="95.410156" xlink:href="#DejaVuSans-48"/>
       <use x="159.033203" xlink:href="#DejaVuSans-56"/>
      </g>
     </g>
    </g>
    <g id="ytick_6">
     <g id="line2d_13">
      <g>
       <use style="stroke:#000000;stroke-width:0.8;" x="72" xlink:href="#me6a884d3a5" y="161.88549"/>
      </g>
     </g>
     <g id="text_14">
      <!-- 0.10 -->
      <g transform="translate(42.734375 165.684709)scale(0.1 -0.1)">
       <use xlink:href="#DejaVuSans-48"/>
       <use x="63.623047" xlink:href="#DejaVuSans-46"/>
       <use x="95.410156" xlink:href="#DejaVuSans-49"/>
       <use x="159.033203" xlink:href="#DejaVuSans-48"/>
      </g>
     </g>
    </g>
    <g id="ytick_7">
     <g id="line2d_14">
      <g>
       <use style="stroke:#000000;stroke-width:0.8;" x="72" xlink:href="#me6a884d3a5" y="120.801429"/>
      </g>
     </g>
     <g id="text_15">
      <!-- 0.12 -->
      <g transform="translate(42.734375 124.600647)scale(0.1 -0.1)">
       <use xlink:href="#DejaVuSans-48"/>
       <use x="63.623047" xlink:href="#DejaVuSans-46"/>
       <use x="95.410156" xlink:href="#DejaVuSans-49"/>
       <use x="159.033203" xlink:href="#DejaVuSans-50"/>
      </g>
     </g>
    </g>
    <g id="ytick_8">
     <g id="line2d_15">
      <g>
       <use style="stroke:#000000;stroke-width:0.8;" x="72" xlink:href="#me6a884d3a5" y="79.717367"/>
      </g>
     </g>
     <g id="text_16">
      <!-- 0.14 -->
      <g transform="translate(42.734375 83.516586)scale(0.1 -0.1)">
       <use xlink:href="#DejaVuSans-48"/>
       <use x="63.623047" xlink:href="#DejaVuSans-46"/>
       <use x="95.410156" xlink:href="#DejaVuSans-49"/>
       <use x="159.033203" xlink:href="#DejaVuSans-52"/>
      </g>
     </g>
    </g>
    <g id="text_17">
     <!-- Mass [g] -->
     <defs>
      <path d="M 9.8125 72.90625 
L 24.515625 72.90625 
L 43.109375 23.296875 
L 61.8125 72.90625 
L 76.515625 72.90625 
L 76.515625 0 
L 66.890625 0 
L 66.890625 64.015625 
L 48.09375 14.015625 
L 38.1875 14.015625 
L 19.390625 64.015625 
L 19.390625 0 
L 9.8125 0 
z
" id="DejaVuSans-77"/>
      <path d="M 34.28125 27.484375 
Q 23.390625 27.484375 19.1875 25 
Q 14.984375 22.515625 14.984375 16.5 
Q 14.984375 11.71875 18.140625 8.90625 
Q 21.296875 6.109375 26.703125 6.109375 
Q 34.1875 6.109375 38.703125 11.40625 
Q 43.21875 16.703125 43.21875 25.484375 
L 43.21875 27.484375 
z
M 52.203125 31.203125 
L 52.203125 0 
L 43.21875 0 
L 43.21875 8.296875 
Q 40.140625 3.328125 35.546875 0.953125 
Q 30.953125 -1.421875 24.3125 -1.421875 
Q 15.921875 -1.421875 10.953125 3.296875 
Q 6 8.015625 6 15.921875 
Q 6 25.140625 12.171875 29.828125 
Q 18.359375 34.515625 30.609375 34.515625 
L 43.21875 34.515625 
L 43.21875 35.40625 
Q 43.21875 41.609375 39.140625 45 
Q 35.0625 48.390625 27.6875 48.390625 
Q 23 48.390625 18.546875 47.265625 
Q 14.109375 46.140625 10.015625 43.890625 
L 10.015625 52.203125 
Q 14.9375 54.109375 19.578125 55.046875 
Q 24.21875 56 28.609375 56 
Q 40.484375 56 46.34375 49.84375 
Q 52.203125 43.703125 52.203125 31.203125 
z
" id="DejaVuSans-97"/>
      <path d="M 45.40625 27.984375 
Q 45.40625 37.75 41.375 43.109375 
Q 37.359375 48.484375 30.078125 48.484375 
Q 22.859375 48.484375 18.828125 43.109375 
Q 14.796875 37.75 14.796875 27.984375 
Q 14.796875 18.265625 18.828125 12.890625 
Q 22.859375 7.515625 30.078125 7.515625 
Q 37.359375 7.515625 41.375 12.890625 
Q 45.40625 18.265625 45.40625 27.984375 
z
M 54.390625 6.78125 
Q 54.390625 -7.171875 48.1875 -13.984375 
Q 42 -20.796875 29.203125 -20.796875 
Q 24.46875 -20.796875 20.265625 -20.09375 
Q 16.0625 -19.390625 12.109375 -17.921875 
L 12.109375 -9.1875 
Q 16.0625 -11.328125 19.921875 -12.34375 
Q 23.78125 -13.375 27.78125 -13.375 
Q 36.625 -13.375 41.015625 -8.765625 
Q 45.40625 -4.15625 45.40625 5.171875 
L 45.40625 9.625 
Q 42.625 4.78125 38.28125 2.390625 
Q 33.9375 0 27.875 0 
Q 17.828125 0 11.671875 7.65625 
Q 5.515625 15.328125 5.515625 27.984375 
Q 5.515625 40.671875 11.671875 48.328125 
Q 17.828125 56 27.875 56 
Q 33.9375 56 38.28125 53.609375 
Q 42.625 51.21875 45.40625 46.390625 
L 45.40625 54.6875 
L 54.390625 54.6875 
z
" id="DejaVuSans-103"/>
     </defs>
     <g transform="translate(36.654687 239.412344)rotate(-90)scale(0.1 -0.1)">
      <use xlink:href="#DejaVuSans-77"/>
      <use x="86.279297" xlink:href="#DejaVuSans-97"/>
      <use x="147.558594" xlink:href="#DejaVuSans-115"/>
      <use x="199.658203" xlink:href="#DejaVuSans-115"/>
      <use x="251.757812" xlink:href="#DejaVuSans-32"/>
      <use x="283.544922" xlink:href="#DejaVuSans-91"/>
      <use x="322.558594" xlink:href="#DejaVuSans-103"/>
      <use x="386.035156" xlink:href="#DejaVuSans-93"/>
     </g>
    </g>
   </g>
   <g id="line2d_16">
    <path clip-path="url(#pcb3c8989bc)" d="M 92.290909 367.305797 
L 111.342001 367.305797 
L 112.707115 369.36 
L 145.39766 369.36 
L 146.759864 367.305797 
L 149.475056 367.305797 
L 150.836401 313.896517 
L 153.561947 313.896517 
L 154.926925 311.842314 
L 161.76338 311.842314 
L 163.101392 313.896517 
L 184.891411 313.896517 
L 186.254038 315.95072 
L 229.838874 315.95072 
L 231.199185 313.896517 
L 233.56368 313.896517 
L 234.128581 256.378831 
L 236.63612 256.378831 
L 237.997623 254.324628 
L 242.086587 254.324628 
L 243.465204 256.378831 
L 247.534915 256.378831 
L 248.900232 258.433034 
L 254.353248 258.433034 
L 255.713721 256.378831 
L 257.077581 256.378831 
L 258.428347 254.324628 
L 259.791757 254.324628 
L 261.159686 252.270425 
L 285.668377 252.270425 
L 287.040331 250.216222 
L 288.395709 250.216222 
L 289.755331 248.162019 
L 291.108196 248.162019 
L 292.466715 196.806942 
L 338.77512 196.806942 
L 340.137877 194.752739 
L 348.320532 194.752739 
L 349.681892 192.698536 
L 368.743572 192.698536 
L 371.078717 190.644333 
L 372.831909 190.644333 
L 374.17687 188.59013 
L 375.554894 149.560272 
L 378.283759 149.560272 
L 379.628835 147.506069 
L 381.004284 147.506069 
L 382.363341 145.451866 
L 386.439135 145.451866 
L 387.809734 147.506069 
L 390.547128 147.506069 
L 391.895918 149.560272 
L 394.629579 149.560272 
L 395.985605 151.614475 
L 398.693751 151.614475 
L 400.057515 153.668678 
L 406.936708 153.668678 
L 408.256148 151.614475 
L 409.616704 151.614475 
L 410.961215 149.560272 
L 415.05065 149.560272 
L 416.411539 147.506069 
L 425.933985 147.506069 
L 427.296646 145.451866 
L 439.962783 145.451866 
L 440.969687 143.397662 
L 442.291387 143.397662 
L 443.649443 81.77157 
L 446.36276 81.77157 
L 447.726504 79.717367 
L 451.82981 79.717367 
L 453.176624 77.663164 
L 466.806245 77.663164 
L 468.168456 79.717367 
L 498.109091 79.717367 
L 498.109091 79.717367 
" style="fill:none;stroke:#1f77b4;stroke-linecap:square;stroke-width:1.5;"/>
    <defs>
     <path d="M 0 3 
C 0.795609 3 1.55874 2.683901 2.12132 2.12132 
C 2.683901 1.55874 3 0.795609 3 0 
C 3 -0.795609 2.683901 -1.55874 2.12132 -2.12132 
C 1.55874 -2.683901 0.795609 -3 0 -3 
C -0.795609 -3 -1.55874 -2.683901 -2.12132 -2.12132 
C -2.683901 -1.55874 -3 -0.795609 -3 0 
C -3 0.795609 -2.683901 1.55874 -2.12132 2.12132 
C -1.55874 2.683901 -0.795609 3 0 3 
z
" id="mcb1f720559" style="stroke:#1f77b4;"/>
    </defs>
    <g clip-path="url(#pcb3c8989bc)">
     <use style="fill:#1f77b4;stroke:#1f77b4;" x="92.290909" xlink:href="#mcb1f720559" y="367.305797"/>
     <use style="fill:#1f77b4;stroke:#1f77b4;" x="93.655417" xlink:href="#mcb1f720559" y="367.305797"/>
     <use style="fill:#1f77b4;stroke:#1f77b4;" x="95.017873" xlink:href="#mcb1f720559" y="367.305797"/>
     <use style="fill:#1f77b4;stroke:#1f77b4;" x="97.178798" xlink:href="#mcb1f720559" y="367.305797"/>
     <use style="fill:#1f77b4;stroke:#1f77b4;" x="97.71937" xlink:href="#mcb1f720559" y="367.305797"/>
     <use style="fill:#1f77b4;stroke:#1f77b4;" x="99.105516" xlink:href="#mcb1f720559" y="367.305797"/>
     <use style="fill:#1f77b4;stroke:#1f77b4;" x="100.468115" xlink:href="#mcb1f720559" y="367.305797"/>
     <use style="fill:#1f77b4;stroke:#1f77b4;" x="101.809405" xlink:href="#mcb1f720559" y="367.305797"/>
     <use style="fill:#1f77b4;stroke:#1f77b4;" x="103.168863" xlink:href="#mcb1f720559" y="367.305797"/>
     <use style="fill:#1f77b4;stroke:#1f77b4;" x="104.544387" xlink:href="#mcb1f720559" y="367.305797"/>
     <use style="fill:#1f77b4;stroke:#1f77b4;" x="105.904486" xlink:href="#mcb1f720559" y="367.305797"/>
     <use style="fill:#1f77b4;stroke:#1f77b4;" x="107.255974" xlink:href="#mcb1f720559" y="367.305797"/>
     <use style="fill:#1f77b4;stroke:#1f77b4;" x="108.630284" xlink:href="#mcb1f720559" y="367.305797"/>
     <use style="fill:#1f77b4;stroke:#1f77b4;" x="109.993553" xlink:href="#mcb1f720559" y="367.305797"/>
     <use style="fill:#1f77b4;stroke:#1f77b4;" x="111.342001" xlink:href="#mcb1f720559" y="367.305797"/>
     <use style="fill:#1f77b4;stroke:#1f77b4;" x="112.707115" xlink:href="#mcb1f720559" y="369.36"/>
     <use style="fill:#1f77b4;stroke:#1f77b4;" x="114.076426" xlink:href="#mcb1f720559" y="369.36"/>
     <use style="fill:#1f77b4;stroke:#1f77b4;" x="115.430183" xlink:href="#mcb1f720559" y="369.36"/>
     <use style="fill:#1f77b4;stroke:#1f77b4;" x="116.805596" xlink:href="#mcb1f720559" y="369.36"/>
     <use style="fill:#1f77b4;stroke:#1f77b4;" x="118.156601" xlink:href="#mcb1f720559" y="369.36"/>
     <use style="fill:#1f77b4;stroke:#1f77b4;" x="119.522873" xlink:href="#mcb1f720559" y="369.36"/>
     <use style="fill:#1f77b4;stroke:#1f77b4;" x="120.879859" xlink:href="#mcb1f720559" y="369.36"/>
     <use style="fill:#1f77b4;stroke:#1f77b4;" x="122.254408" xlink:href="#mcb1f720559" y="369.36"/>
     <use style="fill:#1f77b4;stroke:#1f77b4;" x="123.604716" xlink:href="#mcb1f720559" y="369.36"/>
     <use style="fill:#1f77b4;stroke:#1f77b4;" x="124.962329" xlink:href="#mcb1f720559" y="369.36"/>
     <use style="fill:#1f77b4;stroke:#1f77b4;" x="126.319445" xlink:href="#mcb1f720559" y="369.36"/>
     <use style="fill:#1f77b4;stroke:#1f77b4;" x="127.694152" xlink:href="#mcb1f720559" y="369.36"/>
     <use style="fill:#1f77b4;stroke:#1f77b4;" x="129.054891" xlink:href="#mcb1f720559" y="369.36"/>
     <use style="fill:#1f77b4;stroke:#1f77b4;" x="130.385844" xlink:href="#mcb1f720559" y="369.36"/>
     <use style="fill:#1f77b4;stroke:#1f77b4;" x="132.717278" xlink:href="#mcb1f720559" y="369.36"/>
     <use style="fill:#1f77b4;stroke:#1f77b4;" x="133.160778" xlink:href="#mcb1f720559" y="369.36"/>
     <use style="fill:#1f77b4;stroke:#1f77b4;" x="134.510413" xlink:href="#mcb1f720559" y="369.36"/>
     <use style="fill:#1f77b4;stroke:#1f77b4;" x="135.871466" xlink:href="#mcb1f720559" y="369.36"/>
     <use style="fill:#1f77b4;stroke:#1f77b4;" x="137.234467" xlink:href="#mcb1f720559" y="369.36"/>
     <use style="fill:#1f77b4;stroke:#1f77b4;" x="138.583578" xlink:href="#mcb1f720559" y="369.36"/>
     <use style="fill:#1f77b4;stroke:#1f77b4;" x="139.946156" xlink:href="#mcb1f720559" y="369.36"/>
     <use style="fill:#1f77b4;stroke:#1f77b4;" x="141.322934" xlink:href="#mcb1f720559" y="369.36"/>
     <use style="fill:#1f77b4;stroke:#1f77b4;" x="142.681582" xlink:href="#mcb1f720559" y="369.36"/>
     <use style="fill:#1f77b4;stroke:#1f77b4;" x="144.035101" xlink:href="#mcb1f720559" y="369.36"/>
     <use style="fill:#1f77b4;stroke:#1f77b4;" x="145.39766" xlink:href="#mcb1f720559" y="369.36"/>
     <use style="fill:#1f77b4;stroke:#1f77b4;" x="146.759864" xlink:href="#mcb1f720559" y="367.305797"/>
     <use style="fill:#1f77b4;stroke:#1f77b4;" x="148.122716" xlink:href="#mcb1f720559" y="367.305797"/>
     <use style="fill:#1f77b4;stroke:#1f77b4;" x="149.475056" xlink:href="#mcb1f720559" y="367.305797"/>
     <use style="fill:#1f77b4;stroke:#1f77b4;" x="150.836401" xlink:href="#mcb1f720559" y="313.896517"/>
     <use style="fill:#1f77b4;stroke:#1f77b4;" x="152.202748" xlink:href="#mcb1f720559" y="313.896517"/>
     <use style="fill:#1f77b4;stroke:#1f77b4;" x="153.561947" xlink:href="#mcb1f720559" y="313.896517"/>
     <use style="fill:#1f77b4;stroke:#1f77b4;" x="154.926925" xlink:href="#mcb1f720559" y="311.842314"/>
     <use style="fill:#1f77b4;stroke:#1f77b4;" x="156.287412" xlink:href="#mcb1f720559" y="311.842314"/>
     <use style="fill:#1f77b4;stroke:#1f77b4;" x="157.675303" xlink:href="#mcb1f720559" y="311.842314"/>
     <use style="fill:#1f77b4;stroke:#1f77b4;" x="159.02824" xlink:href="#mcb1f720559" y="311.842314"/>
     <use style="fill:#1f77b4;stroke:#1f77b4;" x="160.390146" xlink:href="#mcb1f720559" y="311.842314"/>
     <use style="fill:#1f77b4;stroke:#1f77b4;" x="161.76338" xlink:href="#mcb1f720559" y="311.842314"/>
     <use style="fill:#1f77b4;stroke:#1f77b4;" x="163.101392" xlink:href="#mcb1f720559" y="313.896517"/>
     <use style="fill:#1f77b4;stroke:#1f77b4;" x="165.418681" xlink:href="#mcb1f720559" y="313.896517"/>
     <use style="fill:#1f77b4;stroke:#1f77b4;" x="165.903509" xlink:href="#mcb1f720559" y="313.896517"/>
     <use style="fill:#1f77b4;stroke:#1f77b4;" x="167.175831" xlink:href="#mcb1f720559" y="313.896517"/>
     <use style="fill:#1f77b4;stroke:#1f77b4;" x="168.539337" xlink:href="#mcb1f720559" y="313.896517"/>
     <use style="fill:#1f77b4;stroke:#1f77b4;" x="169.900267" xlink:href="#mcb1f720559" y="313.896517"/>
     <use style="fill:#1f77b4;stroke:#1f77b4;" x="171.263738" xlink:href="#mcb1f720559" y="313.896517"/>
     <use style="fill:#1f77b4;stroke:#1f77b4;" x="172.626645" xlink:href="#mcb1f720559" y="313.896517"/>
     <use style="fill:#1f77b4;stroke:#1f77b4;" x="174.009881" xlink:href="#mcb1f720559" y="313.896517"/>
     <use style="fill:#1f77b4;stroke:#1f77b4;" x="175.368121" xlink:href="#mcb1f720559" y="313.896517"/>
     <use style="fill:#1f77b4;stroke:#1f77b4;" x="176.732526" xlink:href="#mcb1f720559" y="313.896517"/>
     <use style="fill:#1f77b4;stroke:#1f77b4;" x="178.079633" xlink:href="#mcb1f720559" y="313.896517"/>
     <use style="fill:#1f77b4;stroke:#1f77b4;" x="179.430855" xlink:href="#mcb1f720559" y="313.896517"/>
     <use style="fill:#1f77b4;stroke:#1f77b4;" x="180.807461" xlink:href="#mcb1f720559" y="313.896517"/>
     <use style="fill:#1f77b4;stroke:#1f77b4;" x="182.167738" xlink:href="#mcb1f720559" y="313.896517"/>
     <use style="fill:#1f77b4;stroke:#1f77b4;" x="183.540837" xlink:href="#mcb1f720559" y="313.896517"/>
     <use style="fill:#1f77b4;stroke:#1f77b4;" x="184.891411" xlink:href="#mcb1f720559" y="313.896517"/>
     <use style="fill:#1f77b4;stroke:#1f77b4;" x="186.254038" xlink:href="#mcb1f720559" y="315.95072"/>
     <use style="fill:#1f77b4;stroke:#1f77b4;" x="187.601405" xlink:href="#mcb1f720559" y="315.95072"/>
     <use style="fill:#1f77b4;stroke:#1f77b4;" x="188.97669" xlink:href="#mcb1f720559" y="315.95072"/>
     <use style="fill:#1f77b4;stroke:#1f77b4;" x="190.326904" xlink:href="#mcb1f720559" y="315.95072"/>
     <use style="fill:#1f77b4;stroke:#1f77b4;" x="191.704355" xlink:href="#mcb1f720559" y="315.95072"/>
     <use style="fill:#1f77b4;stroke:#1f77b4;" x="193.060107" xlink:href="#mcb1f720559" y="315.95072"/>
     <use style="fill:#1f77b4;stroke:#1f77b4;" x="194.434405" xlink:href="#mcb1f720559" y="315.95072"/>
     <use style="fill:#1f77b4;stroke:#1f77b4;" x="195.794069" xlink:href="#mcb1f720559" y="315.95072"/>
     <use style="fill:#1f77b4;stroke:#1f77b4;" x="197.148071" xlink:href="#mcb1f720559" y="315.95072"/>
     <use style="fill:#1f77b4;stroke:#1f77b4;" x="198.511385" xlink:href="#mcb1f720559" y="315.95072"/>
     <use style="fill:#1f77b4;stroke:#1f77b4;" x="199.883258" xlink:href="#mcb1f720559" y="315.95072"/>
     <use style="fill:#1f77b4;stroke:#1f77b4;" x="201.242029" xlink:href="#mcb1f720559" y="315.95072"/>
     <use style="fill:#1f77b4;stroke:#1f77b4;" x="202.602986" xlink:href="#mcb1f720559" y="315.95072"/>
     <use style="fill:#1f77b4;stroke:#1f77b4;" x="203.972481" xlink:href="#mcb1f720559" y="315.95072"/>
     <use style="fill:#1f77b4;stroke:#1f77b4;" x="205.321556" xlink:href="#mcb1f720559" y="315.95072"/>
     <use style="fill:#1f77b4;stroke:#1f77b4;" x="206.683406" xlink:href="#mcb1f720559" y="315.95072"/>
     <use style="fill:#1f77b4;stroke:#1f77b4;" x="208.058563" xlink:href="#mcb1f720559" y="315.95072"/>
     <use style="fill:#1f77b4;stroke:#1f77b4;" x="209.413512" xlink:href="#mcb1f720559" y="315.95072"/>
     <use style="fill:#1f77b4;stroke:#1f77b4;" x="210.75711" xlink:href="#mcb1f720559" y="315.95072"/>
     <use style="fill:#1f77b4;stroke:#1f77b4;" x="212.122503" xlink:href="#mcb1f720559" y="315.95072"/>
     <use style="fill:#1f77b4;stroke:#1f77b4;" x="213.483256" xlink:href="#mcb1f720559" y="315.95072"/>
     <use style="fill:#1f77b4;stroke:#1f77b4;" x="214.858848" xlink:href="#mcb1f720559" y="315.95072"/>
     <use style="fill:#1f77b4;stroke:#1f77b4;" x="216.221795" xlink:href="#mcb1f720559" y="315.95072"/>
     <use style="fill:#1f77b4;stroke:#1f77b4;" x="217.572071" xlink:href="#mcb1f720559" y="315.95072"/>
     <use style="fill:#1f77b4;stroke:#1f77b4;" x="218.939895" xlink:href="#mcb1f720559" y="315.95072"/>
     <use style="fill:#1f77b4;stroke:#1f77b4;" x="220.31193" xlink:href="#mcb1f720559" y="315.95072"/>
     <use style="fill:#1f77b4;stroke:#1f77b4;" x="221.656885" xlink:href="#mcb1f720559" y="315.95072"/>
     <use style="fill:#1f77b4;stroke:#1f77b4;" x="223.008911" xlink:href="#mcb1f720559" y="315.95072"/>
     <use style="fill:#1f77b4;stroke:#1f77b4;" x="224.394791" xlink:href="#mcb1f720559" y="315.95072"/>
     <use style="fill:#1f77b4;stroke:#1f77b4;" x="225.748029" xlink:href="#mcb1f720559" y="315.95072"/>
     <use style="fill:#1f77b4;stroke:#1f77b4;" x="227.099087" xlink:href="#mcb1f720559" y="315.95072"/>
     <use style="fill:#1f77b4;stroke:#1f77b4;" x="228.47333" xlink:href="#mcb1f720559" y="315.95072"/>
     <use style="fill:#1f77b4;stroke:#1f77b4;" x="229.838874" xlink:href="#mcb1f720559" y="315.95072"/>
     <use style="fill:#1f77b4;stroke:#1f77b4;" x="231.199185" xlink:href="#mcb1f720559" y="313.896517"/>
     <use style="fill:#1f77b4;stroke:#1f77b4;" x="233.56368" xlink:href="#mcb1f720559" y="313.896517"/>
     <use style="fill:#1f77b4;stroke:#1f77b4;" x="234.128581" xlink:href="#mcb1f720559" y="256.378831"/>
     <use style="fill:#1f77b4;stroke:#1f77b4;" x="235.274393" xlink:href="#mcb1f720559" y="256.378831"/>
     <use style="fill:#1f77b4;stroke:#1f77b4;" x="236.63612" xlink:href="#mcb1f720559" y="256.378831"/>
     <use style="fill:#1f77b4;stroke:#1f77b4;" x="237.997623" xlink:href="#mcb1f720559" y="254.324628"/>
     <use style="fill:#1f77b4;stroke:#1f77b4;" x="239.361681" xlink:href="#mcb1f720559" y="254.324628"/>
     <use style="fill:#1f77b4;stroke:#1f77b4;" x="240.741292" xlink:href="#mcb1f720559" y="254.324628"/>
     <use style="fill:#1f77b4;stroke:#1f77b4;" x="242.086587" xlink:href="#mcb1f720559" y="254.324628"/>
     <use style="fill:#1f77b4;stroke:#1f77b4;" x="243.465204" xlink:href="#mcb1f720559" y="256.378831"/>
     <use style="fill:#1f77b4;stroke:#1f77b4;" x="244.822415" xlink:href="#mcb1f720559" y="256.378831"/>
     <use style="fill:#1f77b4;stroke:#1f77b4;" x="246.184108" xlink:href="#mcb1f720559" y="256.378831"/>
     <use style="fill:#1f77b4;stroke:#1f77b4;" x="247.534915" xlink:href="#mcb1f720559" y="256.378831"/>
     <use style="fill:#1f77b4;stroke:#1f77b4;" x="248.900232" xlink:href="#mcb1f720559" y="258.433034"/>
     <use style="fill:#1f77b4;stroke:#1f77b4;" x="250.248709" xlink:href="#mcb1f720559" y="258.433034"/>
     <use style="fill:#1f77b4;stroke:#1f77b4;" x="251.611452" xlink:href="#mcb1f720559" y="258.433034"/>
     <use style="fill:#1f77b4;stroke:#1f77b4;" x="252.974345" xlink:href="#mcb1f720559" y="258.433034"/>
     <use style="fill:#1f77b4;stroke:#1f77b4;" x="254.353248" xlink:href="#mcb1f720559" y="258.433034"/>
     <use style="fill:#1f77b4;stroke:#1f77b4;" x="255.713721" xlink:href="#mcb1f720559" y="256.378831"/>
     <use style="fill:#1f77b4;stroke:#1f77b4;" x="257.077581" xlink:href="#mcb1f720559" y="256.378831"/>
     <use style="fill:#1f77b4;stroke:#1f77b4;" x="258.428347" xlink:href="#mcb1f720559" y="254.324628"/>
     <use style="fill:#1f77b4;stroke:#1f77b4;" x="259.791757" xlink:href="#mcb1f720559" y="254.324628"/>
     <use style="fill:#1f77b4;stroke:#1f77b4;" x="261.159686" xlink:href="#mcb1f720559" y="252.270425"/>
     <use style="fill:#1f77b4;stroke:#1f77b4;" x="262.515328" xlink:href="#mcb1f720559" y="252.270425"/>
     <use style="fill:#1f77b4;stroke:#1f77b4;" x="263.88141" xlink:href="#mcb1f720559" y="252.270425"/>
     <use style="fill:#1f77b4;stroke:#1f77b4;" x="265.250448" xlink:href="#mcb1f720559" y="252.270425"/>
     <use style="fill:#1f77b4;stroke:#1f77b4;" x="267.454309" xlink:href="#mcb1f720559" y="252.270425"/>
     <use style="fill:#1f77b4;stroke:#1f77b4;" x="268.09428" xlink:href="#mcb1f720559" y="252.270425"/>
     <use style="fill:#1f77b4;stroke:#1f77b4;" x="269.329199" xlink:href="#mcb1f720559" y="252.270425"/>
     <use style="fill:#1f77b4;stroke:#1f77b4;" x="270.69049" xlink:href="#mcb1f720559" y="252.270425"/>
     <use style="fill:#1f77b4;stroke:#1f77b4;" x="272.039117" xlink:href="#mcb1f720559" y="252.270425"/>
     <use style="fill:#1f77b4;stroke:#1f77b4;" x="273.41663" xlink:href="#mcb1f720559" y="252.270425"/>
     <use style="fill:#1f77b4;stroke:#1f77b4;" x="274.774679" xlink:href="#mcb1f720559" y="252.270425"/>
     <use style="fill:#1f77b4;stroke:#1f77b4;" x="276.127877" xlink:href="#mcb1f720559" y="252.270425"/>
     <use style="fill:#1f77b4;stroke:#1f77b4;" x="277.491076" xlink:href="#mcb1f720559" y="252.270425"/>
     <use style="fill:#1f77b4;stroke:#1f77b4;" x="278.867315" xlink:href="#mcb1f720559" y="252.270425"/>
     <use style="fill:#1f77b4;stroke:#1f77b4;" x="280.230971" xlink:href="#mcb1f720559" y="252.270425"/>
     <use style="fill:#1f77b4;stroke:#1f77b4;" x="281.584304" xlink:href="#mcb1f720559" y="252.270425"/>
     <use style="fill:#1f77b4;stroke:#1f77b4;" x="282.958207" xlink:href="#mcb1f720559" y="252.270425"/>
     <use style="fill:#1f77b4;stroke:#1f77b4;" x="284.315003" xlink:href="#mcb1f720559" y="252.270425"/>
     <use style="fill:#1f77b4;stroke:#1f77b4;" x="285.668377" xlink:href="#mcb1f720559" y="252.270425"/>
     <use style="fill:#1f77b4;stroke:#1f77b4;" x="287.040331" xlink:href="#mcb1f720559" y="250.216222"/>
     <use style="fill:#1f77b4;stroke:#1f77b4;" x="288.395709" xlink:href="#mcb1f720559" y="250.216222"/>
     <use style="fill:#1f77b4;stroke:#1f77b4;" x="289.755331" xlink:href="#mcb1f720559" y="248.162019"/>
     <use style="fill:#1f77b4;stroke:#1f77b4;" x="291.108196" xlink:href="#mcb1f720559" y="248.162019"/>
     <use style="fill:#1f77b4;stroke:#1f77b4;" x="292.466715" xlink:href="#mcb1f720559" y="196.806942"/>
     <use style="fill:#1f77b4;stroke:#1f77b4;" x="293.845617" xlink:href="#mcb1f720559" y="196.806942"/>
     <use style="fill:#1f77b4;stroke:#1f77b4;" x="295.21071" xlink:href="#mcb1f720559" y="196.806942"/>
     <use style="fill:#1f77b4;stroke:#1f77b4;" x="296.569645" xlink:href="#mcb1f720559" y="196.806942"/>
     <use style="fill:#1f77b4;stroke:#1f77b4;" x="297.93253" xlink:href="#mcb1f720559" y="196.806942"/>
     <use style="fill:#1f77b4;stroke:#1f77b4;" x="299.29511" xlink:href="#mcb1f720559" y="196.806942"/>
     <use style="fill:#1f77b4;stroke:#1f77b4;" x="300.658132" xlink:href="#mcb1f720559" y="196.806942"/>
     <use style="fill:#1f77b4;stroke:#1f77b4;" x="302.019995" xlink:href="#mcb1f720559" y="196.806942"/>
     <use style="fill:#1f77b4;stroke:#1f77b4;" x="303.399463" xlink:href="#mcb1f720559" y="196.806942"/>
     <use style="fill:#1f77b4;stroke:#1f77b4;" x="304.734007" xlink:href="#mcb1f720559" y="196.806942"/>
     <use style="fill:#1f77b4;stroke:#1f77b4;" x="306.252058" xlink:href="#mcb1f720559" y="196.806942"/>
     <use style="fill:#1f77b4;stroke:#1f77b4;" x="307.480709" xlink:href="#mcb1f720559" y="196.806942"/>
     <use style="fill:#1f77b4;stroke:#1f77b4;" x="308.828231" xlink:href="#mcb1f720559" y="196.806942"/>
     <use style="fill:#1f77b4;stroke:#1f77b4;" x="310.186076" xlink:href="#mcb1f720559" y="196.806942"/>
     <use style="fill:#1f77b4;stroke:#1f77b4;" x="311.552231" xlink:href="#mcb1f720559" y="196.806942"/>
     <use style="fill:#1f77b4;stroke:#1f77b4;" x="312.895816" xlink:href="#mcb1f720559" y="196.806942"/>
     <use style="fill:#1f77b4;stroke:#1f77b4;" x="314.2856" xlink:href="#mcb1f720559" y="196.806942"/>
     <use style="fill:#1f77b4;stroke:#1f77b4;" x="315.642613" xlink:href="#mcb1f720559" y="196.806942"/>
     <use style="fill:#1f77b4;stroke:#1f77b4;" x="316.994973" xlink:href="#mcb1f720559" y="196.806942"/>
     <use style="fill:#1f77b4;stroke:#1f77b4;" x="318.382793" xlink:href="#mcb1f720559" y="196.806942"/>
     <use style="fill:#1f77b4;stroke:#1f77b4;" x="319.730493" xlink:href="#mcb1f720559" y="196.806942"/>
     <use style="fill:#1f77b4;stroke:#1f77b4;" x="321.089244" xlink:href="#mcb1f720559" y="196.806942"/>
     <use style="fill:#1f77b4;stroke:#1f77b4;" x="322.453703" xlink:href="#mcb1f720559" y="196.806942"/>
     <use style="fill:#1f77b4;stroke:#1f77b4;" x="323.81199" xlink:href="#mcb1f720559" y="196.806942"/>
     <use style="fill:#1f77b4;stroke:#1f77b4;" x="325.161741" xlink:href="#mcb1f720559" y="196.806942"/>
     <use style="fill:#1f77b4;stroke:#1f77b4;" x="326.535499" xlink:href="#mcb1f720559" y="196.806942"/>
     <use style="fill:#1f77b4;stroke:#1f77b4;" x="327.884378" xlink:href="#mcb1f720559" y="196.806942"/>
     <use style="fill:#1f77b4;stroke:#1f77b4;" x="329.249138" xlink:href="#mcb1f720559" y="196.806942"/>
     <use style="fill:#1f77b4;stroke:#1f77b4;" x="330.610265" xlink:href="#mcb1f720559" y="196.806942"/>
     <use style="fill:#1f77b4;stroke:#1f77b4;" x="331.961535" xlink:href="#mcb1f720559" y="196.806942"/>
     <use style="fill:#1f77b4;stroke:#1f77b4;" x="333.321935" xlink:href="#mcb1f720559" y="196.806942"/>
     <use style="fill:#1f77b4;stroke:#1f77b4;" x="334.699496" xlink:href="#mcb1f720559" y="196.806942"/>
     <use style="fill:#1f77b4;stroke:#1f77b4;" x="336.047918" xlink:href="#mcb1f720559" y="196.806942"/>
     <use style="fill:#1f77b4;stroke:#1f77b4;" x="337.413372" xlink:href="#mcb1f720559" y="196.806942"/>
     <use style="fill:#1f77b4;stroke:#1f77b4;" x="338.77512" xlink:href="#mcb1f720559" y="196.806942"/>
     <use style="fill:#1f77b4;stroke:#1f77b4;" x="340.137877" xlink:href="#mcb1f720559" y="194.752739"/>
     <use style="fill:#1f77b4;stroke:#1f77b4;" x="341.513877" xlink:href="#mcb1f720559" y="194.752739"/>
     <use style="fill:#1f77b4;stroke:#1f77b4;" x="342.861796" xlink:href="#mcb1f720559" y="194.752739"/>
     <use style="fill:#1f77b4;stroke:#1f77b4;" x="344.227556" xlink:href="#mcb1f720559" y="194.752739"/>
     <use style="fill:#1f77b4;stroke:#1f77b4;" x="345.586749" xlink:href="#mcb1f720559" y="194.752739"/>
     <use style="fill:#1f77b4;stroke:#1f77b4;" x="346.954486" xlink:href="#mcb1f720559" y="194.752739"/>
     <use style="fill:#1f77b4;stroke:#1f77b4;" x="348.320532" xlink:href="#mcb1f720559" y="194.752739"/>
     <use style="fill:#1f77b4;stroke:#1f77b4;" x="349.681892" xlink:href="#mcb1f720559" y="192.698536"/>
     <use style="fill:#1f77b4;stroke:#1f77b4;" x="351.055141" xlink:href="#mcb1f720559" y="192.698536"/>
     <use style="fill:#1f77b4;stroke:#1f77b4;" x="352.398009" xlink:href="#mcb1f720559" y="192.698536"/>
     <use style="fill:#1f77b4;stroke:#1f77b4;" x="353.770038" xlink:href="#mcb1f720559" y="192.698536"/>
     <use style="fill:#1f77b4;stroke:#1f77b4;" x="355.123918" xlink:href="#mcb1f720559" y="192.698536"/>
     <use style="fill:#1f77b4;stroke:#1f77b4;" x="356.481584" xlink:href="#mcb1f720559" y="192.698536"/>
     <use style="fill:#1f77b4;stroke:#1f77b4;" x="357.847775" xlink:href="#mcb1f720559" y="192.698536"/>
     <use style="fill:#1f77b4;stroke:#1f77b4;" x="359.208903" xlink:href="#mcb1f720559" y="192.698536"/>
     <use style="fill:#1f77b4;stroke:#1f77b4;" x="360.592997" xlink:href="#mcb1f720559" y="192.698536"/>
     <use style="fill:#1f77b4;stroke:#1f77b4;" x="361.94503" xlink:href="#mcb1f720559" y="192.698536"/>
     <use style="fill:#1f77b4;stroke:#1f77b4;" x="363.290605" xlink:href="#mcb1f720559" y="192.698536"/>
     <use style="fill:#1f77b4;stroke:#1f77b4;" x="364.654334" xlink:href="#mcb1f720559" y="192.698536"/>
     <use style="fill:#1f77b4;stroke:#1f77b4;" x="366.017983" xlink:href="#mcb1f720559" y="192.698536"/>
     <use style="fill:#1f77b4;stroke:#1f77b4;" x="367.379759" xlink:href="#mcb1f720559" y="192.698536"/>
     <use style="fill:#1f77b4;stroke:#1f77b4;" x="368.743572" xlink:href="#mcb1f720559" y="192.698536"/>
     <use style="fill:#1f77b4;stroke:#1f77b4;" x="371.078717" xlink:href="#mcb1f720559" y="190.644333"/>
     <use style="fill:#1f77b4;stroke:#1f77b4;" x="371.757142" xlink:href="#mcb1f720559" y="190.644333"/>
     <use style="fill:#1f77b4;stroke:#1f77b4;" x="372.831909" xlink:href="#mcb1f720559" y="190.644333"/>
     <use style="fill:#1f77b4;stroke:#1f77b4;" x="374.17687" xlink:href="#mcb1f720559" y="188.59013"/>
     <use style="fill:#1f77b4;stroke:#1f77b4;" x="375.554894" xlink:href="#mcb1f720559" y="149.560272"/>
     <use style="fill:#1f77b4;stroke:#1f77b4;" x="376.920573" xlink:href="#mcb1f720559" y="149.560272"/>
     <use style="fill:#1f77b4;stroke:#1f77b4;" x="378.283759" xlink:href="#mcb1f720559" y="149.560272"/>
     <use style="fill:#1f77b4;stroke:#1f77b4;" x="379.628835" xlink:href="#mcb1f720559" y="147.506069"/>
     <use style="fill:#1f77b4;stroke:#1f77b4;" x="381.004284" xlink:href="#mcb1f720559" y="147.506069"/>
     <use style="fill:#1f77b4;stroke:#1f77b4;" x="382.363341" xlink:href="#mcb1f720559" y="145.451866"/>
     <use style="fill:#1f77b4;stroke:#1f77b4;" x="383.723877" xlink:href="#mcb1f720559" y="145.451866"/>
     <use style="fill:#1f77b4;stroke:#1f77b4;" x="385.104209" xlink:href="#mcb1f720559" y="145.451866"/>
     <use style="fill:#1f77b4;stroke:#1f77b4;" x="386.439135" xlink:href="#mcb1f720559" y="145.451866"/>
     <use style="fill:#1f77b4;stroke:#1f77b4;" x="387.809734" xlink:href="#mcb1f720559" y="147.506069"/>
     <use style="fill:#1f77b4;stroke:#1f77b4;" x="389.186988" xlink:href="#mcb1f720559" y="147.506069"/>
     <use style="fill:#1f77b4;stroke:#1f77b4;" x="390.547128" xlink:href="#mcb1f720559" y="147.506069"/>
     <use style="fill:#1f77b4;stroke:#1f77b4;" x="391.895918" xlink:href="#mcb1f720559" y="149.560272"/>
     <use style="fill:#1f77b4;stroke:#1f77b4;" x="393.262864" xlink:href="#mcb1f720559" y="149.560272"/>
     <use style="fill:#1f77b4;stroke:#1f77b4;" x="394.629579" xlink:href="#mcb1f720559" y="149.560272"/>
     <use style="fill:#1f77b4;stroke:#1f77b4;" x="395.985605" xlink:href="#mcb1f720559" y="151.614475"/>
     <use style="fill:#1f77b4;stroke:#1f77b4;" x="397.341663" xlink:href="#mcb1f720559" y="151.614475"/>
     <use style="fill:#1f77b4;stroke:#1f77b4;" x="398.693751" xlink:href="#mcb1f720559" y="151.614475"/>
     <use style="fill:#1f77b4;stroke:#1f77b4;" x="400.057515" xlink:href="#mcb1f720559" y="153.668678"/>
     <use style="fill:#1f77b4;stroke:#1f77b4;" x="401.458376" xlink:href="#mcb1f720559" y="153.668678"/>
     <use style="fill:#1f77b4;stroke:#1f77b4;" x="402.78839" xlink:href="#mcb1f720559" y="153.668678"/>
     <use style="fill:#1f77b4;stroke:#1f77b4;" x="405.23165" xlink:href="#mcb1f720559" y="153.668678"/>
     <use style="fill:#1f77b4;stroke:#1f77b4;" x="405.907261" xlink:href="#mcb1f720559" y="153.668678"/>
     <use style="fill:#1f77b4;stroke:#1f77b4;" x="406.936708" xlink:href="#mcb1f720559" y="153.668678"/>
     <use style="fill:#1f77b4;stroke:#1f77b4;" x="408.256148" xlink:href="#mcb1f720559" y="151.614475"/>
     <use style="fill:#1f77b4;stroke:#1f77b4;" x="409.616704" xlink:href="#mcb1f720559" y="151.614475"/>
     <use style="fill:#1f77b4;stroke:#1f77b4;" x="410.961215" xlink:href="#mcb1f720559" y="149.560272"/>
     <use style="fill:#1f77b4;stroke:#1f77b4;" x="412.335043" xlink:href="#mcb1f720559" y="149.560272"/>
     <use style="fill:#1f77b4;stroke:#1f77b4;" x="413.690346" xlink:href="#mcb1f720559" y="149.560272"/>
     <use style="fill:#1f77b4;stroke:#1f77b4;" x="415.05065" xlink:href="#mcb1f720559" y="149.560272"/>
     <use style="fill:#1f77b4;stroke:#1f77b4;" x="416.411539" xlink:href="#mcb1f720559" y="147.506069"/>
     <use style="fill:#1f77b4;stroke:#1f77b4;" x="417.757944" xlink:href="#mcb1f720559" y="147.506069"/>
     <use style="fill:#1f77b4;stroke:#1f77b4;" x="419.120005" xlink:href="#mcb1f720559" y="147.506069"/>
     <use style="fill:#1f77b4;stroke:#1f77b4;" x="420.495945" xlink:href="#mcb1f720559" y="147.506069"/>
     <use style="fill:#1f77b4;stroke:#1f77b4;" x="421.8481" xlink:href="#mcb1f720559" y="147.506069"/>
     <use style="fill:#1f77b4;stroke:#1f77b4;" x="423.221573" xlink:href="#mcb1f720559" y="147.506069"/>
     <use style="fill:#1f77b4;stroke:#1f77b4;" x="424.576059" xlink:href="#mcb1f720559" y="147.506069"/>
     <use style="fill:#1f77b4;stroke:#1f77b4;" x="425.933985" xlink:href="#mcb1f720559" y="147.506069"/>
     <use style="fill:#1f77b4;stroke:#1f77b4;" x="427.296646" xlink:href="#mcb1f720559" y="145.451866"/>
     <use style="fill:#1f77b4;stroke:#1f77b4;" x="428.665002" xlink:href="#mcb1f720559" y="145.451866"/>
     <use style="fill:#1f77b4;stroke:#1f77b4;" x="430.022179" xlink:href="#mcb1f720559" y="145.451866"/>
     <use style="fill:#1f77b4;stroke:#1f77b4;" x="431.386585" xlink:href="#mcb1f720559" y="145.451866"/>
     <use style="fill:#1f77b4;stroke:#1f77b4;" x="432.751398" xlink:href="#mcb1f720559" y="145.451866"/>
     <use style="fill:#1f77b4;stroke:#1f77b4;" x="434.113364" xlink:href="#mcb1f720559" y="145.451866"/>
     <use style="fill:#1f77b4;stroke:#1f77b4;" x="435.467421" xlink:href="#mcb1f720559" y="145.451866"/>
     <use style="fill:#1f77b4;stroke:#1f77b4;" x="436.821033" xlink:href="#mcb1f720559" y="145.451866"/>
     <use style="fill:#1f77b4;stroke:#1f77b4;" x="439.285993" xlink:href="#mcb1f720559" y="145.451866"/>
     <use style="fill:#1f77b4;stroke:#1f77b4;" x="439.962783" xlink:href="#mcb1f720559" y="145.451866"/>
     <use style="fill:#1f77b4;stroke:#1f77b4;" x="440.969687" xlink:href="#mcb1f720559" y="143.397662"/>
     <use style="fill:#1f77b4;stroke:#1f77b4;" x="442.291387" xlink:href="#mcb1f720559" y="143.397662"/>
     <use style="fill:#1f77b4;stroke:#1f77b4;" x="443.649443" xlink:href="#mcb1f720559" y="81.77157"/>
     <use style="fill:#1f77b4;stroke:#1f77b4;" x="445.010257" xlink:href="#mcb1f720559" y="81.77157"/>
     <use style="fill:#1f77b4;stroke:#1f77b4;" x="446.36276" xlink:href="#mcb1f720559" y="81.77157"/>
     <use style="fill:#1f77b4;stroke:#1f77b4;" x="447.726504" xlink:href="#mcb1f720559" y="79.717367"/>
     <use style="fill:#1f77b4;stroke:#1f77b4;" x="449.109161" xlink:href="#mcb1f720559" y="79.717367"/>
     <use style="fill:#1f77b4;stroke:#1f77b4;" x="450.465425" xlink:href="#mcb1f720559" y="79.717367"/>
     <use style="fill:#1f77b4;stroke:#1f77b4;" x="451.82981" xlink:href="#mcb1f720559" y="79.717367"/>
     <use style="fill:#1f77b4;stroke:#1f77b4;" x="453.176624" xlink:href="#mcb1f720559" y="77.663164"/>
     <use style="fill:#1f77b4;stroke:#1f77b4;" x="454.546166" xlink:href="#mcb1f720559" y="77.663164"/>
     <use style="fill:#1f77b4;stroke:#1f77b4;" x="455.910605" xlink:href="#mcb1f720559" y="77.663164"/>
     <use style="fill:#1f77b4;stroke:#1f77b4;" x="457.264117" xlink:href="#mcb1f720559" y="77.663164"/>
     <use style="fill:#1f77b4;stroke:#1f77b4;" x="458.605147" xlink:href="#mcb1f720559" y="77.663164"/>
     <use style="fill:#1f77b4;stroke:#1f77b4;" x="459.99136" xlink:href="#mcb1f720559" y="77.663164"/>
     <use style="fill:#1f77b4;stroke:#1f77b4;" x="461.338181" xlink:href="#mcb1f720559" y="77.663164"/>
     <use style="fill:#1f77b4;stroke:#1f77b4;" x="462.727861" xlink:href="#mcb1f720559" y="77.663164"/>
     <use style="fill:#1f77b4;stroke:#1f77b4;" x="464.066481" xlink:href="#mcb1f720559" y="77.663164"/>
     <use style="fill:#1f77b4;stroke:#1f77b4;" x="465.428698" xlink:href="#mcb1f720559" y="77.663164"/>
     <use style="fill:#1f77b4;stroke:#1f77b4;" x="466.806245" xlink:href="#mcb1f720559" y="77.663164"/>
     <use style="fill:#1f77b4;stroke:#1f77b4;" x="468.168456" xlink:href="#mcb1f720559" y="79.717367"/>
     <use style="fill:#1f77b4;stroke:#1f77b4;" x="469.537332" xlink:href="#mcb1f720559" y="79.717367"/>
     <use style="fill:#1f77b4;stroke:#1f77b4;" x="470.897062" xlink:href="#mcb1f720559" y="79.717367"/>
     <use style="fill:#1f77b4;stroke:#1f77b4;" x="472.243079" xlink:href="#mcb1f720559" y="79.717367"/>
     <use style="fill:#1f77b4;stroke:#1f77b4;" x="473.604991" xlink:href="#mcb1f720559" y="79.717367"/>
     <use style="fill:#1f77b4;stroke:#1f77b4;" x="474.976862" xlink:href="#mcb1f720559" y="79.717367"/>
     <use style="fill:#1f77b4;stroke:#1f77b4;" x="476.337514" xlink:href="#mcb1f720559" y="79.717367"/>
     <use style="fill:#1f77b4;stroke:#1f77b4;" x="477.679478" xlink:href="#mcb1f720559" y="79.717367"/>
     <use style="fill:#1f77b4;stroke:#1f77b4;" x="479.058163" xlink:href="#mcb1f720559" y="79.717367"/>
     <use style="fill:#1f77b4;stroke:#1f77b4;" x="480.406012" xlink:href="#mcb1f720559" y="79.717367"/>
     <use style="fill:#1f77b4;stroke:#1f77b4;" x="481.782973" xlink:href="#mcb1f720559" y="79.717367"/>
     <use style="fill:#1f77b4;stroke:#1f77b4;" x="483.136777" xlink:href="#mcb1f720559" y="79.717367"/>
     <use style="fill:#1f77b4;stroke:#1f77b4;" x="484.507253" xlink:href="#mcb1f720559" y="79.717367"/>
     <use style="fill:#1f77b4;stroke:#1f77b4;" x="485.870357" xlink:href="#mcb1f720559" y="79.717367"/>
     <use style="fill:#1f77b4;stroke:#1f77b4;" x="487.221273" xlink:href="#mcb1f720559" y="79.717367"/>
     <use style="fill:#1f77b4;stroke:#1f77b4;" x="488.597621" xlink:href="#mcb1f720559" y="79.717367"/>
     <use style="fill:#1f77b4;stroke:#1f77b4;" x="489.964321" xlink:href="#mcb1f720559" y="79.717367"/>
     <use style="fill:#1f77b4;stroke:#1f77b4;" x="491.307633" xlink:href="#mcb1f720559" y="79.717367"/>
     <use style="fill:#1f77b4;stroke:#1f77b4;" x="492.68512" xlink:href="#mcb1f720559" y="79.717367"/>
     <use style="fill:#1f77b4;stroke:#1f77b4;" x="494.051603" xlink:href="#mcb1f720559" y="79.717367"/>
     <use style="fill:#1f77b4;stroke:#1f77b4;" x="495.400072" xlink:href="#mcb1f720559" y="79.717367"/>
     <use style="fill:#1f77b4;stroke:#1f77b4;" x="496.760376" xlink:href="#mcb1f720559" y="79.717367"/>
     <use style="fill:#1f77b4;stroke:#1f77b4;" x="498.109091" xlink:href="#mcb1f720559" y="79.717367"/>
    </g>
   </g>
   <g id="line2d_17">
    <path clip-path="url(#pcb3c8989bc)" d="M 92.290909 367.305797 
L 351.055141 174.910742 
L 498.109091 66.96 
L 498.109091 66.96 
" style="fill:none;stroke:#ff7f0e;stroke-linecap:square;stroke-width:1.5;"/>
   </g>
   <g id="line2d_18">
    <path clip-path="url(#pcb3c8989bc)" d="M 92.290909 367.305797 
L 351.055141 174.910742 
L 498.109091 66.96 
L 498.109091 66.96 
" style="fill:none;stroke:#2ca02c;stroke-linecap:square;stroke-width:1.5;"/>
   </g>
   <g id="patch_3">
    <path d="M 72 384.48 
L 72 51.84 
" style="fill:none;stroke:#000000;stroke-linecap:square;stroke-linejoin:miter;stroke-width:0.8;"/>
   </g>
   <g id="patch_4">
    <path d="M 518.4 384.48 
L 518.4 51.84 
" style="fill:none;stroke:#000000;stroke-linecap:square;stroke-linejoin:miter;stroke-width:0.8;"/>
   </g>
   <g id="patch_5">
    <path d="M 72 384.48 
L 518.4 384.48 
" style="fill:none;stroke:#000000;stroke-linecap:square;stroke-linejoin:miter;stroke-width:0.8;"/>
   </g>
   <g id="patch_6">
    <path d="M 72 51.84 
L 518.4 51.84 
" style="fill:none;stroke:#000000;stroke-linecap:square;stroke-linejoin:miter;stroke-width:0.8;"/>
   </g>
   <g id="text_18">
    <!-- 10_06_08_15_minuto_continuo -->
    <defs>
     <path d="M 50.984375 -16.609375 
L 50.984375 -23.578125 
L -0.984375 -23.578125 
L -0.984375 -16.609375 
z
" id="DejaVuSans-95"/>
     <path d="M 54.890625 33.015625 
L 54.890625 0 
L 45.90625 0 
L 45.90625 32.71875 
Q 45.90625 40.484375 42.875 44.328125 
Q 39.84375 48.1875 33.796875 48.1875 
Q 26.515625 48.1875 22.3125 43.546875 
Q 18.109375 38.921875 18.109375 30.90625 
L 18.109375 0 
L 9.078125 0 
L 9.078125 54.6875 
L 18.109375 54.6875 
L 18.109375 46.1875 
Q 21.34375 51.125 25.703125 53.5625 
Q 30.078125 56 35.796875 56 
Q 45.21875 56 50.046875 50.171875 
Q 54.890625 44.34375 54.890625 33.015625 
z
" id="DejaVuSans-110"/>
     <path d="M 8.5 21.578125 
L 8.5 54.6875 
L 17.484375 54.6875 
L 17.484375 21.921875 
Q 17.484375 14.15625 20.5 10.265625 
Q 23.53125 6.390625 29.59375 6.390625 
Q 36.859375 6.390625 41.078125 11.03125 
Q 45.3125 15.671875 45.3125 23.6875 
L 45.3125 54.6875 
L 54.296875 54.6875 
L 54.296875 0 
L 45.3125 0 
L 45.3125 8.40625 
Q 42.046875 3.421875 37.71875 1 
Q 33.40625 -1.421875 27.6875 -1.421875 
Q 18.265625 -1.421875 13.375 4.4375 
Q 8.5 10.296875 8.5 21.578125 
z
M 31.109375 56 
z
" id="DejaVuSans-117"/>
     <path d="M 18.3125 70.21875 
L 18.3125 54.6875 
L 36.8125 54.6875 
L 36.8125 47.703125 
L 18.3125 47.703125 
L 18.3125 18.015625 
Q 18.3125 11.328125 20.140625 9.421875 
Q 21.96875 7.515625 27.59375 7.515625 
L 36.8125 7.515625 
L 36.8125 0 
L 27.59375 0 
Q 17.1875 0 13.234375 3.875 
Q 9.28125 7.765625 9.28125 18.015625 
L 9.28125 47.703125 
L 2.6875 47.703125 
L 2.6875 54.6875 
L 9.28125 54.6875 
L 9.28125 70.21875 
z
" id="DejaVuSans-116"/>
     <path d="M 30.609375 48.390625 
Q 23.390625 48.390625 19.1875 42.75 
Q 14.984375 37.109375 14.984375 27.296875 
Q 14.984375 17.484375 19.15625 11.84375 
Q 23.34375 6.203125 30.609375 6.203125 
Q 37.796875 6.203125 41.984375 11.859375 
Q 46.1875 17.53125 46.1875 27.296875 
Q 46.1875 37.015625 41.984375 42.703125 
Q 37.796875 48.390625 30.609375 48.390625 
z
M 30.609375 56 
Q 42.328125 56 49.015625 48.375 
Q 55.71875 40.765625 55.71875 27.296875 
Q 55.71875 13.875 49.015625 6.21875 
Q 42.328125 -1.421875 30.609375 -1.421875 
Q 18.84375 -1.421875 12.171875 6.21875 
Q 5.515625 13.875 5.515625 27.296875 
Q 5.515625 40.765625 12.171875 48.375 
Q 18.84375 56 30.609375 56 
z
" id="DejaVuSans-111"/>
     <path d="M 48.78125 52.59375 
L 48.78125 44.1875 
Q 44.96875 46.296875 41.140625 47.34375 
Q 37.3125 48.390625 33.40625 48.390625 
Q 24.65625 48.390625 19.8125 42.84375 
Q 14.984375 37.3125 14.984375 27.296875 
Q 14.984375 17.28125 19.8125 11.734375 
Q 24.65625 6.203125 33.40625 6.203125 
Q 37.3125 6.203125 41.140625 7.25 
Q 44.96875 8.296875 48.78125 10.40625 
L 48.78125 2.09375 
Q 45.015625 0.34375 40.984375 -0.53125 
Q 36.96875 -1.421875 32.421875 -1.421875 
Q 20.0625 -1.421875 12.78125 6.34375 
Q 5.515625 14.109375 5.515625 27.296875 
Q 5.515625 40.671875 12.859375 48.328125 
Q 20.21875 56 33.015625 56 
Q 37.15625 56 41.109375 55.140625 
Q 45.0625 54.296875 48.78125 52.59375 
z
" id="DejaVuSans-99"/>
    </defs>
    <g transform="translate(202.452187 45.84)scale(0.12 -0.12)">
     <use xlink:href="#DejaVuSans-49"/>
     <use x="63.623047" xlink:href="#DejaVuSans-48"/>
     <use x="127.246094" xlink:href="#DejaVuSans-95"/>
     <use x="177.246094" xlink:href="#DejaVuSans-48"/>
     <use x="240.869141" xlink:href="#DejaVuSans-54"/>
     <use x="304.492188" xlink:href="#DejaVuSans-95"/>
     <use x="354.492188" xlink:href="#DejaVuSans-48"/>
     <use x="418.115234" xlink:href="#DejaVuSans-56"/>
     <use x="481.738281" xlink:href="#DejaVuSans-95"/>
     <use x="531.738281" xlink:href="#DejaVuSans-49"/>
     <use x="595.361328" xlink:href="#DejaVuSans-53"/>
     <use x="658.984375" xlink:href="#DejaVuSans-95"/>
     <use x="708.984375" xlink:href="#DejaVuSans-109"/>
     <use x="806.396484" xlink:href="#DejaVuSans-105"/>
     <use x="834.179688" xlink:href="#DejaVuSans-110"/>
     <use x="897.558594" xlink:href="#DejaVuSans-117"/>
     <use x="960.9375" xlink:href="#DejaVuSans-116"/>
     <use x="1000.146484" xlink:href="#DejaVuSans-111"/>
     <use x="1061.328125" xlink:href="#DejaVuSans-95"/>
     <use x="1111.328125" xlink:href="#DejaVuSans-99"/>
     <use x="1166.308594" xlink:href="#DejaVuSans-111"/>
     <use x="1227.490234" xlink:href="#DejaVuSans-110"/>
     <use x="1290.869141" xlink:href="#DejaVuSans-116"/>
     <use x="1330.078125" xlink:href="#DejaVuSans-105"/>
     <use x="1357.861328" xlink:href="#DejaVuSans-110"/>
     <use x="1421.240234" xlink:href="#DejaVuSans-117"/>
     <use x="1484.619141" xlink:href="#DejaVuSans-111"/>
    </g>
   </g>
   <g id="legend_1">
    <g id="patch_7">
     <path d="M 79 103.874375 
L 163.667188 103.874375 
Q 165.667188 103.874375 165.667188 101.874375 
L 165.667188 58.84 
Q 165.667188 56.84 163.667188 56.84 
L 79 56.84 
Q 77 56.84 77 58.84 
L 77 101.874375 
Q 77 103.874375 79 103.874375 
z
" style="fill:#ffffff;opacity:0.8;stroke:#cccccc;stroke-linejoin:miter;"/>
    </g>
    <g id="line2d_19">
     <path d="M 81 64.938437 
L 101 64.938437 
" style="fill:none;stroke:#1f77b4;stroke-linecap:square;stroke-width:1.5;"/>
    </g>
    <g id="line2d_20">
     <g>
      <use style="fill:#1f77b4;stroke:#1f77b4;" x="91" xlink:href="#mcb1f720559" y="64.938437"/>
     </g>
    </g>
    <g id="text_19">
     <!-- Bilancia -->
     <defs>
      <path d="M 19.671875 34.8125 
L 19.671875 8.109375 
L 35.5 8.109375 
Q 43.453125 8.109375 47.28125 11.40625 
Q 51.125 14.703125 51.125 21.484375 
Q 51.125 28.328125 47.28125 31.5625 
Q 43.453125 34.8125 35.5 34.8125 
z
M 19.671875 64.796875 
L 19.671875 42.828125 
L 34.28125 42.828125 
Q 41.5 42.828125 45.03125 45.53125 
Q 48.578125 48.25 48.578125 53.8125 
Q 48.578125 59.328125 45.03125 62.0625 
Q 41.5 64.796875 34.28125 64.796875 
z
M 9.8125 72.90625 
L 35.015625 72.90625 
Q 46.296875 72.90625 52.390625 68.21875 
Q 58.5 63.53125 58.5 54.890625 
Q 58.5 48.1875 55.375 44.234375 
Q 52.25 40.28125 46.1875 39.3125 
Q 53.46875 37.75 57.5 32.78125 
Q 61.53125 27.828125 61.53125 20.40625 
Q 61.53125 10.640625 54.890625 5.3125 
Q 48.25 0 35.984375 0 
L 9.8125 0 
z
" id="DejaVuSans-66"/>
      <path d="M 9.421875 75.984375 
L 18.40625 75.984375 
L 18.40625 0 
L 9.421875 0 
z
" id="DejaVuSans-108"/>
     </defs>
     <g transform="translate(109 68.438437)scale(0.1 -0.1)">
      <use xlink:href="#DejaVuSans-66"/>
      <use x="68.603516" xlink:href="#DejaVuSans-105"/>
      <use x="96.386719" xlink:href="#DejaVuSans-108"/>
      <use x="124.169922" xlink:href="#DejaVuSans-97"/>
      <use x="185.449219" xlink:href="#DejaVuSans-110"/>
      <use x="248.828125" xlink:href="#DejaVuSans-99"/>
      <use x="303.808594" xlink:href="#DejaVuSans-105"/>
      <use x="331.591797" xlink:href="#DejaVuSans-97"/>
     </g>
    </g>
    <g id="line2d_21">
     <path d="M 81 79.616562 
L 101 79.616562 
" style="fill:none;stroke:#ff7f0e;stroke-linecap:square;stroke-width:1.5;"/>
    </g>
    <g id="line2d_22"/>
    <g id="text_20">
     <!-- From flow -->
     <defs>
      <path d="M 9.8125 72.90625 
L 51.703125 72.90625 
L 51.703125 64.59375 
L 19.671875 64.59375 
L 19.671875 43.109375 
L 48.578125 43.109375 
L 48.578125 34.8125 
L 19.671875 34.8125 
L 19.671875 0 
L 9.8125 0 
z
" id="DejaVuSans-70"/>
      <path d="M 41.109375 46.296875 
Q 39.59375 47.171875 37.8125 47.578125 
Q 36.03125 48 33.890625 48 
Q 26.265625 48 22.1875 43.046875 
Q 18.109375 38.09375 18.109375 28.8125 
L 18.109375 0 
L 9.078125 0 
L 9.078125 54.6875 
L 18.109375 54.6875 
L 18.109375 46.1875 
Q 20.953125 51.171875 25.484375 53.578125 
Q 30.03125 56 36.53125 56 
Q 37.453125 56 38.578125 55.875 
Q 39.703125 55.765625 41.0625 55.515625 
z
" id="DejaVuSans-114"/>
      <path d="M 37.109375 75.984375 
L 37.109375 68.5 
L 28.515625 68.5 
Q 23.6875 68.5 21.796875 66.546875 
Q 19.921875 64.59375 19.921875 59.515625 
L 19.921875 54.6875 
L 34.71875 54.6875 
L 34.71875 47.703125 
L 19.921875 47.703125 
L 19.921875 0 
L 10.890625 0 
L 10.890625 47.703125 
L 2.296875 47.703125 
L 2.296875 54.6875 
L 10.890625 54.6875 
L 10.890625 58.5 
Q 10.890625 67.625 15.140625 71.796875 
Q 19.390625 75.984375 28.609375 75.984375 
z
" id="DejaVuSans-102"/>
      <path d="M 4.203125 54.6875 
L 13.1875 54.6875 
L 24.421875 12.015625 
L 35.59375 54.6875 
L 46.1875 54.6875 
L 57.421875 12.015625 
L 68.609375 54.6875 
L 77.59375 54.6875 
L 63.28125 0 
L 52.6875 0 
L 40.921875 44.828125 
L 29.109375 0 
L 18.5 0 
z
" id="DejaVuSans-119"/>
     </defs>
     <g transform="translate(109 83.116562)scale(0.1 -0.1)">
      <use xlink:href="#DejaVuSans-70"/>
      <use x="57.410156" xlink:href="#DejaVuSans-114"/>
      <use x="98.492188" xlink:href="#DejaVuSans-111"/>
      <use x="159.673828" xlink:href="#DejaVuSans-109"/>
      <use x="257.085938" xlink:href="#DejaVuSans-32"/>
      <use x="288.873047" xlink:href="#DejaVuSans-102"/>
      <use x="324.078125" xlink:href="#DejaVuSans-108"/>
      <use x="351.861328" xlink:href="#DejaVuSans-111"/>
      <use x="413.042969" xlink:href="#DejaVuSans-119"/>
     </g>
    </g>
    <g id="line2d_23">
     <path d="M 81 94.294687 
L 101 94.294687 
" style="fill:none;stroke:#2ca02c;stroke-linecap:square;stroke-width:1.5;"/>
    </g>
    <g id="line2d_24"/>
    <g id="text_21">
     <!-- From level -->
     <defs>
      <path d="M 2.984375 54.6875 
L 12.5 54.6875 
L 29.59375 8.796875 
L 46.6875 54.6875 
L 56.203125 54.6875 
L 35.6875 0 
L 23.484375 0 
z
" id="DejaVuSans-118"/>
     </defs>
     <g transform="translate(109 97.794687)scale(0.1 -0.1)">
      <use xlink:href="#DejaVuSans-70"/>
      <use x="57.410156" xlink:href="#DejaVuSans-114"/>
      <use x="98.492188" xlink:href="#DejaVuSans-111"/>
      <use x="159.673828" xlink:href="#DejaVuSans-109"/>
      <use x="257.085938" xlink:href="#DejaVuSans-32"/>
      <use x="288.873047" xlink:href="#DejaVuSans-108"/>
      <use x="316.65625" xlink:href="#DejaVuSans-101"/>
      <use x="378.179688" xlink:href="#DejaVuSans-118"/>
      <use x="437.359375" xlink:href="#DejaVuSans-101"/>
      <use x="498.882812" xlink:href="#DejaVuSans-108"/>
     </g>
    </g>
   </g>
  </g>
 </g>
 <defs>
  <clipPath id="pcb3c8989bc">
   <rect height="332.64" width="446.4" x="72" y="51.84"/>
  </clipPath>
 </defs>
</svg>
