<?xml version="1.0" encoding="utf-8" standalone="no"?>
<!DOCTYPE svg PUBLIC "-//W3C//DTD SVG 1.1//EN"
  "http://www.w3.org/Graphics/SVG/1.1/DTD/svg11.dtd">
<!-- Created with matplotlib (https://matplotlib.org/) -->
<svg height="432pt" version="1.1" viewBox="0 0 576 432" width="576pt" xmlns="http://www.w3.org/2000/svg" xmlns:xlink="http://www.w3.org/1999/xlink">
 <defs>
  <style type="text/css">
*{stroke-linecap:butt;stroke-linejoin:round;}
  </style>
 </defs>
 <g id="figure_1">
  <g id="patch_1">
   <path d="M 0 432 
L 576 432 
L 576 0 
L 0 0 
z
" style="fill:#ffffff;"/>
  </g>
  <g id="axes_1">
   <g id="patch_2">
    <path d="M 72 384.48 
L 518.4 384.48 
L 518.4 51.84 
L 72 51.84 
z
" style="fill:#ffffff;"/>
   </g>
   <g id="matplotlib.axis_1">
    <g id="xtick_1">
     <g id="line2d_1">
      <defs>
       <path d="M 0 0 
L 0 3.5 
" id="mbb377c9e87" style="stroke:#000000;stroke-width:0.8;"/>
      </defs>
      <g>
       <use style="stroke:#000000;stroke-width:0.8;" x="92.290909" xlink:href="#mbb377c9e87" y="384.48"/>
      </g>
     </g>
     <g id="text_1">
      <!-- 0 -->
      <defs>
       <path d="M 31.78125 66.40625 
Q 24.171875 66.40625 20.328125 58.90625 
Q 16.5 51.421875 16.5 36.375 
Q 16.5 21.390625 20.328125 13.890625 
Q 24.171875 6.390625 31.78125 6.390625 
Q 39.453125 6.390625 43.28125 13.890625 
Q 47.125 21.390625 47.125 36.375 
Q 47.125 51.421875 43.28125 58.90625 
Q 39.453125 66.40625 31.78125 66.40625 
z
M 31.78125 74.21875 
Q 44.046875 74.21875 50.515625 64.515625 
Q 56.984375 54.828125 56.984375 36.375 
Q 56.984375 17.96875 50.515625 8.265625 
Q 44.046875 -1.421875 31.78125 -1.421875 
Q 19.53125 -1.421875 13.0625 8.265625 
Q 6.59375 17.96875 6.59375 36.375 
Q 6.59375 54.828125 13.0625 64.515625 
Q 19.53125 74.21875 31.78125 74.21875 
z
" id="DejaVuSans-48"/>
      </defs>
      <g transform="translate(89.109659 399.078438)scale(0.1 -0.1)">
       <use xlink:href="#DejaVuSans-48"/>
      </g>
     </g>
    </g>
    <g id="xtick_2">
     <g id="line2d_2">
      <g>
       <use style="stroke:#000000;stroke-width:0.8;" x="160.173018" xlink:href="#mbb377c9e87" y="384.48"/>
      </g>
     </g>
     <g id="text_2">
      <!-- 10 -->
      <defs>
       <path d="M 12.40625 8.296875 
L 28.515625 8.296875 
L 28.515625 63.921875 
L 10.984375 60.40625 
L 10.984375 69.390625 
L 28.421875 72.90625 
L 38.28125 72.90625 
L 38.28125 8.296875 
L 54.390625 8.296875 
L 54.390625 0 
L 12.40625 0 
z
" id="DejaVuSans-49"/>
      </defs>
      <g transform="translate(153.810518 399.078438)scale(0.1 -0.1)">
       <use xlink:href="#DejaVuSans-49"/>
       <use x="63.623047" xlink:href="#DejaVuSans-48"/>
      </g>
     </g>
    </g>
    <g id="xtick_3">
     <g id="line2d_3">
      <g>
       <use style="stroke:#000000;stroke-width:0.8;" x="228.055128" xlink:href="#mbb377c9e87" y="384.48"/>
      </g>
     </g>
     <g id="text_3">
      <!-- 20 -->
      <defs>
       <path d="M 19.1875 8.296875 
L 53.609375 8.296875 
L 53.609375 0 
L 7.328125 0 
L 7.328125 8.296875 
Q 12.9375 14.109375 22.625 23.890625 
Q 32.328125 33.6875 34.8125 36.53125 
Q 39.546875 41.84375 41.421875 45.53125 
Q 43.3125 49.21875 43.3125 52.78125 
Q 43.3125 58.59375 39.234375 62.25 
Q 35.15625 65.921875 28.609375 65.921875 
Q 23.96875 65.921875 18.8125 64.3125 
Q 13.671875 62.703125 7.8125 59.421875 
L 7.8125 69.390625 
Q 13.765625 71.78125 18.9375 73 
Q 24.125 74.21875 28.421875 74.21875 
Q 39.75 74.21875 46.484375 68.546875 
Q 53.21875 62.890625 53.21875 53.421875 
Q 53.21875 48.921875 51.53125 44.890625 
Q 49.859375 40.875 45.40625 35.40625 
Q 44.1875 33.984375 37.640625 27.21875 
Q 31.109375 20.453125 19.1875 8.296875 
z
" id="DejaVuSans-50"/>
      </defs>
      <g transform="translate(221.692628 399.078438)scale(0.1 -0.1)">
       <use xlink:href="#DejaVuSans-50"/>
       <use x="63.623047" xlink:href="#DejaVuSans-48"/>
      </g>
     </g>
    </g>
    <g id="xtick_4">
     <g id="line2d_4">
      <g>
       <use style="stroke:#000000;stroke-width:0.8;" x="295.937237" xlink:href="#mbb377c9e87" y="384.48"/>
      </g>
     </g>
     <g id="text_4">
      <!-- 30 -->
      <defs>
       <path d="M 40.578125 39.3125 
Q 47.65625 37.796875 51.625 33 
Q 55.609375 28.21875 55.609375 21.1875 
Q 55.609375 10.40625 48.1875 4.484375 
Q 40.765625 -1.421875 27.09375 -1.421875 
Q 22.515625 -1.421875 17.65625 -0.515625 
Q 12.796875 0.390625 7.625 2.203125 
L 7.625 11.71875 
Q 11.71875 9.328125 16.59375 8.109375 
Q 21.484375 6.890625 26.8125 6.890625 
Q 36.078125 6.890625 40.9375 10.546875 
Q 45.796875 14.203125 45.796875 21.1875 
Q 45.796875 27.640625 41.28125 31.265625 
Q 36.765625 34.90625 28.71875 34.90625 
L 20.21875 34.90625 
L 20.21875 43.015625 
L 29.109375 43.015625 
Q 36.375 43.015625 40.234375 45.921875 
Q 44.09375 48.828125 44.09375 54.296875 
Q 44.09375 59.90625 40.109375 62.90625 
Q 36.140625 65.921875 28.71875 65.921875 
Q 24.65625 65.921875 20.015625 65.03125 
Q 15.375 64.15625 9.8125 62.3125 
L 9.8125 71.09375 
Q 15.4375 72.65625 20.34375 73.4375 
Q 25.25 74.21875 29.59375 74.21875 
Q 40.828125 74.21875 47.359375 69.109375 
Q 53.90625 64.015625 53.90625 55.328125 
Q 53.90625 49.265625 50.4375 45.09375 
Q 46.96875 40.921875 40.578125 39.3125 
z
" id="DejaVuSans-51"/>
      </defs>
      <g transform="translate(289.574737 399.078438)scale(0.1 -0.1)">
       <use xlink:href="#DejaVuSans-51"/>
       <use x="63.623047" xlink:href="#DejaVuSans-48"/>
      </g>
     </g>
    </g>
    <g id="xtick_5">
     <g id="line2d_5">
      <g>
       <use style="stroke:#000000;stroke-width:0.8;" x="363.819346" xlink:href="#mbb377c9e87" y="384.48"/>
      </g>
     </g>
     <g id="text_5">
      <!-- 40 -->
      <defs>
       <path d="M 37.796875 64.3125 
L 12.890625 25.390625 
L 37.796875 25.390625 
z
M 35.203125 72.90625 
L 47.609375 72.90625 
L 47.609375 25.390625 
L 58.015625 25.390625 
L 58.015625 17.1875 
L 47.609375 17.1875 
L 47.609375 0 
L 37.796875 0 
L 37.796875 17.1875 
L 4.890625 17.1875 
L 4.890625 26.703125 
z
" id="DejaVuSans-52"/>
      </defs>
      <g transform="translate(357.456846 399.078438)scale(0.1 -0.1)">
       <use xlink:href="#DejaVuSans-52"/>
       <use x="63.623047" xlink:href="#DejaVuSans-48"/>
      </g>
     </g>
    </g>
    <g id="xtick_6">
     <g id="line2d_6">
      <g>
       <use style="stroke:#000000;stroke-width:0.8;" x="431.701456" xlink:href="#mbb377c9e87" y="384.48"/>
      </g>
     </g>
     <g id="text_6">
      <!-- 50 -->
      <defs>
       <path d="M 10.796875 72.90625 
L 49.515625 72.90625 
L 49.515625 64.59375 
L 19.828125 64.59375 
L 19.828125 46.734375 
Q 21.96875 47.46875 24.109375 47.828125 
Q 26.265625 48.1875 28.421875 48.1875 
Q 40.625 48.1875 47.75 41.5 
Q 54.890625 34.8125 54.890625 23.390625 
Q 54.890625 11.625 47.5625 5.09375 
Q 40.234375 -1.421875 26.90625 -1.421875 
Q 22.3125 -1.421875 17.546875 -0.640625 
Q 12.796875 0.140625 7.71875 1.703125 
L 7.71875 11.625 
Q 12.109375 9.234375 16.796875 8.0625 
Q 21.484375 6.890625 26.703125 6.890625 
Q 35.15625 6.890625 40.078125 11.328125 
Q 45.015625 15.765625 45.015625 23.390625 
Q 45.015625 31 40.078125 35.4375 
Q 35.15625 39.890625 26.703125 39.890625 
Q 22.75 39.890625 18.8125 39.015625 
Q 14.890625 38.140625 10.796875 36.28125 
z
" id="DejaVuSans-53"/>
      </defs>
      <g transform="translate(425.338956 399.078438)scale(0.1 -0.1)">
       <use xlink:href="#DejaVuSans-53"/>
       <use x="63.623047" xlink:href="#DejaVuSans-48"/>
      </g>
     </g>
    </g>
    <g id="xtick_7">
     <g id="line2d_7">
      <g>
       <use style="stroke:#000000;stroke-width:0.8;" x="499.583565" xlink:href="#mbb377c9e87" y="384.48"/>
      </g>
     </g>
     <g id="text_7">
      <!-- 60 -->
      <defs>
       <path d="M 33.015625 40.375 
Q 26.375 40.375 22.484375 35.828125 
Q 18.609375 31.296875 18.609375 23.390625 
Q 18.609375 15.53125 22.484375 10.953125 
Q 26.375 6.390625 33.015625 6.390625 
Q 39.65625 6.390625 43.53125 10.953125 
Q 47.40625 15.53125 47.40625 23.390625 
Q 47.40625 31.296875 43.53125 35.828125 
Q 39.65625 40.375 33.015625 40.375 
z
M 52.59375 71.296875 
L 52.59375 62.3125 
Q 48.875 64.0625 45.09375 64.984375 
Q 41.3125 65.921875 37.59375 65.921875 
Q 27.828125 65.921875 22.671875 59.328125 
Q 17.53125 52.734375 16.796875 39.40625 
Q 19.671875 43.65625 24.015625 45.921875 
Q 28.375 48.1875 33.59375 48.1875 
Q 44.578125 48.1875 50.953125 41.515625 
Q 57.328125 34.859375 57.328125 23.390625 
Q 57.328125 12.15625 50.6875 5.359375 
Q 44.046875 -1.421875 33.015625 -1.421875 
Q 20.359375 -1.421875 13.671875 8.265625 
Q 6.984375 17.96875 6.984375 36.375 
Q 6.984375 53.65625 15.1875 63.9375 
Q 23.390625 74.21875 37.203125 74.21875 
Q 40.921875 74.21875 44.703125 73.484375 
Q 48.484375 72.75 52.59375 71.296875 
z
" id="DejaVuSans-54"/>
      </defs>
      <g transform="translate(493.221065 399.078438)scale(0.1 -0.1)">
       <use xlink:href="#DejaVuSans-54"/>
       <use x="63.623047" xlink:href="#DejaVuSans-48"/>
      </g>
     </g>
    </g>
    <g id="text_8">
     <!-- Time [s] -->
     <defs>
      <path d="M -0.296875 72.90625 
L 61.375 72.90625 
L 61.375 64.59375 
L 35.5 64.59375 
L 35.5 0 
L 25.59375 0 
L 25.59375 64.59375 
L -0.296875 64.59375 
z
" id="DejaVuSans-84"/>
      <path d="M 9.421875 54.6875 
L 18.40625 54.6875 
L 18.40625 0 
L 9.421875 0 
z
M 9.421875 75.984375 
L 18.40625 75.984375 
L 18.40625 64.59375 
L 9.421875 64.59375 
z
" id="DejaVuSans-105"/>
      <path d="M 52 44.1875 
Q 55.375 50.25 60.0625 53.125 
Q 64.75 56 71.09375 56 
Q 79.640625 56 84.28125 50.015625 
Q 88.921875 44.046875 88.921875 33.015625 
L 88.921875 0 
L 79.890625 0 
L 79.890625 32.71875 
Q 79.890625 40.578125 77.09375 44.375 
Q 74.3125 48.1875 68.609375 48.1875 
Q 61.625 48.1875 57.5625 43.546875 
Q 53.515625 38.921875 53.515625 30.90625 
L 53.515625 0 
L 44.484375 0 
L 44.484375 32.71875 
Q 44.484375 40.625 41.703125 44.40625 
Q 38.921875 48.1875 33.109375 48.1875 
Q 26.21875 48.1875 22.15625 43.53125 
Q 18.109375 38.875 18.109375 30.90625 
L 18.109375 0 
L 9.078125 0 
L 9.078125 54.6875 
L 18.109375 54.6875 
L 18.109375 46.1875 
Q 21.1875 51.21875 25.484375 53.609375 
Q 29.78125 56 35.6875 56 
Q 41.65625 56 45.828125 52.96875 
Q 50 49.953125 52 44.1875 
z
" id="DejaVuSans-109"/>
      <path d="M 56.203125 29.59375 
L 56.203125 25.203125 
L 14.890625 25.203125 
Q 15.484375 15.921875 20.484375 11.0625 
Q 25.484375 6.203125 34.421875 6.203125 
Q 39.59375 6.203125 44.453125 7.46875 
Q 49.3125 8.734375 54.109375 11.28125 
L 54.109375 2.78125 
Q 49.265625 0.734375 44.1875 -0.34375 
Q 39.109375 -1.421875 33.890625 -1.421875 
Q 20.796875 -1.421875 13.15625 6.1875 
Q 5.515625 13.8125 5.515625 26.8125 
Q 5.515625 40.234375 12.765625 48.109375 
Q 20.015625 56 32.328125 56 
Q 43.359375 56 49.78125 48.890625 
Q 56.203125 41.796875 56.203125 29.59375 
z
M 47.21875 32.234375 
Q 47.125 39.59375 43.09375 43.984375 
Q 39.0625 48.390625 32.421875 48.390625 
Q 24.90625 48.390625 20.390625 44.140625 
Q 15.875 39.890625 15.1875 32.171875 
z
" id="DejaVuSans-101"/>
      <path id="DejaVuSans-32"/>
      <path d="M 8.59375 75.984375 
L 29.296875 75.984375 
L 29.296875 69 
L 17.578125 69 
L 17.578125 -6.203125 
L 29.296875 -6.203125 
L 29.296875 -13.1875 
L 8.59375 -13.1875 
z
" id="DejaVuSans-91"/>
      <path d="M 44.28125 53.078125 
L 44.28125 44.578125 
Q 40.484375 46.53125 36.375 47.5 
Q 32.28125 48.484375 27.875 48.484375 
Q 21.1875 48.484375 17.84375 46.4375 
Q 14.5 44.390625 14.5 40.28125 
Q 14.5 37.15625 16.890625 35.375 
Q 19.28125 33.59375 26.515625 31.984375 
L 29.59375 31.296875 
Q 39.15625 29.25 43.1875 25.515625 
Q 47.21875 21.78125 47.21875 15.09375 
Q 47.21875 7.46875 41.1875 3.015625 
Q 35.15625 -1.421875 24.609375 -1.421875 
Q 20.21875 -1.421875 15.453125 -0.5625 
Q 10.6875 0.296875 5.421875 2 
L 5.421875 11.28125 
Q 10.40625 8.6875 15.234375 7.390625 
Q 20.0625 6.109375 24.8125 6.109375 
Q 31.15625 6.109375 34.5625 8.28125 
Q 37.984375 10.453125 37.984375 14.40625 
Q 37.984375 18.0625 35.515625 20.015625 
Q 33.0625 21.96875 24.703125 23.78125 
L 21.578125 24.515625 
Q 13.234375 26.265625 9.515625 29.90625 
Q 5.8125 33.546875 5.8125 39.890625 
Q 5.8125 47.609375 11.28125 51.796875 
Q 16.75 56 26.8125 56 
Q 31.78125 56 36.171875 55.265625 
Q 40.578125 54.546875 44.28125 53.078125 
z
" id="DejaVuSans-115"/>
      <path d="M 30.421875 75.984375 
L 30.421875 -13.1875 
L 9.71875 -13.1875 
L 9.71875 -6.203125 
L 21.390625 -6.203125 
L 21.390625 69 
L 9.71875 69 
L 9.71875 75.984375 
z
" id="DejaVuSans-93"/>
     </defs>
     <g transform="translate(274.717187 412.756563)scale(0.1 -0.1)">
      <use xlink:href="#DejaVuSans-84"/>
      <use x="61.037109" xlink:href="#DejaVuSans-105"/>
      <use x="88.820312" xlink:href="#DejaVuSans-109"/>
      <use x="186.232422" xlink:href="#DejaVuSans-101"/>
      <use x="247.755859" xlink:href="#DejaVuSans-32"/>
      <use x="279.542969" xlink:href="#DejaVuSans-91"/>
      <use x="318.556641" xlink:href="#DejaVuSans-115"/>
      <use x="370.65625" xlink:href="#DejaVuSans-93"/>
     </g>
    </g>
   </g>
   <g id="matplotlib.axis_2">
    <g id="ytick_1">
     <g id="line2d_8">
      <defs>
       <path d="M 0 0 
L -3.5 0 
" id="ma33d335aa8" style="stroke:#000000;stroke-width:0.8;"/>
      </defs>
      <g>
       <use style="stroke:#000000;stroke-width:0.8;" x="72" xlink:href="#ma33d335aa8" y="369.36"/>
      </g>
     </g>
     <g id="text_9">
      <!-- 0.00 -->
      <defs>
       <path d="M 10.6875 12.40625 
L 21 12.40625 
L 21 0 
L 10.6875 0 
z
" id="DejaVuSans-46"/>
      </defs>
      <g transform="translate(42.734375 373.159219)scale(0.1 -0.1)">
       <use xlink:href="#DejaVuSans-48"/>
       <use x="63.623047" xlink:href="#DejaVuSans-46"/>
       <use x="95.410156" xlink:href="#DejaVuSans-48"/>
       <use x="159.033203" xlink:href="#DejaVuSans-48"/>
      </g>
     </g>
    </g>
    <g id="ytick_2">
     <g id="line2d_9">
      <g>
       <use style="stroke:#000000;stroke-width:0.8;" x="72" xlink:href="#ma33d335aa8" y="317.73302"/>
      </g>
     </g>
     <g id="text_10">
      <!-- 0.01 -->
      <g transform="translate(42.734375 321.532239)scale(0.1 -0.1)">
       <use xlink:href="#DejaVuSans-48"/>
       <use x="63.623047" xlink:href="#DejaVuSans-46"/>
       <use x="95.410156" xlink:href="#DejaVuSans-48"/>
       <use x="159.033203" xlink:href="#DejaVuSans-49"/>
      </g>
     </g>
    </g>
    <g id="ytick_3">
     <g id="line2d_10">
      <g>
       <use style="stroke:#000000;stroke-width:0.8;" x="72" xlink:href="#ma33d335aa8" y="266.10604"/>
      </g>
     </g>
     <g id="text_11">
      <!-- 0.02 -->
      <g transform="translate(42.734375 269.905258)scale(0.1 -0.1)">
       <use xlink:href="#DejaVuSans-48"/>
       <use x="63.623047" xlink:href="#DejaVuSans-46"/>
       <use x="95.410156" xlink:href="#DejaVuSans-48"/>
       <use x="159.033203" xlink:href="#DejaVuSans-50"/>
      </g>
     </g>
    </g>
    <g id="ytick_4">
     <g id="line2d_11">
      <g>
       <use style="stroke:#000000;stroke-width:0.8;" x="72" xlink:href="#ma33d335aa8" y="214.479059"/>
      </g>
     </g>
     <g id="text_12">
      <!-- 0.03 -->
      <g transform="translate(42.734375 218.278278)scale(0.1 -0.1)">
       <use xlink:href="#DejaVuSans-48"/>
       <use x="63.623047" xlink:href="#DejaVuSans-46"/>
       <use x="95.410156" xlink:href="#DejaVuSans-48"/>
       <use x="159.033203" xlink:href="#DejaVuSans-51"/>
      </g>
     </g>
    </g>
    <g id="ytick_5">
     <g id="line2d_12">
      <g>
       <use style="stroke:#000000;stroke-width:0.8;" x="72" xlink:href="#ma33d335aa8" y="162.852079"/>
      </g>
     </g>
     <g id="text_13">
      <!-- 0.04 -->
      <g transform="translate(42.734375 166.651298)scale(0.1 -0.1)">
       <use xlink:href="#DejaVuSans-48"/>
       <use x="63.623047" xlink:href="#DejaVuSans-46"/>
       <use x="95.410156" xlink:href="#DejaVuSans-48"/>
       <use x="159.033203" xlink:href="#DejaVuSans-52"/>
      </g>
     </g>
    </g>
    <g id="ytick_6">
     <g id="line2d_13">
      <g>
       <use style="stroke:#000000;stroke-width:0.8;" x="72" xlink:href="#ma33d335aa8" y="111.225099"/>
      </g>
     </g>
     <g id="text_14">
      <!-- 0.05 -->
      <g transform="translate(42.734375 115.024318)scale(0.1 -0.1)">
       <use xlink:href="#DejaVuSans-48"/>
       <use x="63.623047" xlink:href="#DejaVuSans-46"/>
       <use x="95.410156" xlink:href="#DejaVuSans-48"/>
       <use x="159.033203" xlink:href="#DejaVuSans-53"/>
      </g>
     </g>
    </g>
    <g id="ytick_7">
     <g id="line2d_14">
      <g>
       <use style="stroke:#000000;stroke-width:0.8;" x="72" xlink:href="#ma33d335aa8" y="59.598119"/>
      </g>
     </g>
     <g id="text_15">
      <!-- 0.06 -->
      <g transform="translate(42.734375 63.397338)scale(0.1 -0.1)">
       <use xlink:href="#DejaVuSans-48"/>
       <use x="63.623047" xlink:href="#DejaVuSans-46"/>
       <use x="95.410156" xlink:href="#DejaVuSans-48"/>
       <use x="159.033203" xlink:href="#DejaVuSans-54"/>
      </g>
     </g>
    </g>
    <g id="text_16">
     <!-- Mass [g] -->
     <defs>
      <path d="M 9.8125 72.90625 
L 24.515625 72.90625 
L 43.109375 23.296875 
L 61.8125 72.90625 
L 76.515625 72.90625 
L 76.515625 0 
L 66.890625 0 
L 66.890625 64.015625 
L 48.09375 14.015625 
L 38.1875 14.015625 
L 19.390625 64.015625 
L 19.390625 0 
L 9.8125 0 
z
" id="DejaVuSans-77"/>
      <path d="M 34.28125 27.484375 
Q 23.390625 27.484375 19.1875 25 
Q 14.984375 22.515625 14.984375 16.5 
Q 14.984375 11.71875 18.140625 8.90625 
Q 21.296875 6.109375 26.703125 6.109375 
Q 34.1875 6.109375 38.703125 11.40625 
Q 43.21875 16.703125 43.21875 25.484375 
L 43.21875 27.484375 
z
M 52.203125 31.203125 
L 52.203125 0 
L 43.21875 0 
L 43.21875 8.296875 
Q 40.140625 3.328125 35.546875 0.953125 
Q 30.953125 -1.421875 24.3125 -1.421875 
Q 15.921875 -1.421875 10.953125 3.296875 
Q 6 8.015625 6 15.921875 
Q 6 25.140625 12.171875 29.828125 
Q 18.359375 34.515625 30.609375 34.515625 
L 43.21875 34.515625 
L 43.21875 35.40625 
Q 43.21875 41.609375 39.140625 45 
Q 35.0625 48.390625 27.6875 48.390625 
Q 23 48.390625 18.546875 47.265625 
Q 14.109375 46.140625 10.015625 43.890625 
L 10.015625 52.203125 
Q 14.9375 54.109375 19.578125 55.046875 
Q 24.21875 56 28.609375 56 
Q 40.484375 56 46.34375 49.84375 
Q 52.203125 43.703125 52.203125 31.203125 
z
" id="DejaVuSans-97"/>
      <path d="M 45.40625 27.984375 
Q 45.40625 37.75 41.375 43.109375 
Q 37.359375 48.484375 30.078125 48.484375 
Q 22.859375 48.484375 18.828125 43.109375 
Q 14.796875 37.75 14.796875 27.984375 
Q 14.796875 18.265625 18.828125 12.890625 
Q 22.859375 7.515625 30.078125 7.515625 
Q 37.359375 7.515625 41.375 12.890625 
Q 45.40625 18.265625 45.40625 27.984375 
z
M 54.390625 6.78125 
Q 54.390625 -7.171875 48.1875 -13.984375 
Q 42 -20.796875 29.203125 -20.796875 
Q 24.46875 -20.796875 20.265625 -20.09375 
Q 16.0625 -19.390625 12.109375 -17.921875 
L 12.109375 -9.1875 
Q 16.0625 -11.328125 19.921875 -12.34375 
Q 23.78125 -13.375 27.78125 -13.375 
Q 36.625 -13.375 41.015625 -8.765625 
Q 45.40625 -4.15625 45.40625 5.171875 
L 45.40625 9.625 
Q 42.625 4.78125 38.28125 2.390625 
Q 33.9375 0 27.875 0 
Q 17.828125 0 11.671875 7.65625 
Q 5.515625 15.328125 5.515625 27.984375 
Q 5.515625 40.671875 11.671875 48.328125 
Q 17.828125 56 27.875 56 
Q 33.9375 56 38.28125 53.609375 
Q 42.625 51.21875 45.40625 46.390625 
L 45.40625 54.6875 
L 54.390625 54.6875 
z
" id="DejaVuSans-103"/>
     </defs>
     <g transform="translate(36.654687 239.412344)rotate(-90)scale(0.1 -0.1)">
      <use xlink:href="#DejaVuSans-77"/>
      <use x="86.279297" xlink:href="#DejaVuSans-97"/>
      <use x="147.558594" xlink:href="#DejaVuSans-115"/>
      <use x="199.658203" xlink:href="#DejaVuSans-115"/>
      <use x="251.757812" xlink:href="#DejaVuSans-32"/>
      <use x="283.544922" xlink:href="#DejaVuSans-91"/>
      <use x="322.558594" xlink:href="#DejaVuSans-103"/>
      <use x="386.035156" xlink:href="#DejaVuSans-93"/>
     </g>
    </g>
   </g>
   <g id="line2d_15">
    <path clip-path="url(#p7d62d8f8d7)" d="M 92.290909 369.36 
L 122.188558 369.36 
L 123.525307 364.197302 
L 124.894068 364.197302 
L 126.257928 240.29255 
L 127.613025 235.129852 
L 128.96901 240.29255 
L 130.334031 240.29255 
L 133.031606 229.967154 
L 134.392398 235.129852 
L 154.75978 235.129852 
L 156.116437 240.29255 
L 166.967813 240.29255 
L 168.323643 245.455248 
L 171.03994 245.455248 
L 172.404952 250.617946 
L 176.47196 250.617946 
L 177.829602 255.780644 
L 188.678222 255.780644 
L 190.047731 260.943342 
L 198.181805 260.943342 
L 199.54179 255.780644 
L 203.600896 255.780644 
L 204.973975 250.617946 
L 209.045855 250.617946 
L 210.404741 245.455248 
L 214.428432 245.455248 
L 215.836551 240.29255 
L 225.315725 240.29255 
L 226.692332 235.129852 
L 255.226605 235.129852 
L 256.540198 240.29255 
L 297.255772 240.29255 
L 298.616353 80.248911 
L 498.109091 80.248911 
L 498.109091 80.248911 
" style="fill:none;stroke:#1f77b4;stroke-linecap:square;stroke-width:1.5;"/>
    <defs>
     <path d="M 0 3 
C 0.795609 3 1.55874 2.683901 2.12132 2.12132 
C 2.683901 1.55874 3 0.795609 3 0 
C 3 -0.795609 2.683901 -1.55874 2.12132 -2.12132 
C 1.55874 -2.683901 0.795609 -3 0 -3 
C -0.795609 -3 -1.55874 -2.683901 -2.12132 -2.12132 
C -2.683901 -1.55874 -3 -0.795609 -3 0 
C -3 0.795609 -2.683901 1.55874 -2.12132 2.12132 
C -1.55874 2.683901 -0.795609 3 0 3 
z
" id="mbf6964cd0a" style="stroke:#1f77b4;"/>
    </defs>
    <g clip-path="url(#p7d62d8f8d7)">
     <use style="fill:#1f77b4;stroke:#1f77b4;" x="92.290909" xlink:href="#mbf6964cd0a" y="369.36"/>
     <use style="fill:#1f77b4;stroke:#1f77b4;" x="93.689301" xlink:href="#mbf6964cd0a" y="369.36"/>
     <use style="fill:#1f77b4;stroke:#1f77b4;" x="95.031154" xlink:href="#mbf6964cd0a" y="369.36"/>
     <use style="fill:#1f77b4;stroke:#1f77b4;" x="96.404584" xlink:href="#mbf6964cd0a" y="369.36"/>
     <use style="fill:#1f77b4;stroke:#1f77b4;" x="97.74079" xlink:href="#mbf6964cd0a" y="369.36"/>
     <use style="fill:#1f77b4;stroke:#1f77b4;" x="99.098418" xlink:href="#mbf6964cd0a" y="369.36"/>
     <use style="fill:#1f77b4;stroke:#1f77b4;" x="100.46443" xlink:href="#mbf6964cd0a" y="369.36"/>
     <use style="fill:#1f77b4;stroke:#1f77b4;" x="101.832302" xlink:href="#mbf6964cd0a" y="369.36"/>
     <use style="fill:#1f77b4;stroke:#1f77b4;" x="103.178533" xlink:href="#mbf6964cd0a" y="369.36"/>
     <use style="fill:#1f77b4;stroke:#1f77b4;" x="104.540222" xlink:href="#mbf6964cd0a" y="369.36"/>
     <use style="fill:#1f77b4;stroke:#1f77b4;" x="105.8827" xlink:href="#mbf6964cd0a" y="369.36"/>
     <use style="fill:#1f77b4;stroke:#1f77b4;" x="107.240328" xlink:href="#mbf6964cd0a" y="369.36"/>
     <use style="fill:#1f77b4;stroke:#1f77b4;" x="108.611858" xlink:href="#mbf6964cd0a" y="369.36"/>
     <use style="fill:#1f77b4;stroke:#1f77b4;" x="109.957438" xlink:href="#mbf6964cd0a" y="369.36"/>
     <use style="fill:#1f77b4;stroke:#1f77b4;" x="111.329247" xlink:href="#mbf6964cd0a" y="369.36"/>
     <use style="fill:#1f77b4;stroke:#1f77b4;" x="112.672932" xlink:href="#mbf6964cd0a" y="369.36"/>
     <use style="fill:#1f77b4;stroke:#1f77b4;" x="114.036148" xlink:href="#mbf6964cd0a" y="369.36"/>
     <use style="fill:#1f77b4;stroke:#1f77b4;" x="115.395561" xlink:href="#mbf6964cd0a" y="369.36"/>
     <use style="fill:#1f77b4;stroke:#1f77b4;" x="116.751786" xlink:href="#mbf6964cd0a" y="369.36"/>
     <use style="fill:#1f77b4;stroke:#1f77b4;" x="118.086389" xlink:href="#mbf6964cd0a" y="369.36"/>
     <use style="fill:#1f77b4;stroke:#1f77b4;" x="119.468576" xlink:href="#mbf6964cd0a" y="369.36"/>
     <use style="fill:#1f77b4;stroke:#1f77b4;" x="120.822568" xlink:href="#mbf6964cd0a" y="369.36"/>
     <use style="fill:#1f77b4;stroke:#1f77b4;" x="122.188558" xlink:href="#mbf6964cd0a" y="369.36"/>
     <use style="fill:#1f77b4;stroke:#1f77b4;" x="123.525307" xlink:href="#mbf6964cd0a" y="364.197302"/>
     <use style="fill:#1f77b4;stroke:#1f77b4;" x="124.894068" xlink:href="#mbf6964cd0a" y="364.197302"/>
     <use style="fill:#1f77b4;stroke:#1f77b4;" x="126.257928" xlink:href="#mbf6964cd0a" y="240.29255"/>
     <use style="fill:#1f77b4;stroke:#1f77b4;" x="127.613025" xlink:href="#mbf6964cd0a" y="235.129852"/>
     <use style="fill:#1f77b4;stroke:#1f77b4;" x="128.96901" xlink:href="#mbf6964cd0a" y="240.29255"/>
     <use style="fill:#1f77b4;stroke:#1f77b4;" x="130.334031" xlink:href="#mbf6964cd0a" y="240.29255"/>
     <use style="fill:#1f77b4;stroke:#1f77b4;" x="131.673326" xlink:href="#mbf6964cd0a" y="235.129852"/>
     <use style="fill:#1f77b4;stroke:#1f77b4;" x="133.031606" xlink:href="#mbf6964cd0a" y="229.967154"/>
     <use style="fill:#1f77b4;stroke:#1f77b4;" x="134.392398" xlink:href="#mbf6964cd0a" y="235.129852"/>
     <use style="fill:#1f77b4;stroke:#1f77b4;" x="135.760968" xlink:href="#mbf6964cd0a" y="235.129852"/>
     <use style="fill:#1f77b4;stroke:#1f77b4;" x="137.119628" xlink:href="#mbf6964cd0a" y="235.129852"/>
     <use style="fill:#1f77b4;stroke:#1f77b4;" x="138.46347" xlink:href="#mbf6964cd0a" y="235.129852"/>
     <use style="fill:#1f77b4;stroke:#1f77b4;" x="139.82782" xlink:href="#mbf6964cd0a" y="235.129852"/>
     <use style="fill:#1f77b4;stroke:#1f77b4;" x="141.186317" xlink:href="#mbf6964cd0a" y="235.129852"/>
     <use style="fill:#1f77b4;stroke:#1f77b4;" x="142.543987" xlink:href="#mbf6964cd0a" y="235.129852"/>
     <use style="fill:#1f77b4;stroke:#1f77b4;" x="143.908098" xlink:href="#mbf6964cd0a" y="235.129852"/>
     <use style="fill:#1f77b4;stroke:#1f77b4;" x="145.252395" xlink:href="#mbf6964cd0a" y="235.129852"/>
     <use style="fill:#1f77b4;stroke:#1f77b4;" x="146.609792" xlink:href="#mbf6964cd0a" y="235.129852"/>
     <use style="fill:#1f77b4;stroke:#1f77b4;" x="147.968046" xlink:href="#mbf6964cd0a" y="235.129852"/>
     <use style="fill:#1f77b4;stroke:#1f77b4;" x="149.329686" xlink:href="#mbf6964cd0a" y="235.129852"/>
     <use style="fill:#1f77b4;stroke:#1f77b4;" x="150.687939" xlink:href="#mbf6964cd0a" y="235.129852"/>
     <use style="fill:#1f77b4;stroke:#1f77b4;" x="152.017974" xlink:href="#mbf6964cd0a" y="235.129852"/>
     <use style="fill:#1f77b4;stroke:#1f77b4;" x="153.399802" xlink:href="#mbf6964cd0a" y="235.129852"/>
     <use style="fill:#1f77b4;stroke:#1f77b4;" x="154.75978" xlink:href="#mbf6964cd0a" y="235.129852"/>
     <use style="fill:#1f77b4;stroke:#1f77b4;" x="156.116437" xlink:href="#mbf6964cd0a" y="240.29255"/>
     <use style="fill:#1f77b4;stroke:#1f77b4;" x="157.468758" xlink:href="#mbf6964cd0a" y="240.29255"/>
     <use style="fill:#1f77b4;stroke:#1f77b4;" x="158.816659" xlink:href="#mbf6964cd0a" y="240.29255"/>
     <use style="fill:#1f77b4;stroke:#1f77b4;" x="160.168416" xlink:href="#mbf6964cd0a" y="240.29255"/>
     <use style="fill:#1f77b4;stroke:#1f77b4;" x="161.534896" xlink:href="#mbf6964cd0a" y="240.29255"/>
     <use style="fill:#1f77b4;stroke:#1f77b4;" x="162.907085" xlink:href="#mbf6964cd0a" y="240.29255"/>
     <use style="fill:#1f77b4;stroke:#1f77b4;" x="164.254566" xlink:href="#mbf6964cd0a" y="240.29255"/>
     <use style="fill:#1f77b4;stroke:#1f77b4;" x="165.625343" xlink:href="#mbf6964cd0a" y="240.29255"/>
     <use style="fill:#1f77b4;stroke:#1f77b4;" x="166.967813" xlink:href="#mbf6964cd0a" y="240.29255"/>
     <use style="fill:#1f77b4;stroke:#1f77b4;" x="168.323643" xlink:href="#mbf6964cd0a" y="245.455248"/>
     <use style="fill:#1f77b4;stroke:#1f77b4;" x="169.681088" xlink:href="#mbf6964cd0a" y="245.455248"/>
     <use style="fill:#1f77b4;stroke:#1f77b4;" x="171.03994" xlink:href="#mbf6964cd0a" y="245.455248"/>
     <use style="fill:#1f77b4;stroke:#1f77b4;" x="172.404952" xlink:href="#mbf6964cd0a" y="250.617946"/>
     <use style="fill:#1f77b4;stroke:#1f77b4;" x="173.771848" xlink:href="#mbf6964cd0a" y="250.617946"/>
     <use style="fill:#1f77b4;stroke:#1f77b4;" x="175.114453" xlink:href="#mbf6964cd0a" y="250.617946"/>
     <use style="fill:#1f77b4;stroke:#1f77b4;" x="176.47196" xlink:href="#mbf6964cd0a" y="250.617946"/>
     <use style="fill:#1f77b4;stroke:#1f77b4;" x="177.829602" xlink:href="#mbf6964cd0a" y="255.780644"/>
     <use style="fill:#1f77b4;stroke:#1f77b4;" x="179.188582" xlink:href="#mbf6964cd0a" y="255.780644"/>
     <use style="fill:#1f77b4;stroke:#1f77b4;" x="180.548152" xlink:href="#mbf6964cd0a" y="255.780644"/>
     <use style="fill:#1f77b4;stroke:#1f77b4;" x="181.903622" xlink:href="#mbf6964cd0a" y="255.780644"/>
     <use style="fill:#1f77b4;stroke:#1f77b4;" x="183.246051" xlink:href="#mbf6964cd0a" y="255.780644"/>
     <use style="fill:#1f77b4;stroke:#1f77b4;" x="184.617148" xlink:href="#mbf6964cd0a" y="255.780644"/>
     <use style="fill:#1f77b4;stroke:#1f77b4;" x="185.96676" xlink:href="#mbf6964cd0a" y="255.780644"/>
     <use style="fill:#1f77b4;stroke:#1f77b4;" x="187.333098" xlink:href="#mbf6964cd0a" y="255.780644"/>
     <use style="fill:#1f77b4;stroke:#1f77b4;" x="188.678222" xlink:href="#mbf6964cd0a" y="255.780644"/>
     <use style="fill:#1f77b4;stroke:#1f77b4;" x="190.047731" xlink:href="#mbf6964cd0a" y="260.943342"/>
     <use style="fill:#1f77b4;stroke:#1f77b4;" x="191.408393" xlink:href="#mbf6964cd0a" y="260.943342"/>
     <use style="fill:#1f77b4;stroke:#1f77b4;" x="192.742962" xlink:href="#mbf6964cd0a" y="260.943342"/>
     <use style="fill:#1f77b4;stroke:#1f77b4;" x="194.110733" xlink:href="#mbf6964cd0a" y="260.943342"/>
     <use style="fill:#1f77b4;stroke:#1f77b4;" x="195.456502" xlink:href="#mbf6964cd0a" y="260.943342"/>
     <use style="fill:#1f77b4;stroke:#1f77b4;" x="196.828984" xlink:href="#mbf6964cd0a" y="260.943342"/>
     <use style="fill:#1f77b4;stroke:#1f77b4;" x="198.181805" xlink:href="#mbf6964cd0a" y="260.943342"/>
     <use style="fill:#1f77b4;stroke:#1f77b4;" x="199.54179" xlink:href="#mbf6964cd0a" y="255.780644"/>
     <use style="fill:#1f77b4;stroke:#1f77b4;" x="200.897518" xlink:href="#mbf6964cd0a" y="255.780644"/>
     <use style="fill:#1f77b4;stroke:#1f77b4;" x="202.257774" xlink:href="#mbf6964cd0a" y="255.780644"/>
     <use style="fill:#1f77b4;stroke:#1f77b4;" x="203.600896" xlink:href="#mbf6964cd0a" y="255.780644"/>
     <use style="fill:#1f77b4;stroke:#1f77b4;" x="204.973975" xlink:href="#mbf6964cd0a" y="250.617946"/>
     <use style="fill:#1f77b4;stroke:#1f77b4;" x="206.329316" xlink:href="#mbf6964cd0a" y="250.617946"/>
     <use style="fill:#1f77b4;stroke:#1f77b4;" x="207.689415" xlink:href="#mbf6964cd0a" y="250.617946"/>
     <use style="fill:#1f77b4;stroke:#1f77b4;" x="209.045855" xlink:href="#mbf6964cd0a" y="250.617946"/>
     <use style="fill:#1f77b4;stroke:#1f77b4;" x="210.404741" xlink:href="#mbf6964cd0a" y="245.455248"/>
     <use style="fill:#1f77b4;stroke:#1f77b4;" x="211.763421" xlink:href="#mbf6964cd0a" y="245.455248"/>
     <use style="fill:#1f77b4;stroke:#1f77b4;" x="213.072575" xlink:href="#mbf6964cd0a" y="245.455248"/>
     <use style="fill:#1f77b4;stroke:#1f77b4;" x="214.428432" xlink:href="#mbf6964cd0a" y="245.455248"/>
     <use style="fill:#1f77b4;stroke:#1f77b4;" x="215.836551" xlink:href="#mbf6964cd0a" y="240.29255"/>
     <use style="fill:#1f77b4;stroke:#1f77b4;" x="217.183733" xlink:href="#mbf6964cd0a" y="240.29255"/>
     <use style="fill:#1f77b4;stroke:#1f77b4;" x="218.503598" xlink:href="#mbf6964cd0a" y="240.29255"/>
     <use style="fill:#1f77b4;stroke:#1f77b4;" x="219.8999" xlink:href="#mbf6964cd0a" y="240.29255"/>
     <use style="fill:#1f77b4;stroke:#1f77b4;" x="221.263848" xlink:href="#mbf6964cd0a" y="240.29255"/>
     <use style="fill:#1f77b4;stroke:#1f77b4;" x="222.6124" xlink:href="#mbf6964cd0a" y="240.29255"/>
     <use style="fill:#1f77b4;stroke:#1f77b4;" x="223.970015" xlink:href="#mbf6964cd0a" y="240.29255"/>
     <use style="fill:#1f77b4;stroke:#1f77b4;" x="225.315725" xlink:href="#mbf6964cd0a" y="240.29255"/>
     <use style="fill:#1f77b4;stroke:#1f77b4;" x="226.692332" xlink:href="#mbf6964cd0a" y="235.129852"/>
     <use style="fill:#1f77b4;stroke:#1f77b4;" x="228.060192" xlink:href="#mbf6964cd0a" y="235.129852"/>
     <use style="fill:#1f77b4;stroke:#1f77b4;" x="229.355695" xlink:href="#mbf6964cd0a" y="235.129852"/>
     <use style="fill:#1f77b4;stroke:#1f77b4;" x="230.750101" xlink:href="#mbf6964cd0a" y="235.129852"/>
     <use style="fill:#1f77b4;stroke:#1f77b4;" x="232.144277" xlink:href="#mbf6964cd0a" y="235.129852"/>
     <use style="fill:#1f77b4;stroke:#1f77b4;" x="233.474631" xlink:href="#mbf6964cd0a" y="235.129852"/>
     <use style="fill:#1f77b4;stroke:#1f77b4;" x="234.818779" xlink:href="#mbf6964cd0a" y="235.129852"/>
     <use style="fill:#1f77b4;stroke:#1f77b4;" x="236.191389" xlink:href="#mbf6964cd0a" y="235.129852"/>
     <use style="fill:#1f77b4;stroke:#1f77b4;" x="237.535671" xlink:href="#mbf6964cd0a" y="235.129852"/>
     <use style="fill:#1f77b4;stroke:#1f77b4;" x="238.892839" xlink:href="#mbf6964cd0a" y="235.129852"/>
     <use style="fill:#1f77b4;stroke:#1f77b4;" x="240.250352" xlink:href="#mbf6964cd0a" y="235.129852"/>
     <use style="fill:#1f77b4;stroke:#1f77b4;" x="241.608626" xlink:href="#mbf6964cd0a" y="235.129852"/>
     <use style="fill:#1f77b4;stroke:#1f77b4;" x="242.968976" xlink:href="#mbf6964cd0a" y="235.129852"/>
     <use style="fill:#1f77b4;stroke:#1f77b4;" x="244.323442" xlink:href="#mbf6964cd0a" y="235.129852"/>
     <use style="fill:#1f77b4;stroke:#1f77b4;" x="245.682332" xlink:href="#mbf6964cd0a" y="235.129852"/>
     <use style="fill:#1f77b4;stroke:#1f77b4;" x="247.039913" xlink:href="#mbf6964cd0a" y="235.129852"/>
     <use style="fill:#1f77b4;stroke:#1f77b4;" x="248.383477" xlink:href="#mbf6964cd0a" y="235.129852"/>
     <use style="fill:#1f77b4;stroke:#1f77b4;" x="249.747758" xlink:href="#mbf6964cd0a" y="235.129852"/>
     <use style="fill:#1f77b4;stroke:#1f77b4;" x="251.102895" xlink:href="#mbf6964cd0a" y="235.129852"/>
     <use style="fill:#1f77b4;stroke:#1f77b4;" x="252.476355" xlink:href="#mbf6964cd0a" y="235.129852"/>
     <use style="fill:#1f77b4;stroke:#1f77b4;" x="254.674432" xlink:href="#mbf6964cd0a" y="235.129852"/>
     <use style="fill:#1f77b4;stroke:#1f77b4;" x="255.226605" xlink:href="#mbf6964cd0a" y="235.129852"/>
     <use style="fill:#1f77b4;stroke:#1f77b4;" x="256.540198" xlink:href="#mbf6964cd0a" y="240.29255"/>
     <use style="fill:#1f77b4;stroke:#1f77b4;" x="257.907412" xlink:href="#mbf6964cd0a" y="240.29255"/>
     <use style="fill:#1f77b4;stroke:#1f77b4;" x="259.279886" xlink:href="#mbf6964cd0a" y="240.29255"/>
     <use style="fill:#1f77b4;stroke:#1f77b4;" x="260.630849" xlink:href="#mbf6964cd0a" y="240.29255"/>
     <use style="fill:#1f77b4;stroke:#1f77b4;" x="261.967759" xlink:href="#mbf6964cd0a" y="240.29255"/>
     <use style="fill:#1f77b4;stroke:#1f77b4;" x="263.330215" xlink:href="#mbf6964cd0a" y="240.29255"/>
     <use style="fill:#1f77b4;stroke:#1f77b4;" x="264.675672" xlink:href="#mbf6964cd0a" y="240.29255"/>
     <use style="fill:#1f77b4;stroke:#1f77b4;" x="266.038386" xlink:href="#mbf6964cd0a" y="240.29255"/>
     <use style="fill:#1f77b4;stroke:#1f77b4;" x="267.384644" xlink:href="#mbf6964cd0a" y="240.29255"/>
     <use style="fill:#1f77b4;stroke:#1f77b4;" x="268.757097" xlink:href="#mbf6964cd0a" y="240.29255"/>
     <use style="fill:#1f77b4;stroke:#1f77b4;" x="270.118637" xlink:href="#mbf6964cd0a" y="240.29255"/>
     <use style="fill:#1f77b4;stroke:#1f77b4;" x="271.482028" xlink:href="#mbf6964cd0a" y="240.29255"/>
     <use style="fill:#1f77b4;stroke:#1f77b4;" x="272.818749" xlink:href="#mbf6964cd0a" y="240.29255"/>
     <use style="fill:#1f77b4;stroke:#1f77b4;" x="274.198378" xlink:href="#mbf6964cd0a" y="240.29255"/>
     <use style="fill:#1f77b4;stroke:#1f77b4;" x="275.533681" xlink:href="#mbf6964cd0a" y="240.29255"/>
     <use style="fill:#1f77b4;stroke:#1f77b4;" x="276.9023" xlink:href="#mbf6964cd0a" y="240.29255"/>
     <use style="fill:#1f77b4;stroke:#1f77b4;" x="278.251606" xlink:href="#mbf6964cd0a" y="240.29255"/>
     <use style="fill:#1f77b4;stroke:#1f77b4;" x="279.621995" xlink:href="#mbf6964cd0a" y="240.29255"/>
     <use style="fill:#1f77b4;stroke:#1f77b4;" x="280.977255" xlink:href="#mbf6964cd0a" y="240.29255"/>
     <use style="fill:#1f77b4;stroke:#1f77b4;" x="282.32424" xlink:href="#mbf6964cd0a" y="240.29255"/>
     <use style="fill:#1f77b4;stroke:#1f77b4;" x="283.681082" xlink:href="#mbf6964cd0a" y="240.29255"/>
     <use style="fill:#1f77b4;stroke:#1f77b4;" x="285.047901" xlink:href="#mbf6964cd0a" y="240.29255"/>
     <use style="fill:#1f77b4;stroke:#1f77b4;" x="286.392272" xlink:href="#mbf6964cd0a" y="240.29255"/>
     <use style="fill:#1f77b4;stroke:#1f77b4;" x="288.566991" xlink:href="#mbf6964cd0a" y="240.29255"/>
     <use style="fill:#1f77b4;stroke:#1f77b4;" x="289.170415" xlink:href="#mbf6964cd0a" y="240.29255"/>
     <use style="fill:#1f77b4;stroke:#1f77b4;" x="290.473398" xlink:href="#mbf6964cd0a" y="240.29255"/>
     <use style="fill:#1f77b4;stroke:#1f77b4;" x="291.836403" xlink:href="#mbf6964cd0a" y="240.29255"/>
     <use style="fill:#1f77b4;stroke:#1f77b4;" x="293.182906" xlink:href="#mbf6964cd0a" y="240.29255"/>
     <use style="fill:#1f77b4;stroke:#1f77b4;" x="294.541024" xlink:href="#mbf6964cd0a" y="240.29255"/>
     <use style="fill:#1f77b4;stroke:#1f77b4;" x="295.886522" xlink:href="#mbf6964cd0a" y="240.29255"/>
     <use style="fill:#1f77b4;stroke:#1f77b4;" x="297.255772" xlink:href="#mbf6964cd0a" y="240.29255"/>
     <use style="fill:#1f77b4;stroke:#1f77b4;" x="298.616353" xlink:href="#mbf6964cd0a" y="80.248911"/>
     <use style="fill:#1f77b4;stroke:#1f77b4;" x="299.973418" xlink:href="#mbf6964cd0a" y="80.248911"/>
     <use style="fill:#1f77b4;stroke:#1f77b4;" x="301.316608" xlink:href="#mbf6964cd0a" y="80.248911"/>
     <use style="fill:#1f77b4;stroke:#1f77b4;" x="302.675738" xlink:href="#mbf6964cd0a" y="80.248911"/>
     <use style="fill:#1f77b4;stroke:#1f77b4;" x="304.046983" xlink:href="#mbf6964cd0a" y="80.248911"/>
     <use style="fill:#1f77b4;stroke:#1f77b4;" x="305.550308" xlink:href="#mbf6964cd0a" y="80.248911"/>
     <use style="fill:#1f77b4;stroke:#1f77b4;" x="306.762987" xlink:href="#mbf6964cd0a" y="80.248911"/>
     <use style="fill:#1f77b4;stroke:#1f77b4;" x="308.106157" xlink:href="#mbf6964cd0a" y="80.248911"/>
     <use style="fill:#1f77b4;stroke:#1f77b4;" x="309.465252" xlink:href="#mbf6964cd0a" y="80.248911"/>
     <use style="fill:#1f77b4;stroke:#1f77b4;" x="310.854541" xlink:href="#mbf6964cd0a" y="80.248911"/>
     <use style="fill:#1f77b4;stroke:#1f77b4;" x="312.181474" xlink:href="#mbf6964cd0a" y="80.248911"/>
     <use style="fill:#1f77b4;stroke:#1f77b4;" x="313.553867" xlink:href="#mbf6964cd0a" y="80.248911"/>
     <use style="fill:#1f77b4;stroke:#1f77b4;" x="314.900735" xlink:href="#mbf6964cd0a" y="80.248911"/>
     <use style="fill:#1f77b4;stroke:#1f77b4;" x="316.253543" xlink:href="#mbf6964cd0a" y="80.248911"/>
     <use style="fill:#1f77b4;stroke:#1f77b4;" x="317.60038" xlink:href="#mbf6964cd0a" y="80.248911"/>
     <use style="fill:#1f77b4;stroke:#1f77b4;" x="318.976432" xlink:href="#mbf6964cd0a" y="80.248911"/>
     <use style="fill:#1f77b4;stroke:#1f77b4;" x="320.331161" xlink:href="#mbf6964cd0a" y="80.248911"/>
     <use style="fill:#1f77b4;stroke:#1f77b4;" x="321.692476" xlink:href="#mbf6964cd0a" y="80.248911"/>
     <use style="fill:#1f77b4;stroke:#1f77b4;" x="323.045352" xlink:href="#mbf6964cd0a" y="80.248911"/>
     <use style="fill:#1f77b4;stroke:#1f77b4;" x="324.388699" xlink:href="#mbf6964cd0a" y="80.248911"/>
     <use style="fill:#1f77b4;stroke:#1f77b4;" x="325.745207" xlink:href="#mbf6964cd0a" y="80.248911"/>
     <use style="fill:#1f77b4;stroke:#1f77b4;" x="327.102985" xlink:href="#mbf6964cd0a" y="80.248911"/>
     <use style="fill:#1f77b4;stroke:#1f77b4;" x="328.475351" xlink:href="#mbf6964cd0a" y="80.248911"/>
     <use style="fill:#1f77b4;stroke:#1f77b4;" x="329.821807" xlink:href="#mbf6964cd0a" y="80.248911"/>
     <use style="fill:#1f77b4;stroke:#1f77b4;" x="331.180888" xlink:href="#mbf6964cd0a" y="80.248911"/>
     <use style="fill:#1f77b4;stroke:#1f77b4;" x="332.539128" xlink:href="#mbf6964cd0a" y="80.248911"/>
     <use style="fill:#1f77b4;stroke:#1f77b4;" x="333.909755" xlink:href="#mbf6964cd0a" y="80.248911"/>
     <use style="fill:#1f77b4;stroke:#1f77b4;" x="335.249185" xlink:href="#mbf6964cd0a" y="80.248911"/>
     <use style="fill:#1f77b4;stroke:#1f77b4;" x="336.611647" xlink:href="#mbf6964cd0a" y="80.248911"/>
     <use style="fill:#1f77b4;stroke:#1f77b4;" x="337.984731" xlink:href="#mbf6964cd0a" y="80.248911"/>
     <use style="fill:#1f77b4;stroke:#1f77b4;" x="339.328533" xlink:href="#mbf6964cd0a" y="80.248911"/>
     <use style="fill:#1f77b4;stroke:#1f77b4;" x="340.686616" xlink:href="#mbf6964cd0a" y="80.248911"/>
     <use style="fill:#1f77b4;stroke:#1f77b4;" x="342.045412" xlink:href="#mbf6964cd0a" y="80.248911"/>
     <use style="fill:#1f77b4;stroke:#1f77b4;" x="343.387327" xlink:href="#mbf6964cd0a" y="80.248911"/>
     <use style="fill:#1f77b4;stroke:#1f77b4;" x="344.764716" xlink:href="#mbf6964cd0a" y="80.248911"/>
     <use style="fill:#1f77b4;stroke:#1f77b4;" x="346.107186" xlink:href="#mbf6964cd0a" y="80.248911"/>
     <use style="fill:#1f77b4;stroke:#1f77b4;" x="347.476274" xlink:href="#mbf6964cd0a" y="80.248911"/>
     <use style="fill:#1f77b4;stroke:#1f77b4;" x="348.834254" xlink:href="#mbf6964cd0a" y="80.248911"/>
     <use style="fill:#1f77b4;stroke:#1f77b4;" x="350.193499" xlink:href="#mbf6964cd0a" y="80.248911"/>
     <use style="fill:#1f77b4;stroke:#1f77b4;" x="351.541462" xlink:href="#mbf6964cd0a" y="80.248911"/>
     <use style="fill:#1f77b4;stroke:#1f77b4;" x="352.892757" xlink:href="#mbf6964cd0a" y="80.248911"/>
     <use style="fill:#1f77b4;stroke:#1f77b4;" x="354.254004" xlink:href="#mbf6964cd0a" y="80.248911"/>
     <use style="fill:#1f77b4;stroke:#1f77b4;" x="355.611428" xlink:href="#mbf6964cd0a" y="80.248911"/>
     <use style="fill:#1f77b4;stroke:#1f77b4;" x="356.941897" xlink:href="#mbf6964cd0a" y="80.248911"/>
     <use style="fill:#1f77b4;stroke:#1f77b4;" x="358.324507" xlink:href="#mbf6964cd0a" y="80.248911"/>
     <use style="fill:#1f77b4;stroke:#1f77b4;" x="359.695597" xlink:href="#mbf6964cd0a" y="80.248911"/>
     <use style="fill:#1f77b4;stroke:#1f77b4;" x="361.051635" xlink:href="#mbf6964cd0a" y="80.248911"/>
     <use style="fill:#1f77b4;stroke:#1f77b4;" x="362.398085" xlink:href="#mbf6964cd0a" y="80.248911"/>
     <use style="fill:#1f77b4;stroke:#1f77b4;" x="363.753894" xlink:href="#mbf6964cd0a" y="80.248911"/>
     <use style="fill:#1f77b4;stroke:#1f77b4;" x="365.118432" xlink:href="#mbf6964cd0a" y="80.248911"/>
     <use style="fill:#1f77b4;stroke:#1f77b4;" x="366.456186" xlink:href="#mbf6964cd0a" y="80.248911"/>
     <use style="fill:#1f77b4;stroke:#1f77b4;" x="367.815633" xlink:href="#mbf6964cd0a" y="80.248911"/>
     <use style="fill:#1f77b4;stroke:#1f77b4;" x="369.17876" xlink:href="#mbf6964cd0a" y="80.248911"/>
     <use style="fill:#1f77b4;stroke:#1f77b4;" x="370.544712" xlink:href="#mbf6964cd0a" y="80.248911"/>
     <use style="fill:#1f77b4;stroke:#1f77b4;" x="371.910534" xlink:href="#mbf6964cd0a" y="80.248911"/>
     <use style="fill:#1f77b4;stroke:#1f77b4;" x="373.255237" xlink:href="#mbf6964cd0a" y="80.248911"/>
     <use style="fill:#1f77b4;stroke:#1f77b4;" x="374.60396" xlink:href="#mbf6964cd0a" y="80.248911"/>
     <use style="fill:#1f77b4;stroke:#1f77b4;" x="375.982958" xlink:href="#mbf6964cd0a" y="80.248911"/>
     <use style="fill:#1f77b4;stroke:#1f77b4;" x="377.335673" xlink:href="#mbf6964cd0a" y="80.248911"/>
     <use style="fill:#1f77b4;stroke:#1f77b4;" x="378.680084" xlink:href="#mbf6964cd0a" y="80.248911"/>
     <use style="fill:#1f77b4;stroke:#1f77b4;" x="380.03744" xlink:href="#mbf6964cd0a" y="80.248911"/>
     <use style="fill:#1f77b4;stroke:#1f77b4;" x="381.395627" xlink:href="#mbf6964cd0a" y="80.248911"/>
     <use style="fill:#1f77b4;stroke:#1f77b4;" x="382.756432" xlink:href="#mbf6964cd0a" y="80.248911"/>
     <use style="fill:#1f77b4;stroke:#1f77b4;" x="384.110381" xlink:href="#mbf6964cd0a" y="80.248911"/>
     <use style="fill:#1f77b4;stroke:#1f77b4;" x="385.481817" xlink:href="#mbf6964cd0a" y="80.248911"/>
     <use style="fill:#1f77b4;stroke:#1f77b4;" x="386.82515" xlink:href="#mbf6964cd0a" y="80.248911"/>
     <use style="fill:#1f77b4;stroke:#1f77b4;" x="388.182174" xlink:href="#mbf6964cd0a" y="80.248911"/>
     <use style="fill:#1f77b4;stroke:#1f77b4;" x="389.526864" xlink:href="#mbf6964cd0a" y="80.248911"/>
     <use style="fill:#1f77b4;stroke:#1f77b4;" x="391.848541" xlink:href="#mbf6964cd0a" y="80.248911"/>
     <use style="fill:#1f77b4;stroke:#1f77b4;" x="392.555676" xlink:href="#mbf6964cd0a" y="80.248911"/>
     <use style="fill:#1f77b4;stroke:#1f77b4;" x="393.600986" xlink:href="#mbf6964cd0a" y="80.248911"/>
     <use style="fill:#1f77b4;stroke:#1f77b4;" x="394.958865" xlink:href="#mbf6964cd0a" y="80.248911"/>
     <use style="fill:#1f77b4;stroke:#1f77b4;" x="396.316671" xlink:href="#mbf6964cd0a" y="80.248911"/>
     <use style="fill:#1f77b4;stroke:#1f77b4;" x="397.689912" xlink:href="#mbf6964cd0a" y="80.248911"/>
     <use style="fill:#1f77b4;stroke:#1f77b4;" x="399.050126" xlink:href="#mbf6964cd0a" y="80.248911"/>
     <use style="fill:#1f77b4;stroke:#1f77b4;" x="400.398021" xlink:href="#mbf6964cd0a" y="80.248911"/>
     <use style="fill:#1f77b4;stroke:#1f77b4;" x="401.764461" xlink:href="#mbf6964cd0a" y="80.248911"/>
     <use style="fill:#1f77b4;stroke:#1f77b4;" x="403.121987" xlink:href="#mbf6964cd0a" y="80.248911"/>
     <use style="fill:#1f77b4;stroke:#1f77b4;" x="404.479419" xlink:href="#mbf6964cd0a" y="80.248911"/>
     <use style="fill:#1f77b4;stroke:#1f77b4;" x="405.827898" xlink:href="#mbf6964cd0a" y="80.248911"/>
     <use style="fill:#1f77b4;stroke:#1f77b4;" x="407.191472" xlink:href="#mbf6964cd0a" y="80.248911"/>
     <use style="fill:#1f77b4;stroke:#1f77b4;" x="408.549433" xlink:href="#mbf6964cd0a" y="80.248911"/>
     <use style="fill:#1f77b4;stroke:#1f77b4;" x="409.89644" xlink:href="#mbf6964cd0a" y="80.248911"/>
     <use style="fill:#1f77b4;stroke:#1f77b4;" x="411.255438" xlink:href="#mbf6964cd0a" y="80.248911"/>
     <use style="fill:#1f77b4;stroke:#1f77b4;" x="412.597678" xlink:href="#mbf6964cd0a" y="80.248911"/>
     <use style="fill:#1f77b4;stroke:#1f77b4;" x="413.956617" xlink:href="#mbf6964cd0a" y="80.248911"/>
     <use style="fill:#1f77b4;stroke:#1f77b4;" x="415.330068" xlink:href="#mbf6964cd0a" y="80.248911"/>
     <use style="fill:#1f77b4;stroke:#1f77b4;" x="416.686646" xlink:href="#mbf6964cd0a" y="80.248911"/>
     <use style="fill:#1f77b4;stroke:#1f77b4;" x="418.043486" xlink:href="#mbf6964cd0a" y="80.248911"/>
     <use style="fill:#1f77b4;stroke:#1f77b4;" x="419.401332" xlink:href="#mbf6964cd0a" y="80.248911"/>
     <use style="fill:#1f77b4;stroke:#1f77b4;" x="420.75924" xlink:href="#mbf6964cd0a" y="80.248911"/>
     <use style="fill:#1f77b4;stroke:#1f77b4;" x="422.102545" xlink:href="#mbf6964cd0a" y="80.248911"/>
     <use style="fill:#1f77b4;stroke:#1f77b4;" x="423.46631" xlink:href="#mbf6964cd0a" y="80.248911"/>
     <use style="fill:#1f77b4;stroke:#1f77b4;" x="424.818366" xlink:href="#mbf6964cd0a" y="80.248911"/>
     <use style="fill:#1f77b4;stroke:#1f77b4;" x="426.178933" xlink:href="#mbf6964cd0a" y="80.248911"/>
     <use style="fill:#1f77b4;stroke:#1f77b4;" x="427.536311" xlink:href="#mbf6964cd0a" y="80.248911"/>
     <use style="fill:#1f77b4;stroke:#1f77b4;" x="428.894896" xlink:href="#mbf6964cd0a" y="80.248911"/>
     <use style="fill:#1f77b4;stroke:#1f77b4;" x="430.253679" xlink:href="#mbf6964cd0a" y="80.248911"/>
     <use style="fill:#1f77b4;stroke:#1f77b4;" x="431.62297" xlink:href="#mbf6964cd0a" y="80.248911"/>
     <use style="fill:#1f77b4;stroke:#1f77b4;" x="432.979805" xlink:href="#mbf6964cd0a" y="80.248911"/>
     <use style="fill:#1f77b4;stroke:#1f77b4;" x="434.325955" xlink:href="#mbf6964cd0a" y="80.248911"/>
     <use style="fill:#1f77b4;stroke:#1f77b4;" x="435.684343" xlink:href="#mbf6964cd0a" y="80.248911"/>
     <use style="fill:#1f77b4;stroke:#1f77b4;" x="437.025911" xlink:href="#mbf6964cd0a" y="80.248911"/>
     <use style="fill:#1f77b4;stroke:#1f77b4;" x="438.388801" xlink:href="#mbf6964cd0a" y="80.248911"/>
     <use style="fill:#1f77b4;stroke:#1f77b4;" x="439.74148" xlink:href="#mbf6964cd0a" y="80.248911"/>
     <use style="fill:#1f77b4;stroke:#1f77b4;" x="441.099394" xlink:href="#mbf6964cd0a" y="80.248911"/>
     <use style="fill:#1f77b4;stroke:#1f77b4;" x="442.457417" xlink:href="#mbf6964cd0a" y="80.248911"/>
     <use style="fill:#1f77b4;stroke:#1f77b4;" x="443.815731" xlink:href="#mbf6964cd0a" y="80.248911"/>
     <use style="fill:#1f77b4;stroke:#1f77b4;" x="445.175015" xlink:href="#mbf6964cd0a" y="80.248911"/>
     <use style="fill:#1f77b4;stroke:#1f77b4;" x="446.549316" xlink:href="#mbf6964cd0a" y="80.248911"/>
     <use style="fill:#1f77b4;stroke:#1f77b4;" x="447.905579" xlink:href="#mbf6964cd0a" y="80.248911"/>
     <use style="fill:#1f77b4;stroke:#1f77b4;" x="449.263581" xlink:href="#mbf6964cd0a" y="80.248911"/>
     <use style="fill:#1f77b4;stroke:#1f77b4;" x="450.604159" xlink:href="#mbf6964cd0a" y="80.248911"/>
     <use style="fill:#1f77b4;stroke:#1f77b4;" x="451.968215" xlink:href="#mbf6964cd0a" y="80.248911"/>
     <use style="fill:#1f77b4;stroke:#1f77b4;" x="453.323163" xlink:href="#mbf6964cd0a" y="80.248911"/>
     <use style="fill:#1f77b4;stroke:#1f77b4;" x="454.682944" xlink:href="#mbf6964cd0a" y="80.248911"/>
     <use style="fill:#1f77b4;stroke:#1f77b4;" x="456.051439" xlink:href="#mbf6964cd0a" y="80.248911"/>
     <use style="fill:#1f77b4;stroke:#1f77b4;" x="457.396958" xlink:href="#mbf6964cd0a" y="80.248911"/>
     <use style="fill:#1f77b4;stroke:#1f77b4;" x="459.724413" xlink:href="#mbf6964cd0a" y="80.248911"/>
     <use style="fill:#1f77b4;stroke:#1f77b4;" x="460.481827" xlink:href="#mbf6964cd0a" y="80.248911"/>
     <use style="fill:#1f77b4;stroke:#1f77b4;" x="461.488234" xlink:href="#mbf6964cd0a" y="80.248911"/>
     <use style="fill:#1f77b4;stroke:#1f77b4;" x="462.833793" xlink:href="#mbf6964cd0a" y="80.248911"/>
     <use style="fill:#1f77b4;stroke:#1f77b4;" x="464.188306" xlink:href="#mbf6964cd0a" y="80.248911"/>
     <use style="fill:#1f77b4;stroke:#1f77b4;" x="465.545704" xlink:href="#mbf6964cd0a" y="80.248911"/>
     <use style="fill:#1f77b4;stroke:#1f77b4;" x="466.888275" xlink:href="#mbf6964cd0a" y="80.248911"/>
     <use style="fill:#1f77b4;stroke:#1f77b4;" x="468.244927" xlink:href="#mbf6964cd0a" y="80.248911"/>
     <use style="fill:#1f77b4;stroke:#1f77b4;" x="469.621318" xlink:href="#mbf6964cd0a" y="80.248911"/>
     <use style="fill:#1f77b4;stroke:#1f77b4;" x="470.963944" xlink:href="#mbf6964cd0a" y="80.248911"/>
     <use style="fill:#1f77b4;stroke:#1f77b4;" x="472.318844" xlink:href="#mbf6964cd0a" y="80.248911"/>
     <use style="fill:#1f77b4;stroke:#1f77b4;" x="473.691237" xlink:href="#mbf6964cd0a" y="80.248911"/>
     <use style="fill:#1f77b4;stroke:#1f77b4;" x="475.04186" xlink:href="#mbf6964cd0a" y="80.248911"/>
     <use style="fill:#1f77b4;stroke:#1f77b4;" x="476.394744" xlink:href="#mbf6964cd0a" y="80.248911"/>
     <use style="fill:#1f77b4;stroke:#1f77b4;" x="477.765093" xlink:href="#mbf6964cd0a" y="80.248911"/>
     <use style="fill:#1f77b4;stroke:#1f77b4;" x="479.11869" xlink:href="#mbf6964cd0a" y="80.248911"/>
     <use style="fill:#1f77b4;stroke:#1f77b4;" x="480.473482" xlink:href="#mbf6964cd0a" y="80.248911"/>
     <use style="fill:#1f77b4;stroke:#1f77b4;" x="481.825041" xlink:href="#mbf6964cd0a" y="80.248911"/>
     <use style="fill:#1f77b4;stroke:#1f77b4;" x="483.183784" xlink:href="#mbf6964cd0a" y="80.248911"/>
     <use style="fill:#1f77b4;stroke:#1f77b4;" x="484.538955" xlink:href="#mbf6964cd0a" y="80.248911"/>
     <use style="fill:#1f77b4;stroke:#1f77b4;" x="485.887942" xlink:href="#mbf6964cd0a" y="80.248911"/>
     <use style="fill:#1f77b4;stroke:#1f77b4;" x="487.246656" xlink:href="#mbf6964cd0a" y="80.248911"/>
     <use style="fill:#1f77b4;stroke:#1f77b4;" x="488.615207" xlink:href="#mbf6964cd0a" y="80.248911"/>
     <use style="fill:#1f77b4;stroke:#1f77b4;" x="489.9731" xlink:href="#mbf6964cd0a" y="80.248911"/>
     <use style="fill:#1f77b4;stroke:#1f77b4;" x="491.333478" xlink:href="#mbf6964cd0a" y="80.248911"/>
     <use style="fill:#1f77b4;stroke:#1f77b4;" x="492.697007" xlink:href="#mbf6964cd0a" y="80.248911"/>
     <use style="fill:#1f77b4;stroke:#1f77b4;" x="494.054832" xlink:href="#mbf6964cd0a" y="80.248911"/>
     <use style="fill:#1f77b4;stroke:#1f77b4;" x="495.392448" xlink:href="#mbf6964cd0a" y="80.248911"/>
     <use style="fill:#1f77b4;stroke:#1f77b4;" x="496.764671" xlink:href="#mbf6964cd0a" y="80.248911"/>
     <use style="fill:#1f77b4;stroke:#1f77b4;" x="498.109091" xlink:href="#mbf6964cd0a" y="80.248911"/>
    </g>
   </g>
   <g id="line2d_16">
    <path clip-path="url(#p7d62d8f8d7)" d="M 92.290909 369.36 
L 476.394744 83.339735 
L 498.109091 66.96 
L 498.109091 66.96 
" style="fill:none;stroke:#ff7f0e;stroke-linecap:square;stroke-width:1.5;"/>
   </g>
   <g id="line2d_17">
    <path clip-path="url(#p7d62d8f8d7)" d="M 92.290909 369.36 
L 476.394744 83.339735 
L 498.109091 66.96 
L 498.109091 66.96 
" style="fill:none;stroke:#2ca02c;stroke-linecap:square;stroke-width:1.5;"/>
   </g>
   <g id="patch_3">
    <path d="M 72 384.48 
L 72 51.84 
" style="fill:none;stroke:#000000;stroke-linecap:square;stroke-linejoin:miter;stroke-width:0.8;"/>
   </g>
   <g id="patch_4">
    <path d="M 518.4 384.48 
L 518.4 51.84 
" style="fill:none;stroke:#000000;stroke-linecap:square;stroke-linejoin:miter;stroke-width:0.8;"/>
   </g>
   <g id="patch_5">
    <path d="M 72 384.48 
L 518.4 384.48 
" style="fill:none;stroke:#000000;stroke-linecap:square;stroke-linejoin:miter;stroke-width:0.8;"/>
   </g>
   <g id="patch_6">
    <path d="M 72 51.84 
L 518.4 51.84 
" style="fill:none;stroke:#000000;stroke-linecap:square;stroke-linejoin:miter;stroke-width:0.8;"/>
   </g>
   <g id="text_17">
    <!-- 09_06_16_09_minuto_continuo -->
    <defs>
     <path d="M 10.984375 1.515625 
L 10.984375 10.5 
Q 14.703125 8.734375 18.5 7.8125 
Q 22.3125 6.890625 25.984375 6.890625 
Q 35.75 6.890625 40.890625 13.453125 
Q 46.046875 20.015625 46.78125 33.40625 
Q 43.953125 29.203125 39.59375 26.953125 
Q 35.25 24.703125 29.984375 24.703125 
Q 19.046875 24.703125 12.671875 31.3125 
Q 6.296875 37.9375 6.296875 49.421875 
Q 6.296875 60.640625 12.9375 67.421875 
Q 19.578125 74.21875 30.609375 74.21875 
Q 43.265625 74.21875 49.921875 64.515625 
Q 56.59375 54.828125 56.59375 36.375 
Q 56.59375 19.140625 48.40625 8.859375 
Q 40.234375 -1.421875 26.421875 -1.421875 
Q 22.703125 -1.421875 18.890625 -0.6875 
Q 15.09375 0.046875 10.984375 1.515625 
z
M 30.609375 32.421875 
Q 37.25 32.421875 41.125 36.953125 
Q 45.015625 41.5 45.015625 49.421875 
Q 45.015625 57.28125 41.125 61.84375 
Q 37.25 66.40625 30.609375 66.40625 
Q 23.96875 66.40625 20.09375 61.84375 
Q 16.21875 57.28125 16.21875 49.421875 
Q 16.21875 41.5 20.09375 36.953125 
Q 23.96875 32.421875 30.609375 32.421875 
z
" id="DejaVuSans-57"/>
     <path d="M 50.984375 -16.609375 
L 50.984375 -23.578125 
L -0.984375 -23.578125 
L -0.984375 -16.609375 
z
" id="DejaVuSans-95"/>
     <path d="M 54.890625 33.015625 
L 54.890625 0 
L 45.90625 0 
L 45.90625 32.71875 
Q 45.90625 40.484375 42.875 44.328125 
Q 39.84375 48.1875 33.796875 48.1875 
Q 26.515625 48.1875 22.3125 43.546875 
Q 18.109375 38.921875 18.109375 30.90625 
L 18.109375 0 
L 9.078125 0 
L 9.078125 54.6875 
L 18.109375 54.6875 
L 18.109375 46.1875 
Q 21.34375 51.125 25.703125 53.5625 
Q 30.078125 56 35.796875 56 
Q 45.21875 56 50.046875 50.171875 
Q 54.890625 44.34375 54.890625 33.015625 
z
" id="DejaVuSans-110"/>
     <path d="M 8.5 21.578125 
L 8.5 54.6875 
L 17.484375 54.6875 
L 17.484375 21.921875 
Q 17.484375 14.15625 20.5 10.265625 
Q 23.53125 6.390625 29.59375 6.390625 
Q 36.859375 6.390625 41.078125 11.03125 
Q 45.3125 15.671875 45.3125 23.6875 
L 45.3125 54.6875 
L 54.296875 54.6875 
L 54.296875 0 
L 45.3125 0 
L 45.3125 8.40625 
Q 42.046875 3.421875 37.71875 1 
Q 33.40625 -1.421875 27.6875 -1.421875 
Q 18.265625 -1.421875 13.375 4.4375 
Q 8.5 10.296875 8.5 21.578125 
z
M 31.109375 56 
z
" id="DejaVuSans-117"/>
     <path d="M 18.3125 70.21875 
L 18.3125 54.6875 
L 36.8125 54.6875 
L 36.8125 47.703125 
L 18.3125 47.703125 
L 18.3125 18.015625 
Q 18.3125 11.328125 20.140625 9.421875 
Q 21.96875 7.515625 27.59375 7.515625 
L 36.8125 7.515625 
L 36.8125 0 
L 27.59375 0 
Q 17.1875 0 13.234375 3.875 
Q 9.28125 7.765625 9.28125 18.015625 
L 9.28125 47.703125 
L 2.6875 47.703125 
L 2.6875 54.6875 
L 9.28125 54.6875 
L 9.28125 70.21875 
z
" id="DejaVuSans-116"/>
     <path d="M 30.609375 48.390625 
Q 23.390625 48.390625 19.1875 42.75 
Q 14.984375 37.109375 14.984375 27.296875 
Q 14.984375 17.484375 19.15625 11.84375 
Q 23.34375 6.203125 30.609375 6.203125 
Q 37.796875 6.203125 41.984375 11.859375 
Q 46.1875 17.53125 46.1875 27.296875 
Q 46.1875 37.015625 41.984375 42.703125 
Q 37.796875 48.390625 30.609375 48.390625 
z
M 30.609375 56 
Q 42.328125 56 49.015625 48.375 
Q 55.71875 40.765625 55.71875 27.296875 
Q 55.71875 13.875 49.015625 6.21875 
Q 42.328125 -1.421875 30.609375 -1.421875 
Q 18.84375 -1.421875 12.171875 6.21875 
Q 5.515625 13.875 5.515625 27.296875 
Q 5.515625 40.765625 12.171875 48.375 
Q 18.84375 56 30.609375 56 
z
" id="DejaVuSans-111"/>
     <path d="M 48.78125 52.59375 
L 48.78125 44.1875 
Q 44.96875 46.296875 41.140625 47.34375 
Q 37.3125 48.390625 33.40625 48.390625 
Q 24.65625 48.390625 19.8125 42.84375 
Q 14.984375 37.3125 14.984375 27.296875 
Q 14.984375 17.28125 19.8125 11.734375 
Q 24.65625 6.203125 33.40625 6.203125 
Q 37.3125 6.203125 41.140625 7.25 
Q 44.96875 8.296875 48.78125 10.40625 
L 48.78125 2.09375 
Q 45.015625 0.34375 40.984375 -0.53125 
Q 36.96875 -1.421875 32.421875 -1.421875 
Q 20.0625 -1.421875 12.78125 6.34375 
Q 5.515625 14.109375 5.515625 27.296875 
Q 5.515625 40.671875 12.859375 48.328125 
Q 20.21875 56 33.015625 56 
Q 37.15625 56 41.109375 55.140625 
Q 45.0625 54.296875 48.78125 52.59375 
z
" id="DejaVuSans-99"/>
    </defs>
    <g transform="translate(202.452187 45.84)scale(0.12 -0.12)">
     <use xlink:href="#DejaVuSans-48"/>
     <use x="63.623047" xlink:href="#DejaVuSans-57"/>
     <use x="127.246094" xlink:href="#DejaVuSans-95"/>
     <use x="177.246094" xlink:href="#DejaVuSans-48"/>
     <use x="240.869141" xlink:href="#DejaVuSans-54"/>
     <use x="304.492188" xlink:href="#DejaVuSans-95"/>
     <use x="354.492188" xlink:href="#DejaVuSans-49"/>
     <use x="418.115234" xlink:href="#DejaVuSans-54"/>
     <use x="481.738281" xlink:href="#DejaVuSans-95"/>
     <use x="531.738281" xlink:href="#DejaVuSans-48"/>
     <use x="595.361328" xlink:href="#DejaVuSans-57"/>
     <use x="658.984375" xlink:href="#DejaVuSans-95"/>
     <use x="708.984375" xlink:href="#DejaVuSans-109"/>
     <use x="806.396484" xlink:href="#DejaVuSans-105"/>
     <use x="834.179688" xlink:href="#DejaVuSans-110"/>
     <use x="897.558594" xlink:href="#DejaVuSans-117"/>
     <use x="960.9375" xlink:href="#DejaVuSans-116"/>
     <use x="1000.146484" xlink:href="#DejaVuSans-111"/>
     <use x="1061.328125" xlink:href="#DejaVuSans-95"/>
     <use x="1111.328125" xlink:href="#DejaVuSans-99"/>
     <use x="1166.308594" xlink:href="#DejaVuSans-111"/>
     <use x="1227.490234" xlink:href="#DejaVuSans-110"/>
     <use x="1290.869141" xlink:href="#DejaVuSans-116"/>
     <use x="1330.078125" xlink:href="#DejaVuSans-105"/>
     <use x="1357.861328" xlink:href="#DejaVuSans-110"/>
     <use x="1421.240234" xlink:href="#DejaVuSans-117"/>
     <use x="1484.619141" xlink:href="#DejaVuSans-111"/>
    </g>
   </g>
   <g id="legend_1">
    <g id="patch_7">
     <path d="M 79 103.874375 
L 163.667188 103.874375 
Q 165.667188 103.874375 165.667188 101.874375 
L 165.667188 58.84 
Q 165.667188 56.84 163.667188 56.84 
L 79 56.84 
Q 77 56.84 77 58.84 
L 77 101.874375 
Q 77 103.874375 79 103.874375 
z
" style="fill:#ffffff;opacity:0.8;stroke:#cccccc;stroke-linejoin:miter;"/>
    </g>
    <g id="line2d_18">
     <path d="M 81 64.938437 
L 101 64.938437 
" style="fill:none;stroke:#1f77b4;stroke-linecap:square;stroke-width:1.5;"/>
    </g>
    <g id="line2d_19">
     <g>
      <use style="fill:#1f77b4;stroke:#1f77b4;" x="91" xlink:href="#mbf6964cd0a" y="64.938437"/>
     </g>
    </g>
    <g id="text_18">
     <!-- Bilancia -->
     <defs>
      <path d="M 19.671875 34.8125 
L 19.671875 8.109375 
L 35.5 8.109375 
Q 43.453125 8.109375 47.28125 11.40625 
Q 51.125 14.703125 51.125 21.484375 
Q 51.125 28.328125 47.28125 31.5625 
Q 43.453125 34.8125 35.5 34.8125 
z
M 19.671875 64.796875 
L 19.671875 42.828125 
L 34.28125 42.828125 
Q 41.5 42.828125 45.03125 45.53125 
Q 48.578125 48.25 48.578125 53.8125 
Q 48.578125 59.328125 45.03125 62.0625 
Q 41.5 64.796875 34.28125 64.796875 
z
M 9.8125 72.90625 
L 35.015625 72.90625 
Q 46.296875 72.90625 52.390625 68.21875 
Q 58.5 63.53125 58.5 54.890625 
Q 58.5 48.1875 55.375 44.234375 
Q 52.25 40.28125 46.1875 39.3125 
Q 53.46875 37.75 57.5 32.78125 
Q 61.53125 27.828125 61.53125 20.40625 
Q 61.53125 10.640625 54.890625 5.3125 
Q 48.25 0 35.984375 0 
L 9.8125 0 
z
" id="DejaVuSans-66"/>
      <path d="M 9.421875 75.984375 
L 18.40625 75.984375 
L 18.40625 0 
L 9.421875 0 
z
" id="DejaVuSans-108"/>
     </defs>
     <g transform="translate(109 68.438437)scale(0.1 -0.1)">
      <use xlink:href="#DejaVuSans-66"/>
      <use x="68.603516" xlink:href="#DejaVuSans-105"/>
      <use x="96.386719" xlink:href="#DejaVuSans-108"/>
      <use x="124.169922" xlink:href="#DejaVuSans-97"/>
      <use x="185.449219" xlink:href="#DejaVuSans-110"/>
      <use x="248.828125" xlink:href="#DejaVuSans-99"/>
      <use x="303.808594" xlink:href="#DejaVuSans-105"/>
      <use x="331.591797" xlink:href="#DejaVuSans-97"/>
     </g>
    </g>
    <g id="line2d_20">
     <path d="M 81 79.616562 
L 101 79.616562 
" style="fill:none;stroke:#ff7f0e;stroke-linecap:square;stroke-width:1.5;"/>
    </g>
    <g id="line2d_21"/>
    <g id="text_19">
     <!-- From flow -->
     <defs>
      <path d="M 9.8125 72.90625 
L 51.703125 72.90625 
L 51.703125 64.59375 
L 19.671875 64.59375 
L 19.671875 43.109375 
L 48.578125 43.109375 
L 48.578125 34.8125 
L 19.671875 34.8125 
L 19.671875 0 
L 9.8125 0 
z
" id="DejaVuSans-70"/>
      <path d="M 41.109375 46.296875 
Q 39.59375 47.171875 37.8125 47.578125 
Q 36.03125 48 33.890625 48 
Q 26.265625 48 22.1875 43.046875 
Q 18.109375 38.09375 18.109375 28.8125 
L 18.109375 0 
L 9.078125 0 
L 9.078125 54.6875 
L 18.109375 54.6875 
L 18.109375 46.1875 
Q 20.953125 51.171875 25.484375 53.578125 
Q 30.03125 56 36.53125 56 
Q 37.453125 56 38.578125 55.875 
Q 39.703125 55.765625 41.0625 55.515625 
z
" id="DejaVuSans-114"/>
      <path d="M 37.109375 75.984375 
L 37.109375 68.5 
L 28.515625 68.5 
Q 23.6875 68.5 21.796875 66.546875 
Q 19.921875 64.59375 19.921875 59.515625 
L 19.921875 54.6875 
L 34.71875 54.6875 
L 34.71875 47.703125 
L 19.921875 47.703125 
L 19.921875 0 
L 10.890625 0 
L 10.890625 47.703125 
L 2.296875 47.703125 
L 2.296875 54.6875 
L 10.890625 54.6875 
L 10.890625 58.5 
Q 10.890625 67.625 15.140625 71.796875 
Q 19.390625 75.984375 28.609375 75.984375 
z
" id="DejaVuSans-102"/>
      <path d="M 4.203125 54.6875 
L 13.1875 54.6875 
L 24.421875 12.015625 
L 35.59375 54.6875 
L 46.1875 54.6875 
L 57.421875 12.015625 
L 68.609375 54.6875 
L 77.59375 54.6875 
L 63.28125 0 
L 52.6875 0 
L 40.921875 44.828125 
L 29.109375 0 
L 18.5 0 
z
" id="DejaVuSans-119"/>
     </defs>
     <g transform="translate(109 83.116562)scale(0.1 -0.1)">
      <use xlink:href="#DejaVuSans-70"/>
      <use x="57.410156" xlink:href="#DejaVuSans-114"/>
      <use x="98.492188" xlink:href="#DejaVuSans-111"/>
      <use x="159.673828" xlink:href="#DejaVuSans-109"/>
      <use x="257.085938" xlink:href="#DejaVuSans-32"/>
      <use x="288.873047" xlink:href="#DejaVuSans-102"/>
      <use x="324.078125" xlink:href="#DejaVuSans-108"/>
      <use x="351.861328" xlink:href="#DejaVuSans-111"/>
      <use x="413.042969" xlink:href="#DejaVuSans-119"/>
     </g>
    </g>
    <g id="line2d_22">
     <path d="M 81 94.294687 
L 101 94.294687 
" style="fill:none;stroke:#2ca02c;stroke-linecap:square;stroke-width:1.5;"/>
    </g>
    <g id="line2d_23"/>
    <g id="text_20">
     <!-- From level -->
     <defs>
      <path d="M 2.984375 54.6875 
L 12.5 54.6875 
L 29.59375 8.796875 
L 46.6875 54.6875 
L 56.203125 54.6875 
L 35.6875 0 
L 23.484375 0 
z
" id="DejaVuSans-118"/>
     </defs>
     <g transform="translate(109 97.794687)scale(0.1 -0.1)">
      <use xlink:href="#DejaVuSans-70"/>
      <use x="57.410156" xlink:href="#DejaVuSans-114"/>
      <use x="98.492188" xlink:href="#DejaVuSans-111"/>
      <use x="159.673828" xlink:href="#DejaVuSans-109"/>
      <use x="257.085938" xlink:href="#DejaVuSans-32"/>
      <use x="288.873047" xlink:href="#DejaVuSans-108"/>
      <use x="316.65625" xlink:href="#DejaVuSans-101"/>
      <use x="378.179688" xlink:href="#DejaVuSans-118"/>
      <use x="437.359375" xlink:href="#DejaVuSans-101"/>
      <use x="498.882812" xlink:href="#DejaVuSans-108"/>
     </g>
    </g>
   </g>
  </g>
 </g>
 <defs>
  <clipPath id="p7d62d8f8d7">
   <rect height="332.64" width="446.4" x="72" y="51.84"/>
  </clipPath>
 </defs>
</svg>
