<?xml version="1.0" encoding="utf-8" standalone="no"?>
<!DOCTYPE svg PUBLIC "-//W3C//DTD SVG 1.1//EN"
  "http://www.w3.org/Graphics/SVG/1.1/DTD/svg11.dtd">
<!-- Created with matplotlib (https://matplotlib.org/) -->
<svg height="432pt" version="1.1" viewBox="0 0 576 432" width="576pt" xmlns="http://www.w3.org/2000/svg" xmlns:xlink="http://www.w3.org/1999/xlink">
 <defs>
  <style type="text/css">
*{stroke-linecap:butt;stroke-linejoin:round;}
  </style>
 </defs>
 <g id="figure_1">
  <g id="patch_1">
   <path d="M 0 432 
L 576 432 
L 576 0 
L 0 0 
z
" style="fill:#ffffff;"/>
  </g>
  <g id="axes_1">
   <g id="patch_2">
    <path d="M 72 384.48 
L 518.4 384.48 
L 518.4 51.84 
L 72 51.84 
z
" style="fill:#ffffff;"/>
   </g>
   <g id="matplotlib.axis_1">
    <g id="xtick_1">
     <g id="line2d_1">
      <defs>
       <path d="M 0 0 
L 0 3.5 
" id="m6b574fbf1c" style="stroke:#000000;stroke-width:0.8;"/>
      </defs>
      <g>
       <use style="stroke:#000000;stroke-width:0.8;" x="92.206682" xlink:href="#m6b574fbf1c" y="384.48"/>
      </g>
     </g>
     <g id="text_1">
      <!-- 0 -->
      <defs>
       <path d="M 31.78125 66.40625 
Q 24.171875 66.40625 20.328125 58.90625 
Q 16.5 51.421875 16.5 36.375 
Q 16.5 21.390625 20.328125 13.890625 
Q 24.171875 6.390625 31.78125 6.390625 
Q 39.453125 6.390625 43.28125 13.890625 
Q 47.125 21.390625 47.125 36.375 
Q 47.125 51.421875 43.28125 58.90625 
Q 39.453125 66.40625 31.78125 66.40625 
z
M 31.78125 74.21875 
Q 44.046875 74.21875 50.515625 64.515625 
Q 56.984375 54.828125 56.984375 36.375 
Q 56.984375 17.96875 50.515625 8.265625 
Q 44.046875 -1.421875 31.78125 -1.421875 
Q 19.53125 -1.421875 13.0625 8.265625 
Q 6.59375 17.96875 6.59375 36.375 
Q 6.59375 54.828125 13.0625 64.515625 
Q 19.53125 74.21875 31.78125 74.21875 
z
" id="DejaVuSans-48"/>
      </defs>
      <g transform="translate(89.025432 399.078438)scale(0.1 -0.1)">
       <use xlink:href="#DejaVuSans-48"/>
      </g>
     </g>
    </g>
    <g id="xtick_2">
     <g id="line2d_2">
      <g>
       <use style="stroke:#000000;stroke-width:0.8;" x="174.687355" xlink:href="#m6b574fbf1c" y="384.48"/>
      </g>
     </g>
     <g id="text_2">
      <!-- 200 -->
      <defs>
       <path d="M 19.1875 8.296875 
L 53.609375 8.296875 
L 53.609375 0 
L 7.328125 0 
L 7.328125 8.296875 
Q 12.9375 14.109375 22.625 23.890625 
Q 32.328125 33.6875 34.8125 36.53125 
Q 39.546875 41.84375 41.421875 45.53125 
Q 43.3125 49.21875 43.3125 52.78125 
Q 43.3125 58.59375 39.234375 62.25 
Q 35.15625 65.921875 28.609375 65.921875 
Q 23.96875 65.921875 18.8125 64.3125 
Q 13.671875 62.703125 7.8125 59.421875 
L 7.8125 69.390625 
Q 13.765625 71.78125 18.9375 73 
Q 24.125 74.21875 28.421875 74.21875 
Q 39.75 74.21875 46.484375 68.546875 
Q 53.21875 62.890625 53.21875 53.421875 
Q 53.21875 48.921875 51.53125 44.890625 
Q 49.859375 40.875 45.40625 35.40625 
Q 44.1875 33.984375 37.640625 27.21875 
Q 31.109375 20.453125 19.1875 8.296875 
z
" id="DejaVuSans-50"/>
      </defs>
      <g transform="translate(165.143605 399.078438)scale(0.1 -0.1)">
       <use xlink:href="#DejaVuSans-50"/>
       <use x="63.623047" xlink:href="#DejaVuSans-48"/>
       <use x="127.246094" xlink:href="#DejaVuSans-48"/>
      </g>
     </g>
    </g>
    <g id="xtick_3">
     <g id="line2d_3">
      <g>
       <use style="stroke:#000000;stroke-width:0.8;" x="257.168027" xlink:href="#m6b574fbf1c" y="384.48"/>
      </g>
     </g>
     <g id="text_3">
      <!-- 400 -->
      <defs>
       <path d="M 37.796875 64.3125 
L 12.890625 25.390625 
L 37.796875 25.390625 
z
M 35.203125 72.90625 
L 47.609375 72.90625 
L 47.609375 25.390625 
L 58.015625 25.390625 
L 58.015625 17.1875 
L 47.609375 17.1875 
L 47.609375 0 
L 37.796875 0 
L 37.796875 17.1875 
L 4.890625 17.1875 
L 4.890625 26.703125 
z
" id="DejaVuSans-52"/>
      </defs>
      <g transform="translate(247.624277 399.078438)scale(0.1 -0.1)">
       <use xlink:href="#DejaVuSans-52"/>
       <use x="63.623047" xlink:href="#DejaVuSans-48"/>
       <use x="127.246094" xlink:href="#DejaVuSans-48"/>
      </g>
     </g>
    </g>
    <g id="xtick_4">
     <g id="line2d_4">
      <g>
       <use style="stroke:#000000;stroke-width:0.8;" x="339.648699" xlink:href="#m6b574fbf1c" y="384.48"/>
      </g>
     </g>
     <g id="text_4">
      <!-- 600 -->
      <defs>
       <path d="M 33.015625 40.375 
Q 26.375 40.375 22.484375 35.828125 
Q 18.609375 31.296875 18.609375 23.390625 
Q 18.609375 15.53125 22.484375 10.953125 
Q 26.375 6.390625 33.015625 6.390625 
Q 39.65625 6.390625 43.53125 10.953125 
Q 47.40625 15.53125 47.40625 23.390625 
Q 47.40625 31.296875 43.53125 35.828125 
Q 39.65625 40.375 33.015625 40.375 
z
M 52.59375 71.296875 
L 52.59375 62.3125 
Q 48.875 64.0625 45.09375 64.984375 
Q 41.3125 65.921875 37.59375 65.921875 
Q 27.828125 65.921875 22.671875 59.328125 
Q 17.53125 52.734375 16.796875 39.40625 
Q 19.671875 43.65625 24.015625 45.921875 
Q 28.375 48.1875 33.59375 48.1875 
Q 44.578125 48.1875 50.953125 41.515625 
Q 57.328125 34.859375 57.328125 23.390625 
Q 57.328125 12.15625 50.6875 5.359375 
Q 44.046875 -1.421875 33.015625 -1.421875 
Q 20.359375 -1.421875 13.671875 8.265625 
Q 6.984375 17.96875 6.984375 36.375 
Q 6.984375 53.65625 15.1875 63.9375 
Q 23.390625 74.21875 37.203125 74.21875 
Q 40.921875 74.21875 44.703125 73.484375 
Q 48.484375 72.75 52.59375 71.296875 
z
" id="DejaVuSans-54"/>
      </defs>
      <g transform="translate(330.104949 399.078438)scale(0.1 -0.1)">
       <use xlink:href="#DejaVuSans-54"/>
       <use x="63.623047" xlink:href="#DejaVuSans-48"/>
       <use x="127.246094" xlink:href="#DejaVuSans-48"/>
      </g>
     </g>
    </g>
    <g id="xtick_5">
     <g id="line2d_5">
      <g>
       <use style="stroke:#000000;stroke-width:0.8;" x="422.129371" xlink:href="#m6b574fbf1c" y="384.48"/>
      </g>
     </g>
     <g id="text_5">
      <!-- 800 -->
      <defs>
       <path d="M 31.78125 34.625 
Q 24.75 34.625 20.71875 30.859375 
Q 16.703125 27.09375 16.703125 20.515625 
Q 16.703125 13.921875 20.71875 10.15625 
Q 24.75 6.390625 31.78125 6.390625 
Q 38.8125 6.390625 42.859375 10.171875 
Q 46.921875 13.96875 46.921875 20.515625 
Q 46.921875 27.09375 42.890625 30.859375 
Q 38.875 34.625 31.78125 34.625 
z
M 21.921875 38.8125 
Q 15.578125 40.375 12.03125 44.71875 
Q 8.5 49.078125 8.5 55.328125 
Q 8.5 64.0625 14.71875 69.140625 
Q 20.953125 74.21875 31.78125 74.21875 
Q 42.671875 74.21875 48.875 69.140625 
Q 55.078125 64.0625 55.078125 55.328125 
Q 55.078125 49.078125 51.53125 44.71875 
Q 48 40.375 41.703125 38.8125 
Q 48.828125 37.15625 52.796875 32.3125 
Q 56.78125 27.484375 56.78125 20.515625 
Q 56.78125 9.90625 50.3125 4.234375 
Q 43.84375 -1.421875 31.78125 -1.421875 
Q 19.734375 -1.421875 13.25 4.234375 
Q 6.78125 9.90625 6.78125 20.515625 
Q 6.78125 27.484375 10.78125 32.3125 
Q 14.796875 37.15625 21.921875 38.8125 
z
M 18.3125 54.390625 
Q 18.3125 48.734375 21.84375 45.5625 
Q 25.390625 42.390625 31.78125 42.390625 
Q 38.140625 42.390625 41.71875 45.5625 
Q 45.3125 48.734375 45.3125 54.390625 
Q 45.3125 60.0625 41.71875 63.234375 
Q 38.140625 66.40625 31.78125 66.40625 
Q 25.390625 66.40625 21.84375 63.234375 
Q 18.3125 60.0625 18.3125 54.390625 
z
" id="DejaVuSans-56"/>
      </defs>
      <g transform="translate(412.585621 399.078438)scale(0.1 -0.1)">
       <use xlink:href="#DejaVuSans-56"/>
       <use x="63.623047" xlink:href="#DejaVuSans-48"/>
       <use x="127.246094" xlink:href="#DejaVuSans-48"/>
      </g>
     </g>
    </g>
    <g id="xtick_6">
     <g id="line2d_6">
      <g>
       <use style="stroke:#000000;stroke-width:0.8;" x="504.610044" xlink:href="#m6b574fbf1c" y="384.48"/>
      </g>
     </g>
     <g id="text_6">
      <!-- 1000 -->
      <defs>
       <path d="M 12.40625 8.296875 
L 28.515625 8.296875 
L 28.515625 63.921875 
L 10.984375 60.40625 
L 10.984375 69.390625 
L 28.421875 72.90625 
L 38.28125 72.90625 
L 38.28125 8.296875 
L 54.390625 8.296875 
L 54.390625 0 
L 12.40625 0 
z
" id="DejaVuSans-49"/>
      </defs>
      <g transform="translate(491.885044 399.078438)scale(0.1 -0.1)">
       <use xlink:href="#DejaVuSans-49"/>
       <use x="63.623047" xlink:href="#DejaVuSans-48"/>
       <use x="127.246094" xlink:href="#DejaVuSans-48"/>
       <use x="190.869141" xlink:href="#DejaVuSans-48"/>
      </g>
     </g>
    </g>
    <g id="text_7">
     <!-- Time [s] -->
     <defs>
      <path d="M -0.296875 72.90625 
L 61.375 72.90625 
L 61.375 64.59375 
L 35.5 64.59375 
L 35.5 0 
L 25.59375 0 
L 25.59375 64.59375 
L -0.296875 64.59375 
z
" id="DejaVuSans-84"/>
      <path d="M 9.421875 54.6875 
L 18.40625 54.6875 
L 18.40625 0 
L 9.421875 0 
z
M 9.421875 75.984375 
L 18.40625 75.984375 
L 18.40625 64.59375 
L 9.421875 64.59375 
z
" id="DejaVuSans-105"/>
      <path d="M 52 44.1875 
Q 55.375 50.25 60.0625 53.125 
Q 64.75 56 71.09375 56 
Q 79.640625 56 84.28125 50.015625 
Q 88.921875 44.046875 88.921875 33.015625 
L 88.921875 0 
L 79.890625 0 
L 79.890625 32.71875 
Q 79.890625 40.578125 77.09375 44.375 
Q 74.3125 48.1875 68.609375 48.1875 
Q 61.625 48.1875 57.5625 43.546875 
Q 53.515625 38.921875 53.515625 30.90625 
L 53.515625 0 
L 44.484375 0 
L 44.484375 32.71875 
Q 44.484375 40.625 41.703125 44.40625 
Q 38.921875 48.1875 33.109375 48.1875 
Q 26.21875 48.1875 22.15625 43.53125 
Q 18.109375 38.875 18.109375 30.90625 
L 18.109375 0 
L 9.078125 0 
L 9.078125 54.6875 
L 18.109375 54.6875 
L 18.109375 46.1875 
Q 21.1875 51.21875 25.484375 53.609375 
Q 29.78125 56 35.6875 56 
Q 41.65625 56 45.828125 52.96875 
Q 50 49.953125 52 44.1875 
z
" id="DejaVuSans-109"/>
      <path d="M 56.203125 29.59375 
L 56.203125 25.203125 
L 14.890625 25.203125 
Q 15.484375 15.921875 20.484375 11.0625 
Q 25.484375 6.203125 34.421875 6.203125 
Q 39.59375 6.203125 44.453125 7.46875 
Q 49.3125 8.734375 54.109375 11.28125 
L 54.109375 2.78125 
Q 49.265625 0.734375 44.1875 -0.34375 
Q 39.109375 -1.421875 33.890625 -1.421875 
Q 20.796875 -1.421875 13.15625 6.1875 
Q 5.515625 13.8125 5.515625 26.8125 
Q 5.515625 40.234375 12.765625 48.109375 
Q 20.015625 56 32.328125 56 
Q 43.359375 56 49.78125 48.890625 
Q 56.203125 41.796875 56.203125 29.59375 
z
M 47.21875 32.234375 
Q 47.125 39.59375 43.09375 43.984375 
Q 39.0625 48.390625 32.421875 48.390625 
Q 24.90625 48.390625 20.390625 44.140625 
Q 15.875 39.890625 15.1875 32.171875 
z
" id="DejaVuSans-101"/>
      <path id="DejaVuSans-32"/>
      <path d="M 8.59375 75.984375 
L 29.296875 75.984375 
L 29.296875 69 
L 17.578125 69 
L 17.578125 -6.203125 
L 29.296875 -6.203125 
L 29.296875 -13.1875 
L 8.59375 -13.1875 
z
" id="DejaVuSans-91"/>
      <path d="M 44.28125 53.078125 
L 44.28125 44.578125 
Q 40.484375 46.53125 36.375 47.5 
Q 32.28125 48.484375 27.875 48.484375 
Q 21.1875 48.484375 17.84375 46.4375 
Q 14.5 44.390625 14.5 40.28125 
Q 14.5 37.15625 16.890625 35.375 
Q 19.28125 33.59375 26.515625 31.984375 
L 29.59375 31.296875 
Q 39.15625 29.25 43.1875 25.515625 
Q 47.21875 21.78125 47.21875 15.09375 
Q 47.21875 7.46875 41.1875 3.015625 
Q 35.15625 -1.421875 24.609375 -1.421875 
Q 20.21875 -1.421875 15.453125 -0.5625 
Q 10.6875 0.296875 5.421875 2 
L 5.421875 11.28125 
Q 10.40625 8.6875 15.234375 7.390625 
Q 20.0625 6.109375 24.8125 6.109375 
Q 31.15625 6.109375 34.5625 8.28125 
Q 37.984375 10.453125 37.984375 14.40625 
Q 37.984375 18.0625 35.515625 20.015625 
Q 33.0625 21.96875 24.703125 23.78125 
L 21.578125 24.515625 
Q 13.234375 26.265625 9.515625 29.90625 
Q 5.8125 33.546875 5.8125 39.890625 
Q 5.8125 47.609375 11.28125 51.796875 
Q 16.75 56 26.8125 56 
Q 31.78125 56 36.171875 55.265625 
Q 40.578125 54.546875 44.28125 53.078125 
z
" id="DejaVuSans-115"/>
      <path d="M 30.421875 75.984375 
L 30.421875 -13.1875 
L 9.71875 -13.1875 
L 9.71875 -6.203125 
L 21.390625 -6.203125 
L 21.390625 69 
L 9.71875 69 
L 9.71875 75.984375 
z
" id="DejaVuSans-93"/>
     </defs>
     <g transform="translate(274.717187 412.756563)scale(0.1 -0.1)">
      <use xlink:href="#DejaVuSans-84"/>
      <use x="61.037109" xlink:href="#DejaVuSans-105"/>
      <use x="88.820312" xlink:href="#DejaVuSans-109"/>
      <use x="186.232422" xlink:href="#DejaVuSans-101"/>
      <use x="247.755859" xlink:href="#DejaVuSans-32"/>
      <use x="279.542969" xlink:href="#DejaVuSans-91"/>
      <use x="318.556641" xlink:href="#DejaVuSans-115"/>
      <use x="370.65625" xlink:href="#DejaVuSans-93"/>
     </g>
    </g>
   </g>
   <g id="matplotlib.axis_2">
    <g id="ytick_1">
     <g id="line2d_7">
      <defs>
       <path d="M 0 0 
L -3.5 0 
" id="m4394fc2997" style="stroke:#000000;stroke-width:0.8;"/>
      </defs>
      <g>
       <use style="stroke:#000000;stroke-width:0.8;" x="72" xlink:href="#m4394fc2997" y="384.48"/>
      </g>
     </g>
     <g id="text_8">
      <!-- 0 -->
      <g transform="translate(58.6375 388.279219)scale(0.1 -0.1)">
       <use xlink:href="#DejaVuSans-48"/>
      </g>
     </g>
    </g>
    <g id="ytick_2">
     <g id="line2d_8">
      <g>
       <use style="stroke:#000000;stroke-width:0.8;" x="72" xlink:href="#m4394fc2997" y="336.96"/>
      </g>
     </g>
     <g id="text_9">
      <!-- 5 -->
      <defs>
       <path d="M 10.796875 72.90625 
L 49.515625 72.90625 
L 49.515625 64.59375 
L 19.828125 64.59375 
L 19.828125 46.734375 
Q 21.96875 47.46875 24.109375 47.828125 
Q 26.265625 48.1875 28.421875 48.1875 
Q 40.625 48.1875 47.75 41.5 
Q 54.890625 34.8125 54.890625 23.390625 
Q 54.890625 11.625 47.5625 5.09375 
Q 40.234375 -1.421875 26.90625 -1.421875 
Q 22.3125 -1.421875 17.546875 -0.640625 
Q 12.796875 0.140625 7.71875 1.703125 
L 7.71875 11.625 
Q 12.109375 9.234375 16.796875 8.0625 
Q 21.484375 6.890625 26.703125 6.890625 
Q 35.15625 6.890625 40.078125 11.328125 
Q 45.015625 15.765625 45.015625 23.390625 
Q 45.015625 31 40.078125 35.4375 
Q 35.15625 39.890625 26.703125 39.890625 
Q 22.75 39.890625 18.8125 39.015625 
Q 14.890625 38.140625 10.796875 36.28125 
z
" id="DejaVuSans-53"/>
      </defs>
      <g transform="translate(58.6375 340.759219)scale(0.1 -0.1)">
       <use xlink:href="#DejaVuSans-53"/>
      </g>
     </g>
    </g>
    <g id="ytick_3">
     <g id="line2d_9">
      <g>
       <use style="stroke:#000000;stroke-width:0.8;" x="72" xlink:href="#m4394fc2997" y="289.44"/>
      </g>
     </g>
     <g id="text_10">
      <!-- 10 -->
      <g transform="translate(52.275 293.239219)scale(0.1 -0.1)">
       <use xlink:href="#DejaVuSans-49"/>
       <use x="63.623047" xlink:href="#DejaVuSans-48"/>
      </g>
     </g>
    </g>
    <g id="ytick_4">
     <g id="line2d_10">
      <g>
       <use style="stroke:#000000;stroke-width:0.8;" x="72" xlink:href="#m4394fc2997" y="241.92"/>
      </g>
     </g>
     <g id="text_11">
      <!-- 15 -->
      <g transform="translate(52.275 245.719219)scale(0.1 -0.1)">
       <use xlink:href="#DejaVuSans-49"/>
       <use x="63.623047" xlink:href="#DejaVuSans-53"/>
      </g>
     </g>
    </g>
    <g id="ytick_5">
     <g id="line2d_11">
      <g>
       <use style="stroke:#000000;stroke-width:0.8;" x="72" xlink:href="#m4394fc2997" y="194.4"/>
      </g>
     </g>
     <g id="text_12">
      <!-- 20 -->
      <g transform="translate(52.275 198.199219)scale(0.1 -0.1)">
       <use xlink:href="#DejaVuSans-50"/>
       <use x="63.623047" xlink:href="#DejaVuSans-48"/>
      </g>
     </g>
    </g>
    <g id="ytick_6">
     <g id="line2d_12">
      <g>
       <use style="stroke:#000000;stroke-width:0.8;" x="72" xlink:href="#m4394fc2997" y="146.88"/>
      </g>
     </g>
     <g id="text_13">
      <!-- 25 -->
      <g transform="translate(52.275 150.679219)scale(0.1 -0.1)">
       <use xlink:href="#DejaVuSans-50"/>
       <use x="63.623047" xlink:href="#DejaVuSans-53"/>
      </g>
     </g>
    </g>
    <g id="ytick_7">
     <g id="line2d_13">
      <g>
       <use style="stroke:#000000;stroke-width:0.8;" x="72" xlink:href="#m4394fc2997" y="99.36"/>
      </g>
     </g>
     <g id="text_14">
      <!-- 30 -->
      <defs>
       <path d="M 40.578125 39.3125 
Q 47.65625 37.796875 51.625 33 
Q 55.609375 28.21875 55.609375 21.1875 
Q 55.609375 10.40625 48.1875 4.484375 
Q 40.765625 -1.421875 27.09375 -1.421875 
Q 22.515625 -1.421875 17.65625 -0.515625 
Q 12.796875 0.390625 7.625 2.203125 
L 7.625 11.71875 
Q 11.71875 9.328125 16.59375 8.109375 
Q 21.484375 6.890625 26.8125 6.890625 
Q 36.078125 6.890625 40.9375 10.546875 
Q 45.796875 14.203125 45.796875 21.1875 
Q 45.796875 27.640625 41.28125 31.265625 
Q 36.765625 34.90625 28.71875 34.90625 
L 20.21875 34.90625 
L 20.21875 43.015625 
L 29.109375 43.015625 
Q 36.375 43.015625 40.234375 45.921875 
Q 44.09375 48.828125 44.09375 54.296875 
Q 44.09375 59.90625 40.109375 62.90625 
Q 36.140625 65.921875 28.71875 65.921875 
Q 24.65625 65.921875 20.015625 65.03125 
Q 15.375 64.15625 9.8125 62.3125 
L 9.8125 71.09375 
Q 15.4375 72.65625 20.34375 73.4375 
Q 25.25 74.21875 29.59375 74.21875 
Q 40.828125 74.21875 47.359375 69.109375 
Q 53.90625 64.015625 53.90625 55.328125 
Q 53.90625 49.265625 50.4375 45.09375 
Q 46.96875 40.921875 40.578125 39.3125 
z
" id="DejaVuSans-51"/>
      </defs>
      <g transform="translate(52.275 103.159219)scale(0.1 -0.1)">
       <use xlink:href="#DejaVuSans-51"/>
       <use x="63.623047" xlink:href="#DejaVuSans-48"/>
      </g>
     </g>
    </g>
    <g id="ytick_8">
     <g id="line2d_14">
      <g>
       <use style="stroke:#000000;stroke-width:0.8;" x="72" xlink:href="#m4394fc2997" y="51.84"/>
      </g>
     </g>
     <g id="text_15">
      <!-- 35 -->
      <g transform="translate(52.275 55.639219)scale(0.1 -0.1)">
       <use xlink:href="#DejaVuSans-51"/>
       <use x="63.623047" xlink:href="#DejaVuSans-53"/>
      </g>
     </g>
    </g>
    <g id="text_16">
     <!-- Error [%] -->
     <defs>
      <path d="M 9.8125 72.90625 
L 55.90625 72.90625 
L 55.90625 64.59375 
L 19.671875 64.59375 
L 19.671875 43.015625 
L 54.390625 43.015625 
L 54.390625 34.71875 
L 19.671875 34.71875 
L 19.671875 8.296875 
L 56.78125 8.296875 
L 56.78125 0 
L 9.8125 0 
z
" id="DejaVuSans-69"/>
      <path d="M 41.109375 46.296875 
Q 39.59375 47.171875 37.8125 47.578125 
Q 36.03125 48 33.890625 48 
Q 26.265625 48 22.1875 43.046875 
Q 18.109375 38.09375 18.109375 28.8125 
L 18.109375 0 
L 9.078125 0 
L 9.078125 54.6875 
L 18.109375 54.6875 
L 18.109375 46.1875 
Q 20.953125 51.171875 25.484375 53.578125 
Q 30.03125 56 36.53125 56 
Q 37.453125 56 38.578125 55.875 
Q 39.703125 55.765625 41.0625 55.515625 
z
" id="DejaVuSans-114"/>
      <path d="M 30.609375 48.390625 
Q 23.390625 48.390625 19.1875 42.75 
Q 14.984375 37.109375 14.984375 27.296875 
Q 14.984375 17.484375 19.15625 11.84375 
Q 23.34375 6.203125 30.609375 6.203125 
Q 37.796875 6.203125 41.984375 11.859375 
Q 46.1875 17.53125 46.1875 27.296875 
Q 46.1875 37.015625 41.984375 42.703125 
Q 37.796875 48.390625 30.609375 48.390625 
z
M 30.609375 56 
Q 42.328125 56 49.015625 48.375 
Q 55.71875 40.765625 55.71875 27.296875 
Q 55.71875 13.875 49.015625 6.21875 
Q 42.328125 -1.421875 30.609375 -1.421875 
Q 18.84375 -1.421875 12.171875 6.21875 
Q 5.515625 13.875 5.515625 27.296875 
Q 5.515625 40.765625 12.171875 48.375 
Q 18.84375 56 30.609375 56 
z
" id="DejaVuSans-111"/>
      <path d="M 72.703125 32.078125 
Q 68.453125 32.078125 66.03125 28.46875 
Q 63.625 24.859375 63.625 18.40625 
Q 63.625 12.0625 66.03125 8.421875 
Q 68.453125 4.78125 72.703125 4.78125 
Q 76.859375 4.78125 79.265625 8.421875 
Q 81.6875 12.0625 81.6875 18.40625 
Q 81.6875 24.8125 79.265625 28.4375 
Q 76.859375 32.078125 72.703125 32.078125 
z
M 72.703125 38.28125 
Q 80.421875 38.28125 84.953125 32.90625 
Q 89.5 27.546875 89.5 18.40625 
Q 89.5 9.28125 84.9375 3.921875 
Q 80.375 -1.421875 72.703125 -1.421875 
Q 64.890625 -1.421875 60.34375 3.921875 
Q 55.8125 9.28125 55.8125 18.40625 
Q 55.8125 27.59375 60.375 32.9375 
Q 64.9375 38.28125 72.703125 38.28125 
z
M 22.3125 68.015625 
Q 18.109375 68.015625 15.6875 64.375 
Q 13.28125 60.75 13.28125 54.390625 
Q 13.28125 47.953125 15.671875 44.328125 
Q 18.0625 40.71875 22.3125 40.71875 
Q 26.5625 40.71875 28.96875 44.328125 
Q 31.390625 47.953125 31.390625 54.390625 
Q 31.390625 60.6875 28.953125 64.34375 
Q 26.515625 68.015625 22.3125 68.015625 
z
M 66.40625 74.21875 
L 74.21875 74.21875 
L 28.609375 -1.421875 
L 20.796875 -1.421875 
z
M 22.3125 74.21875 
Q 30.03125 74.21875 34.609375 68.875 
Q 39.203125 63.53125 39.203125 54.390625 
Q 39.203125 45.171875 34.640625 39.84375 
Q 30.078125 34.515625 22.3125 34.515625 
Q 14.546875 34.515625 10.03125 39.859375 
Q 5.515625 45.21875 5.515625 54.390625 
Q 5.515625 63.484375 10.046875 68.84375 
Q 14.59375 74.21875 22.3125 74.21875 
z
" id="DejaVuSans-37"/>
     </defs>
     <g transform="translate(46.195312 240.784219)rotate(-90)scale(0.1 -0.1)">
      <use xlink:href="#DejaVuSans-69"/>
      <use x="63.183594" xlink:href="#DejaVuSans-114"/>
      <use x="104.28125" xlink:href="#DejaVuSans-114"/>
      <use x="145.363281" xlink:href="#DejaVuSans-111"/>
      <use x="206.544922" xlink:href="#DejaVuSans-114"/>
      <use x="247.658203" xlink:href="#DejaVuSans-32"/>
      <use x="279.445312" xlink:href="#DejaVuSans-91"/>
      <use x="318.458984" xlink:href="#DejaVuSans-37"/>
      <use x="413.478516" xlink:href="#DejaVuSans-93"/>
     </g>
    </g>
   </g>
   <g id="line2d_15">
    <path clip-path="url(#p9a591fa84a)" d="M 92.363724 -1 
L 92.519272 433 
M 92.732834 433 
L 92.772351 -1 
M 92.919343 -1 
L 93.196782 190.686505 
L 93.36226 89.253943 
L 93.428628 -1 
M 93.484285 -1 
L 93.774644 131.7617 
L 93.857293 133.141923 
L 94.104082 45.981242 
L 94.268483 75.462804 
L 94.51694 134.165901 
L 94.596345 -1 
M 94.611927 -1 
L 95.011884 100.351636 
L 95.176186 66.708767 
L 95.258757 23.565021 
L 95.589085 87.825471 
L 95.670792 89.31949 
L 95.918641 53.273112 
L 96.000809 55.28424 
L 96.329847 94.119415 
L 96.412528 24.263258 
L 96.494613 38.249037 
L 96.742372 70.790261 
L 96.825803 69.893249 
L 97.07306 44.48008 
L 97.238622 56.480731 
L 97.484753 78.01972 
L 97.567462 24.789153 
L 97.648935 35.683467 
L 97.898068 63.334459 
L 97.979052 64.418848 
L 98.061599 58.013718 
L 98.143954 24.045835 
L 98.226753 33.993568 
L 98.55761 61.76495 
L 98.804452 41.973171 
L 98.886448 43.191563 
L 99.215576 68.38539 
L 99.298927 20.333335 
L 99.381515 32.789768 
L 99.710578 61.816549 
L 99.793503 59.876321 
L 99.875769 53.653249 
L 99.958967 32.98405 
L 100.041379 39.368783 
L 100.370614 60.761947 
L 100.452419 56.238181 
L 100.534826 31.819154 
L 100.618104 39.041664 
L 100.925185 62.464706 
L 100.974392 60.903291 
L 101.195534 44.619083 
L 101.276931 45.458269 
L 101.44301 54.312522 
L 101.607159 64.163619 
L 101.690341 26.998902 
L 101.772818 36.431687 
L 102.101311 58.275962 
L 102.183767 56.816944 
L 102.26716 52.204672 
L 102.349863 35.338059 
L 102.761263 58.729252 
L 102.844654 55.349596 
L 102.977475 37.203105 
L 103.01275 40.142862 
L 103.339154 56.510495 
L 103.504112 49.205548 
L 103.587242 38.831469 
L 103.915776 56.323028 
L 103.998731 56.063085 
L 104.080415 51.169312 
L 104.163165 38.587176 
L 104.411408 52.931756 
L 113.550115 56.420787 
L 113.720246 58.811492 
L 113.802918 46.139266 
L 113.886541 49.004356 
L 114.133981 56.02979 
L 114.21533 55.84645 
L 114.462449 50.525528 
L 114.544994 50.882102 
L 114.876275 58.089824 
L 114.956943 44.632905 
L 115.040164 47.333757 
L 115.370322 55.737489 
L 115.535209 52.194208 
L 115.617545 47.031584 
L 115.947463 55.677692 
L 116.028895 55.511866 
L 116.277471 50.635061 
L 116.441473 53.046858 
L 116.68845 58.008986 
L 116.770514 45.564127 
L 116.853883 48.073411 
L 117.236846 57.183187 
L 117.430678 47.339326 
L 117.760453 55.363956 
L 117.842947 55.236759 
L 118.090478 50.681229 
L 118.255046 52.937905 
L 118.502513 57.56599 
L 118.58667 46.02801 
L 118.666804 48.291208 
L 118.997952 55.576587 
L 119.163602 52.127463 
L 119.244661 48.019123 
L 119.574561 55.516071 
L 119.656156 54.979177 
L 119.904974 50.754517 
L 119.9872 51.42111 
L 120.317055 57.582009 
L 120.399579 46.738169 
L 120.481294 48.892945 
L 120.811392 55.312597 
L 120.975358 52.423373 
L 121.057998 48.600818 
L 121.447841 56.910617 
L 121.718715 51.167496 
L 121.800602 51.785787 
L 122.130905 57.581654 
L 122.212825 47.370722 
L 122.295335 49.769712 
L 122.625258 55.806502 
L 122.708516 55.35597 
L 122.955319 51.850887 
L 123.202335 55.758145 
L 123.366326 57.283176 
L 123.515496 49.826422 
L 123.562902 51.102394 
L 123.779617 55.715588 
L 123.861857 55.606566 
L 123.94517 54.489179 
L 124.027428 47.958396 
L 124.10941 50.212963 
L 124.355937 55.316476 
L 124.43863 55.219316 
L 124.686247 51.254409 
L 124.769826 51.51725 
L 125.181497 56.991518 
L 125.262871 49.008687 
L 125.345293 50.867252 
L 125.613124 55.855492 
L 125.758956 54.006086 
L 125.842034 52.313709 
L 130.530626 56.144863 
L 130.619012 48.560457 
L 130.701768 50.163575 
L 131.031624 54.884092 
L 131.360644 51.499144 
L 131.525561 53.549058 
L 131.77452 56.365331 
L 131.856545 49.451108 
L 131.938088 50.987934 
L 132.270229 55.058 
L 132.350628 54.132092 
L 132.433177 48.966399 
L 132.515386 50.489976 
L 132.846302 55.016476 
L 133.011452 52.998169 
L 133.092847 50.009299 
L 133.422428 54.976927 
L 133.504853 54.897825 
L 133.752976 52.066572 
L 134.000157 54.701736 
L 134.164367 56.358094 
L 134.247274 49.082437 
L 134.329339 50.538412 
L 134.658818 54.849324 
L 134.988934 51.766514 
L 135.401297 56.200291 
L 135.484735 49.883662 
L 135.567018 51.303228 
L 135.813151 54.808636 
L 135.895947 54.739508 
L 136.143239 52.0523 
L 136.22553 52.227562 
L 136.556965 55.897139 
L 136.638389 48.999549 
L 136.721288 50.388433 
L 137.050616 54.707445 
L 137.214644 52.6244 
L 137.297542 50.175328 
L 137.628045 54.693317 
L 137.710653 54.385562 
L 137.957678 51.805783 
L 138.04032 52.214623 
L 138.369001 55.938516 
L 138.451213 49.549378 
L 138.534755 50.661763 
L 138.864008 54.812423 
L 138.947181 54.287369 
L 139.03009 48.704798 
L 139.112183 50.468783 
L 139.44183 54.802727 
L 139.606833 53.293095 
L 139.688892 50.045406 
L 140.017934 54.543326 
L 140.161027 55.489648 
L 140.216257 54.162195 
L 140.278949 49.803791 
L 140.348724 50.921151 
L 140.678216 54.470977 
L 141.007987 51.768386 
L 141.419841 55.649799 
L 141.502207 50.312702 
L 141.584609 51.561372 
L 141.83242 54.661664 
L 141.915869 54.609337 
L 141.997146 53.65747 
L 142.079516 49.91903 
L 142.409058 54.422953 
L 142.49173 54.362074 
L 142.739486 51.821342 
L 147.342787 53.037475 
L 147.518938 51.485613 
L 147.601244 51.623451 
L 147.931747 54.714747 
L 148.013636 48.469851 
L 148.097135 50.154218 
L 148.426139 53.967486 
L 148.506432 53.69274 
L 148.754868 51.620115 
L 148.919681 52.65315 
L 149.168812 54.791681 
L 149.249867 49.607223 
L 149.332026 50.680282 
L 149.662455 53.673651 
L 149.993123 51.400727 
L 150.322729 54.541148 
L 150.405255 48.560197 
L 150.487193 49.97524 
L 150.816744 53.451961 
L 150.899439 53.399468 
L 150.981729 52.606097 
L 151.064317 49.992987 
L 151.393816 53.435225 
L 151.476446 53.565554 
L 151.557767 52.951476 
L 151.64077 49.46269 
L 151.722836 50.491388 
L 152.053319 53.545853 
L 152.301608 51.236479 
L 152.382843 51.352646 
L 152.795719 54.501566 
L 152.878005 50.171541 
L 152.960056 51.003377 
L 153.206527 53.502111 
L 153.290737 53.644508 
L 153.373341 52.884304 
L 153.455236 49.662748 
L 153.537726 50.665642 
L 153.784573 53.495335 
L 153.867241 53.445035 
L 154.116116 51.383879 
L 154.197553 51.498514 
L 154.609937 54.551147 
L 154.751158 50.753473 
L 154.812142 51.525894 
L 155.022478 53.597053 
L 155.105036 53.546513 
L 155.187415 52.978166 
L 155.269939 49.853728 
L 155.352622 50.830045 
L 155.681936 53.528372 
L 155.928428 51.501706 
L 156.011525 51.629034 
L 156.176215 52.881951 
L 156.422979 54.417156 
L 156.506396 50.174535 
L 156.588052 51.122857 
L 156.834233 53.478678 
L 156.91756 53.604683 
L 157.000648 52.891681 
L 157.083552 50.023824 
L 157.166245 50.807723 
L 157.495409 53.429392 
L 157.74286 51.468567 
L 157.824455 51.578286 
L 158.237781 54.471798 
L 158.318898 50.322495 
L 158.401921 51.257835 
L 158.649931 53.566727 
L 158.731894 53.676534 
L 158.870046 53.493525 
L 158.935596 50.378328 
L 159.00376 51.168068 
L 159.309099 53.661066 
L 159.639687 51.711206 
L 164.239621 53.070675 
L 164.334381 50.439659 
L 164.416854 51.143456 
L 164.664545 53.556509 
L 164.747156 53.513173 
L 164.911557 52.377429 
L 165.077621 51.856733 
L 165.490359 54.458843 
L 165.572186 50.722826 
L 165.654619 51.56149 
L 165.902129 53.639519 
L 165.984138 53.738879 
L 166.06616 53.103843 
L 166.148667 50.435137 
L 166.231466 51.269863 
L 166.560661 53.572785 
L 166.644491 53.249292 
L 166.808567 51.851745 
L 166.891507 51.958984 
L 167.055478 53.024179 
L 167.302917 54.487389 
L 167.385942 50.850247 
L 167.468181 51.524049 
L 167.797625 53.935682 
L 167.880392 53.464623 
L 167.962592 50.427905 
L 168.045625 51.386592 
L 168.375035 53.77915 
L 168.539202 52.693826 
L 168.621869 51.100691 
L 168.951664 53.760202 
L 169.037341 53.743733 
L 169.28259 52.195169 
L 169.446805 52.949076 
L 169.694351 54.508269 
L 169.775867 50.554357 
L 169.858668 51.489053 
L 170.188594 53.96959 
L 170.354045 52.918482 
L 170.435742 51.215459 
L 170.76526 53.94996 
L 170.84796 53.910218 
L 171.094884 52.40885 
L 171.177667 52.508643 
L 171.554232 55.041355 
L 171.627312 50.971196 
L 171.709256 51.742553 
L 172.012626 54.096535 
L 172.167942 53.12579 
L 172.249607 51.325017 
L 172.580628 54.009683 
L 172.66279 54.101711 
L 172.746083 53.527938 
L 172.832356 51.104208 
L 172.90963 51.828537 
L 173.246568 54.00196 
L 173.5326 52.708115 
L 173.604051 52.718696 
L 173.757006 53.613483 
L 173.981122 54.647456 
L 174.07093 51.485935 
L 174.146446 52.186596 
L 174.484559 54.072798 
L 174.559291 53.579214 
L 174.641485 51.177574 
L 174.724282 51.927435 
L 175.053255 53.993891 
L 175.386176 52.426044 
L 175.794498 54.675091 
L 175.876962 51.52723 
L 175.960633 52.143952 
L 176.28896 54.175782 
L 176.373666 53.765856 
L 176.455634 51.156712 
L 176.546016 52.073937 
L 181.217904 53.413746 
L 181.398114 52.718537 
L 181.561423 53.364106 
L 181.809847 54.718995 
L 181.89319 51.185628 
L 181.976629 51.999593 
L 182.304219 54.131327 
L 182.387276 53.978402 
L 182.551966 51.866574 
L 182.635107 52.434475 
L 182.882999 54.12772 
L 182.962588 54.191677 
L 183.044874 53.675743 
L 183.131142 51.524095 
L 183.212954 52.197765 
L 183.541385 54.187828 
L 183.871294 52.742768 
L 184.28427 54.816121 
L 184.366513 51.836558 
L 184.449215 52.507561 
L 184.778792 54.361961 
L 184.860955 53.972148 
L 184.943788 51.604617 
L 185.024927 52.260757 
L 185.355611 54.22718 
L 185.519676 53.336125 
L 185.602259 52.02789 
L 185.931904 54.322728 
L 186.01499 54.291584 
L 186.262199 52.91573 
L 186.427322 53.539929 
L 186.675634 54.939874 
L 186.757087 51.458226 
L 186.839772 52.225875 
L 187.229877 54.656739 
L 187.322427 54.572883 
L 187.405649 53.971512 
L 187.486045 52.444644 
L 187.817836 54.709656 
L 187.895773 54.645396 
L 188.145203 53.421357 
L 188.224587 53.59397 
L 188.385471 54.404539 
L 188.560788 55.307477 
L 188.641735 51.997831 
L 188.724397 52.751192 
L 189.052365 54.73877 
L 189.179142 54.762895 
L 189.264268 54.296706 
L 189.346023 52.805762 
L 189.669832 54.978005 
L 189.751105 54.935905 
L 190.003104 53.749423 
L 190.084147 53.929166 
L 190.248077 54.743932 
L 190.412341 55.560227 
L 190.497921 52.338813 
L 190.579594 53.07227 
L 190.909256 55.034006 
L 191.081919 54.353268 
L 191.167618 52.91394 
L 191.620206 55.411612 
L 191.702133 54.935394 
L 191.791487 52.980106 
L 192.199344 55.293954 
L 192.453257 54.0375 
L 192.53825 54.128781 
L 192.70254 54.92605 
L 192.946887 55.999415 
L 193.029854 53.267595 
L 193.115534 53.793265 
L 193.437025 55.873716 
L 198.112758 53.681141 
L 198.214306 53.245679 
L 198.318957 52.21769 
L 198.654955 54.159764 
L 198.740683 54.144264 
L 198.999299 53.089219 
L 199.169347 53.55924 
L 199.427025 54.836627 
L 199.510957 51.877609 
L 199.599001 52.582149 
L 200.018553 54.878727 
L 200.19053 54.244567 
L 200.2754 52.917913 
L 200.637496 55.076196 
L 200.726225 55.077251 
L 200.993005 54.082147 
L 201.079061 54.168826 
L 201.428991 55.846106 
L 201.516216 52.948929 
L 201.603427 53.637501 
L 201.970826 55.503322 
L 202.141758 54.773049 
L 202.229543 53.680814 
L 202.581079 55.645665 
L 202.669787 55.646127 
L 202.950733 54.743988 
L 203.130264 55.348462 
L 203.390064 56.496729 
L 203.476235 53.833079 
L 203.565496 54.424358 
L 203.935119 56.271939 
L 204.026441 56.090402 
L 204.200317 54.607834 
L 204.55729 56.473538 
L 204.647443 56.481289 
L 204.92112 55.550604 
L 205.096431 56.121782 
L 205.369398 57.323236 
L 205.464249 54.648989 
L 205.55391 55.233034 
L 205.921869 57.13814 
L 206.104504 56.490328 
L 206.195859 55.447894 
L 206.555497 57.394127 
L 206.643755 57.390798 
L 206.927053 56.523172 
L 207.10428 57.095032 
L 207.394166 58.368091 
L 207.489204 55.636743 
L 207.960419 58.254432 
L 208.186885 57.847944 
L 208.279149 56.728776 
L 208.662186 58.863787 
L 208.756665 58.892507 
L 208.84513 58.510352 
L 208.936497 56.918953 
L 209.30258 59.047304 
L 209.395951 59.069867 
L 209.670956 58.076185 
L 209.765608 58.19994 
L 210.30233 60.464391 
L 215.209443 53.293897 
L 215.304668 52.095694 
L 215.770831 54.243984 
L 215.864772 54.0953 
L 215.95963 52.197453 
L 216.43169 54.71517 
L 216.624138 54.265931 
L 216.71899 53.16211 
L 217.210491 55.327169 
L 217.323171 55.183927 
L 217.417422 53.471137 
L 217.816982 55.695968 
L 218.012484 55.872557 
L 218.111402 55.488173 
L 218.207637 54.398824 
L 218.685351 56.561616 
L 218.782642 56.343218 
L 218.882628 54.670725 
L 219.383106 57.106598 
L 219.479525 56.970709 
L 219.574836 56.571013 
L 219.674504 55.591976 
L 220.078597 57.721797 
L 220.175658 57.761216 
L 220.275003 57.553539 
L 220.373572 56.057134 
L 220.926661 58.638028 
L 221.038459 58.576026 
L 221.231708 57.281358 
L 221.636076 59.221981 
L 221.732569 59.342783 
L 221.845573 59.115379 
L 221.946503 57.724556 
L 222.432195 59.873885 
L 222.628736 59.364945 
L 222.790007 59.368715 
L 222.984789 59.786118 
L 223.395594 61.398998 
L 223.509285 59.312904 
L 224.020324 61.561704 
L 224.120189 61.357171 
L 224.220839 59.809134 
L 224.755879 62.244906 
L 225.058481 61.47927 
L 225.173503 61.599175 
L 225.47462 62.84324 
L 225.685701 63.496321 
L 225.786102 61.368148 
L 226.305999 63.710686 
L 226.418653 63.566253 
L 226.519521 61.78361 
L 226.951696 64.041243 
L 227.050597 64.333773 
L 227.151098 64.299728 
L 231.818304 53.106759 
L 232.023146 53.698109 
L 232.330277 54.817217 
L 232.431453 52.621759 
L 232.938995 55.002653 
L 233.040344 55.058832 
L 233.187731 55.006353 
L 233.290697 53.909358 
L 233.787562 55.924562 
L 233.888585 55.823754 
L 233.987638 54.096095 
L 234.494098 56.452281 
L 234.594516 56.425904 
L 234.698239 56.18283 
L 234.801163 55.168915 
L 235.374206 57.496442 
L 235.491204 57.387351 
L 235.591614 55.751434 
L 236.107724 58.129644 
L 236.319881 57.817336 
L 236.420446 56.874429 
L 236.833186 58.723133 
L 236.936795 58.862025 
L 237.039087 58.613102 
L 237.144633 57.237074 
L 237.671054 59.487495 
L 237.874201 59.060721 
L 237.979907 58.296656 
L 238.397496 60.15069 
L 238.502679 60.218426 
L 238.818372 59.66393 
L 238.924115 59.809752 
L 239.389675 61.55646 
L 239.49883 59.373497 
L 239.932512 61.506373 
L 240.148013 61.887252 
L 240.250574 61.640379 
L 240.35753 60.585031 
L 240.892463 62.759159 
L 240.996457 62.593533 
L 241.103998 61.092439 
L 241.588891 63.34844 
L 241.69837 63.656648 
L 241.80863 63.592148 
L 241.915785 63.289705 
L 242.025606 62.550208 
L 242.44907 64.316781 
L 242.556272 64.464028 
L 242.664119 64.31421 
L 242.771391 62.9681 
L 243.322651 65.183233 
L 243.432008 65.114255 
L 243.539486 64.81386 
L 243.644631 64.058247 
L 244.076719 65.913958 
L 248.71312 54.828941 
L 249.152445 56.274084 
L 249.25953 56.204597 
L 249.367088 54.95181 
L 250.080722 57.673298 
L 250.18979 57.610715 
L 250.301758 56.097949 
L 250.864926 58.570784 
L 251.08488 59.009296 
L 251.195518 58.812701 
L 251.304922 57.847453 
L 252.017838 60.475869 
L 252.128699 60.418533 
L 252.237164 59.03339 
L 252.926739 61.769734 
L 253.040494 61.722785 
L 253.149169 61.51743 
L 253.261716 60.704117 
L 253.827212 62.952522 
L 253.997183 63.329589 
L 254.113737 63.292397 
L 254.225018 62.058479 
L 254.895575 64.563253 
L 255.026018 64.647814 
L 255.13707 63.068882 
L 255.705352 65.518526 
L 255.928237 66.024785 
L 256.040584 65.90057 
L 256.149353 64.72839 
L 256.826361 67.307983 
L 256.939807 67.32541 
L 257.050463 65.748032 
L 257.626484 68.141379 
L 257.85116 68.580268 
L 257.966365 68.4656 
L 258.129763 67.639698 
L 258.816408 70.168064 
L 258.930536 70.117197 
L 259.044248 68.759895 
L 259.7413 71.455725 
L 259.858246 71.483461 
L 259.982339 71.33186 
L 260.10698 70.497034 
L 260.682328 72.726387 
L 260.81068 72.933435 
L 260.924258 72.878798 
L 265.60504 63.964164 
L 265.731449 64.159249 
L 265.843752 64.043708 
L 265.959362 62.710677 
L 266.580162 64.936601 
L 266.695014 65.153895 
L 266.810594 65.114487 
L 266.921238 63.830261 
L 267.505359 66.305259 
L 267.736058 66.741097 
L 267.851434 66.635252 
L 267.964772 65.683185 
L 268.560361 67.869231 
L 268.677908 68.093806 
L 268.790984 68.043646 
L 268.907039 66.843591 
L 269.62291 69.384556 
L 269.739429 69.410423 
L 269.870497 69.294254 
L 269.98663 68.546055 
L 270.441596 70.284527 
L 270.73101 70.985687 
L 270.844597 70.871143 
L 270.960901 69.865831 
L 271.664431 72.281862 
L 271.782544 72.246988 
L 271.900416 70.990567 
L 272.609153 73.480881 
L 272.726758 73.507829 
L 272.846953 73.350976 
L 272.965146 72.674251 
L 273.450158 74.501529 
L 273.695251 74.974124 
L 273.812761 74.871254 
L 273.930706 73.936922 
L 274.652477 76.328055 
L 274.769154 76.349878 
L 274.889032 75.038303 
L 275.60559 77.595146 
L 275.72597 77.693143 
L 275.846875 77.536534 
L 275.965584 76.669533 
L 276.578395 78.922471 
L 276.698624 79.083039 
L 276.817295 79.045955 
L 276.936622 77.925449 
L 277.605388 80.364688 
L 277.727214 80.593689 
L 277.84696 80.559388 
L 282.581838 70.160188 
L 283.081523 71.452938 
L 283.201282 71.305304 
L 283.325195 70.508397 
L 284.117248 72.943074 
L 284.237225 72.916122 
L 284.361023 71.817119 
L 285.101613 74.134379 
L 285.223973 74.114567 
L 285.346816 72.892994 
L 285.969335 75.116178 
L 286.215929 75.563502 
L 286.337488 75.479951 
L 286.462271 74.625637 
L 287.082465 76.714532 
L 287.208321 76.945465 
L 287.330062 76.921913 
L 287.454922 75.827488 
L 288.14255 78.129754 
L 288.38998 78.454922 
L 288.51637 78.325379 
L 288.64346 77.658417 
L 289.275516 79.772921 
L 289.402981 79.886493 
L 289.52991 79.817944 
L 289.671625 78.778606 
L 290.597898 81.83905 
L 290.721092 81.216935 
L 290.972518 81.970084 
L 291.221711 82.175393 
L 291.477649 82.642057 
L 291.74497 82.784986 
L 291.870018 81.632163 
L 292.283148 83.201002 
L 292.671324 83.971006 
L 292.798047 83.839621 
L 292.923227 83.046588 
L 293.681235 85.474468 
L 293.809227 85.405089 
L 293.938956 84.386259 
L 294.649463 86.713314 
L 294.775524 86.995912 
L 299.46876 74.895636 
L 299.989257 76.432585 
L 300.113784 76.47487 
L 300.237957 76.346787 
L 300.362637 75.713771 
L 301.032058 77.757009 
L 301.157846 77.858733 
L 301.288922 77.750964 
L 301.417339 77.016459 
L 302.056998 79.019428 
L 302.185849 79.129627 
L 302.314803 79.071033 
L 302.458123 78.269197 
L 303.135751 80.381555 
L 303.281031 80.596991 
L 303.408796 80.53394 
L 303.535621 79.681701 
L 304.18956 81.716447 
L 304.316058 81.873992 
L 304.450522 81.830484 
L 304.580428 80.987506 
L 305.224448 82.986618 
L 305.354319 83.153445 
L 305.482041 83.088854 
L 305.612923 82.248824 
L 306.291884 84.347463 
L 306.422085 84.514339 
L 306.551536 84.398048 
L 306.689408 83.690897 
L 307.470205 85.752442 
L 307.599112 85.689985 
L 307.729281 84.903653 
L 308.389773 86.87928 
L 308.519838 86.987842 
L 308.653219 86.882061 
L 308.824009 86.272948 
L 309.478948 88.226259 
L 309.73851 88.215846 
L 309.883285 87.528861 
L 310.559594 89.540049 
L 310.704708 89.635603 
L 310.863316 89.603336 
L 310.992026 88.924174 
L 311.6712 90.938031 
L 316.359411 78.441408 
L 316.493585 77.349899 
L 317.231299 79.657247 
L 317.496685 79.884349 
L 317.635318 78.805207 
L 318.309023 80.925175 
L 318.580649 81.220949 
L 318.716058 81.078068 
L 318.849804 80.563069 
L 319.591663 82.660098 
L 319.863708 82.586603 
L 320.135797 82.618467 
L 320.540716 83.602451 
L 320.813132 84.265134 
L 320.951129 82.763363 
L 321.563259 84.746406 
L 321.850647 85.501834 
L 321.98451 85.562513 
L 322.120771 85.472211 
L 322.265395 84.880963 
L 322.950255 86.801125 
L 323.222911 86.829612 
L 323.406453 86.294302 
L 324.089326 88.203664 
L 324.366679 88.243617 
L 324.501819 87.572531 
L 325.194478 89.503981 
L 325.511584 89.600649 
L 325.650587 88.992323 
L 326.343932 90.972908 
L 326.484845 90.997456 
L 326.761015 90.87363 
L 326.900846 90.94753 
L 327.17553 91.500059 
L 327.610704 92.65458 
L 327.749762 91.155848 
L 328.312688 92.974271 
L 328.591949 93.642029 
L 333.250146 80.685375 
L 333.679888 81.581051 
L 333.84237 81.617429 
L 333.979584 80.797383 
L 334.6679 82.672406 
L 334.809235 82.849576 
L 334.946727 82.818858 
L 335.086092 82.004491 
L 335.844233 84.108733 
L 335.983292 84.328387 
L 336.122573 84.301579 
L 336.278014 83.479751 
L 336.842284 85.116549 
L 337.123077 85.659998 
L 337.266048 85.69153 
L 337.404007 84.773924 
L 338.161655 86.96519 
L 338.302027 87.235933 
L 338.441636 87.257712 
L 338.581044 86.244622 
L 339.284843 88.240132 
L 339.584999 88.583979 
L 339.723456 87.568195 
L 340.606037 89.879122 
L 340.743732 89.89439 
L 340.885628 88.8875 
L 341.740651 90.824808 
L 342.033986 90.802657 
L 342.179753 90.494481 
L 342.894539 92.554941 
L 343.040581 92.591389 
L 343.179292 91.969325 
L 343.464078 93.203816 
L 344.039262 94.358603 
L 344.229711 94.509745 
L 344.371945 93.256268 
L 345.096806 95.238752 
L 345.383096 95.588772 
L 345.527224 95.470847 
L 350.303827 82.685303 
L 350.931807 83.975395 
L 351.074281 83.959153 
L 351.220303 83.301955 
L 351.956728 85.230558 
L 352.245189 85.34488 
L 352.393953 84.693875 
L 353.184484 86.706197 
L 353.329328 86.880331 
L 353.476098 86.873184 
L 353.623814 86.172362 
L 354.34283 88.048994 
L 354.655231 88.265975 
L 354.801721 87.561484 
L 355.533696 89.419518 
L 355.678421 89.59176 
L 355.822005 89.575233 
L 355.967202 88.867114 
L 356.752273 90.851868 
L 356.907841 91.050057 
L 357.049945 91.029095 
L 357.192532 90.360204 
L 357.918266 92.194272 
L 358.21017 92.30933 
L 358.353496 91.641874 
L 359.111721 93.551488 
L 359.407962 93.675676 
L 359.552946 93.011767 
L 360.288967 94.86248 
L 360.433484 94.984638 
L 360.578811 94.923127 
L 360.722961 94.349418 
L 361.668247 96.382859 
L 361.812114 96.363417 
L 361.964109 95.808199 
L 362.412205 96.947868 
L 367.194271 84.162397 
L 368.090623 86.050632 
L 368.242358 86.012097 
L 368.389788 85.481401 
L 369.327653 87.418335 
L 369.476964 87.417263 
L 369.626255 86.890248 
L 370.398139 88.697166 
L 370.552032 88.837818 
L 370.703651 88.797504 
L 370.85363 88.271449 
L 371.611563 90.04167 
L 371.91682 90.183796 
L 372.06871 89.617727 
L 372.834998 91.447294 
L 373.144933 91.59878 
L 373.294485 91.026539 
L 374.271307 93.122173 
L 374.421658 93.120487 
L 374.571497 92.504268 
L 375.350005 94.35423 
L 375.562831 94.628434 
L 375.715936 94.632334 
L 375.880751 94.049965 
L 376.646326 95.86592 
L 376.956412 96.012933 
L 377.118012 95.46621 
L 378.096446 97.550386 
L 378.253066 97.560836 
L 378.411124 96.961218 
L 379.192633 98.806052 
L 379.345674 98.939222 
L 384.083467 86.801353 
L 384.391236 86.945038 
L 384.54302 86.409747 
L 385.312992 88.161029 
L 385.466244 88.2932 
L 385.623775 88.268385 
L 385.775923 87.733291 
L 386.543215 89.474939 
L 386.855635 89.626105 
L 387.016862 89.110398 
L 387.788545 90.8582 
L 388.158664 91.093794 
L 388.316085 90.610356 
L 389.09119 92.320537 
L 389.404118 92.386674 
L 389.560925 91.984327 
L 390.244944 93.532 
L 390.555038 93.840155 
L 390.726854 93.054735 
L 391.507945 94.93704 
L 391.824697 95.216776 
L 391.980697 94.395941 
L 392.789787 96.349868 
L 393.10429 96.629868 
L 393.261917 95.856683 
L 394.068622 97.76331 
L 394.438738 98.123002 
L 394.598983 97.43774 
L 395.556394 99.506444 
L 395.716052 99.525348 
L 395.872564 98.83114 
L 396.389898 100.09375 
L 401.212429 89.149568 
L 402.019258 90.748926 
L 402.176496 89.934321 
L 402.663695 90.811506 
L 402.819611 90.825977 
L 402.978097 90.687637 
L 403.613342 91.639935 
L 404.08974 92.492007 
L 405.852821 94.759944 
L 406.011409 94.262929 
L 406.330059 94.659045 
L 406.493253 94.370402 
L 406.815805 94.57643 
L 407.636854 96.228821 
L 408.11699 96.765422 
L 408.279438 96.869922 
L 409.106768 98.096675 
L 409.442542 98.52561 
L 409.601964 97.949295 
L 409.976886 98.737067 
L 410.456644 98.43779 
L 411.430403 100.360836 
L 412.244461 101.154704 
L 413.06612 102.27951 
L 413.229096 102.42205 
L 413.402599 101.952486 
L 418.18648 90.429404 
L 418.687414 91.216198 
L 419.189986 91.817134 
L 419.355213 91.472463 
L 419.517286 91.724243 
L 419.683443 91.758227 
L 419.845535 91.40785 
L 420.385647 92.23277 
L 421.208794 93.664614 
L 421.700935 94.089846 
L 422.911792 95.808095 
L 423.07664 95.950644 
L 423.238035 95.55829 
L 423.57408 96.006513 
L 423.73972 95.773704 
L 424.070334 95.90933 
L 424.964568 97.662743 
L 425.45937 98.200775 
L 425.622514 98.300931 
L 426.842064 99.984793 
L 427.024063 100.197403 
L 427.192323 99.740924 
L 427.531317 100.30426 
L 427.702749 100.118298 
L 428.040056 100.187771 
L 429.110746 102.131748 
L 429.947326 102.966075 
L 430.284612 103.448007 
L 434.991247 91.547771 
L 435.34872 91.768942 
L 435.858333 92.498062 
L 436.362724 93.108669 
L 436.534135 92.719405 
L 436.705694 93.048948 
L 436.931394 93.230957 
L 437.103956 92.951934 
L 437.609962 93.563597 
L 438.453821 94.965776 
L 438.796611 95.299094 
L 439.683138 96.385313 
L 440.371819 97.235159 
L 440.538725 96.870837 
L 440.709007 97.160234 
L 440.881732 97.166656 
L 441.073147 96.921505 
L 441.585452 97.6115 
L 442.284632 98.846524 
L 443.174419 99.834802 
L 443.693508 100.506401 
L 444.379481 101.389075 
L 444.551177 101.033877 
L 444.903873 101.457043 
L 445.074656 101.208325 
L 445.609183 101.798623 
L 446.461938 103.283811 
L 446.818776 103.641101 
L 447.211253 104.102088 
L 451.968117 92.605912 
L 452.494788 93.168173 
L 452.668644 93.283599 
L 453.944249 94.987889 
L 454.121947 94.525531 
L 454.474427 95.072732 
L 454.660709 94.935473 
L 455.017336 95.009269 
L 456.112422 96.888428 
L 457.188312 98.042678 
L 458.308594 99.516655 
L 458.487692 99.122695 
L 458.837232 99.488929 
L 459.010198 99.221736 
L 459.723946 100.151602 
L 460.249317 101.079614 
L 460.786895 101.650882 
L 461.1422 101.991258 
L 461.498837 102.437088 
L 462.4351 103.632109 
L 462.613115 103.199329 
L 462.969785 103.78163 
L 463.50314 103.721932 
L 464.214386 104.949478 
L 469.021466 93.263769 
L 469.917768 94.749507 
L 470.869865 95.67451 
L 471.57655 96.592581 
L 471.935212 97.027705 
L 472.111888 96.614863 
L 472.467511 97.17568 
L 472.645377 97.159875 
L 472.884954 97.285605 
L 473.064124 97.239178 
L 474.499535 99.335861 
L 474.67845 99.452653 
L 476.359552 101.515027 
L 476.536793 101.100339 
L 476.929645 101.690232 
L 477.108734 101.542596 
L 477.464112 101.57209 
L 478.557866 103.387593 
L 479.500031 104.276379 
L 480.768298 105.864813 
L 480.951812 105.458443 
L 481.189597 105.873298 
L 485.992724 94.67116 
L 486.353865 95.219957 
L 486.533843 95.114642 
L 486.896517 95.161007 
L 488.057848 96.999307 
L 488.604995 97.450534 
L 489.943299 99.079163 
L 490.130434 99.236921 
L 490.314483 98.85194 
L 490.68258 99.441103 
L 491.238147 99.431737 
L 492.778928 101.601487 
L 493.326642 102.08634 
L 494.676503 103.738024 
L 494.859597 103.382442 
L 495.23969 103.80326 
L 495.423987 103.576602 
L 495.999157 104.199581 
L 496.929489 105.611148 
L 497.494454 106.088567 
L 498.109091 106.839282 
L 498.109091 106.839282 
" style="fill:none;stroke:#1f77b4;stroke-linecap:square;stroke-width:1.5;"/>
   </g>
   <g id="patch_3">
    <path d="M 72 384.48 
L 72 51.84 
" style="fill:none;stroke:#000000;stroke-linecap:square;stroke-linejoin:miter;stroke-width:0.8;"/>
   </g>
   <g id="patch_4">
    <path d="M 518.4 384.48 
L 518.4 51.84 
" style="fill:none;stroke:#000000;stroke-linecap:square;stroke-linejoin:miter;stroke-width:0.8;"/>
   </g>
   <g id="patch_5">
    <path d="M 72 384.48 
L 518.4 384.48 
" style="fill:none;stroke:#000000;stroke-linecap:square;stroke-linejoin:miter;stroke-width:0.8;"/>
   </g>
   <g id="patch_6">
    <path d="M 72 51.84 
L 518.4 51.84 
" style="fill:none;stroke:#000000;stroke-linecap:square;stroke-linejoin:miter;stroke-width:0.8;"/>
   </g>
   <g id="text_17">
    <!-- 11_06_14_31 -->
    <defs>
     <path d="M 50.984375 -16.609375 
L 50.984375 -23.578125 
L -0.984375 -23.578125 
L -0.984375 -16.609375 
z
" id="DejaVuSans-95"/>
    </defs>
    <g transform="translate(255.66 45.84)scale(0.12 -0.12)">
     <use xlink:href="#DejaVuSans-49"/>
     <use x="63.623047" xlink:href="#DejaVuSans-49"/>
     <use x="127.246094" xlink:href="#DejaVuSans-95"/>
     <use x="177.246094" xlink:href="#DejaVuSans-48"/>
     <use x="240.869141" xlink:href="#DejaVuSans-54"/>
     <use x="304.492188" xlink:href="#DejaVuSans-95"/>
     <use x="354.492188" xlink:href="#DejaVuSans-49"/>
     <use x="418.115234" xlink:href="#DejaVuSans-52"/>
     <use x="481.738281" xlink:href="#DejaVuSans-95"/>
     <use x="531.738281" xlink:href="#DejaVuSans-51"/>
     <use x="595.361328" xlink:href="#DejaVuSans-49"/>
    </g>
   </g>
  </g>
 </g>
 <defs>
  <clipPath id="p9a591fa84a">
   <rect height="332.64" width="446.4" x="72" y="51.84"/>
  </clipPath>
 </defs>
</svg>
