<?xml version="1.0" encoding="utf-8" standalone="no"?>
<!DOCTYPE svg PUBLIC "-//W3C//DTD SVG 1.1//EN"
  "http://www.w3.org/Graphics/SVG/1.1/DTD/svg11.dtd">
<!-- Created with matplotlib (https://matplotlib.org/) -->
<svg height="432pt" version="1.1" viewBox="0 0 576 432" width="576pt" xmlns="http://www.w3.org/2000/svg" xmlns:xlink="http://www.w3.org/1999/xlink">
 <defs>
  <style type="text/css">
*{stroke-linecap:butt;stroke-linejoin:round;}
  </style>
 </defs>
 <g id="figure_1">
  <g id="patch_1">
   <path d="M 0 432 
L 576 432 
L 576 0 
L 0 0 
z
" style="fill:#ffffff;"/>
  </g>
  <g id="axes_1">
   <g id="patch_2">
    <path d="M 72 384.48 
L 518.4 384.48 
L 518.4 51.84 
L 72 51.84 
z
" style="fill:#ffffff;"/>
   </g>
   <g id="matplotlib.axis_1">
    <g id="xtick_1">
     <g id="line2d_1">
      <defs>
       <path d="M 0 0 
L 0 3.5 
" id="m65c57c7407" style="stroke:#000000;stroke-width:0.8;"/>
      </defs>
      <g>
       <use style="stroke:#000000;stroke-width:0.8;" x="92.290909" xlink:href="#m65c57c7407" y="384.48"/>
      </g>
     </g>
     <g id="text_1">
      <!-- 0 -->
      <defs>
       <path d="M 31.78125 66.40625 
Q 24.171875 66.40625 20.328125 58.90625 
Q 16.5 51.421875 16.5 36.375 
Q 16.5 21.390625 20.328125 13.890625 
Q 24.171875 6.390625 31.78125 6.390625 
Q 39.453125 6.390625 43.28125 13.890625 
Q 47.125 21.390625 47.125 36.375 
Q 47.125 51.421875 43.28125 58.90625 
Q 39.453125 66.40625 31.78125 66.40625 
z
M 31.78125 74.21875 
Q 44.046875 74.21875 50.515625 64.515625 
Q 56.984375 54.828125 56.984375 36.375 
Q 56.984375 17.96875 50.515625 8.265625 
Q 44.046875 -1.421875 31.78125 -1.421875 
Q 19.53125 -1.421875 13.0625 8.265625 
Q 6.59375 17.96875 6.59375 36.375 
Q 6.59375 54.828125 13.0625 64.515625 
Q 19.53125 74.21875 31.78125 74.21875 
z
" id="DejaVuSans-48"/>
      </defs>
      <g transform="translate(89.109659 399.078438)scale(0.1 -0.1)">
       <use xlink:href="#DejaVuSans-48"/>
      </g>
     </g>
    </g>
    <g id="xtick_2">
     <g id="line2d_2">
      <g>
       <use style="stroke:#000000;stroke-width:0.8;" x="159.961899" xlink:href="#m65c57c7407" y="384.48"/>
      </g>
     </g>
     <g id="text_2">
      <!-- 10 -->
      <defs>
       <path d="M 12.40625 8.296875 
L 28.515625 8.296875 
L 28.515625 63.921875 
L 10.984375 60.40625 
L 10.984375 69.390625 
L 28.421875 72.90625 
L 38.28125 72.90625 
L 38.28125 8.296875 
L 54.390625 8.296875 
L 54.390625 0 
L 12.40625 0 
z
" id="DejaVuSans-49"/>
      </defs>
      <g transform="translate(153.599399 399.078438)scale(0.1 -0.1)">
       <use xlink:href="#DejaVuSans-49"/>
       <use x="63.623047" xlink:href="#DejaVuSans-48"/>
      </g>
     </g>
    </g>
    <g id="xtick_3">
     <g id="line2d_3">
      <g>
       <use style="stroke:#000000;stroke-width:0.8;" x="227.632888" xlink:href="#m65c57c7407" y="384.48"/>
      </g>
     </g>
     <g id="text_3">
      <!-- 20 -->
      <defs>
       <path d="M 19.1875 8.296875 
L 53.609375 8.296875 
L 53.609375 0 
L 7.328125 0 
L 7.328125 8.296875 
Q 12.9375 14.109375 22.625 23.890625 
Q 32.328125 33.6875 34.8125 36.53125 
Q 39.546875 41.84375 41.421875 45.53125 
Q 43.3125 49.21875 43.3125 52.78125 
Q 43.3125 58.59375 39.234375 62.25 
Q 35.15625 65.921875 28.609375 65.921875 
Q 23.96875 65.921875 18.8125 64.3125 
Q 13.671875 62.703125 7.8125 59.421875 
L 7.8125 69.390625 
Q 13.765625 71.78125 18.9375 73 
Q 24.125 74.21875 28.421875 74.21875 
Q 39.75 74.21875 46.484375 68.546875 
Q 53.21875 62.890625 53.21875 53.421875 
Q 53.21875 48.921875 51.53125 44.890625 
Q 49.859375 40.875 45.40625 35.40625 
Q 44.1875 33.984375 37.640625 27.21875 
Q 31.109375 20.453125 19.1875 8.296875 
z
" id="DejaVuSans-50"/>
      </defs>
      <g transform="translate(221.270388 399.078438)scale(0.1 -0.1)">
       <use xlink:href="#DejaVuSans-50"/>
       <use x="63.623047" xlink:href="#DejaVuSans-48"/>
      </g>
     </g>
    </g>
    <g id="xtick_4">
     <g id="line2d_4">
      <g>
       <use style="stroke:#000000;stroke-width:0.8;" x="295.303878" xlink:href="#m65c57c7407" y="384.48"/>
      </g>
     </g>
     <g id="text_4">
      <!-- 30 -->
      <defs>
       <path d="M 40.578125 39.3125 
Q 47.65625 37.796875 51.625 33 
Q 55.609375 28.21875 55.609375 21.1875 
Q 55.609375 10.40625 48.1875 4.484375 
Q 40.765625 -1.421875 27.09375 -1.421875 
Q 22.515625 -1.421875 17.65625 -0.515625 
Q 12.796875 0.390625 7.625 2.203125 
L 7.625 11.71875 
Q 11.71875 9.328125 16.59375 8.109375 
Q 21.484375 6.890625 26.8125 6.890625 
Q 36.078125 6.890625 40.9375 10.546875 
Q 45.796875 14.203125 45.796875 21.1875 
Q 45.796875 27.640625 41.28125 31.265625 
Q 36.765625 34.90625 28.71875 34.90625 
L 20.21875 34.90625 
L 20.21875 43.015625 
L 29.109375 43.015625 
Q 36.375 43.015625 40.234375 45.921875 
Q 44.09375 48.828125 44.09375 54.296875 
Q 44.09375 59.90625 40.109375 62.90625 
Q 36.140625 65.921875 28.71875 65.921875 
Q 24.65625 65.921875 20.015625 65.03125 
Q 15.375 64.15625 9.8125 62.3125 
L 9.8125 71.09375 
Q 15.4375 72.65625 20.34375 73.4375 
Q 25.25 74.21875 29.59375 74.21875 
Q 40.828125 74.21875 47.359375 69.109375 
Q 53.90625 64.015625 53.90625 55.328125 
Q 53.90625 49.265625 50.4375 45.09375 
Q 46.96875 40.921875 40.578125 39.3125 
z
" id="DejaVuSans-51"/>
      </defs>
      <g transform="translate(288.941378 399.078438)scale(0.1 -0.1)">
       <use xlink:href="#DejaVuSans-51"/>
       <use x="63.623047" xlink:href="#DejaVuSans-48"/>
      </g>
     </g>
    </g>
    <g id="xtick_5">
     <g id="line2d_5">
      <g>
       <use style="stroke:#000000;stroke-width:0.8;" x="362.974868" xlink:href="#m65c57c7407" y="384.48"/>
      </g>
     </g>
     <g id="text_5">
      <!-- 40 -->
      <defs>
       <path d="M 37.796875 64.3125 
L 12.890625 25.390625 
L 37.796875 25.390625 
z
M 35.203125 72.90625 
L 47.609375 72.90625 
L 47.609375 25.390625 
L 58.015625 25.390625 
L 58.015625 17.1875 
L 47.609375 17.1875 
L 47.609375 0 
L 37.796875 0 
L 37.796875 17.1875 
L 4.890625 17.1875 
L 4.890625 26.703125 
z
" id="DejaVuSans-52"/>
      </defs>
      <g transform="translate(356.612368 399.078438)scale(0.1 -0.1)">
       <use xlink:href="#DejaVuSans-52"/>
       <use x="63.623047" xlink:href="#DejaVuSans-48"/>
      </g>
     </g>
    </g>
    <g id="xtick_6">
     <g id="line2d_6">
      <g>
       <use style="stroke:#000000;stroke-width:0.8;" x="430.645857" xlink:href="#m65c57c7407" y="384.48"/>
      </g>
     </g>
     <g id="text_6">
      <!-- 50 -->
      <defs>
       <path d="M 10.796875 72.90625 
L 49.515625 72.90625 
L 49.515625 64.59375 
L 19.828125 64.59375 
L 19.828125 46.734375 
Q 21.96875 47.46875 24.109375 47.828125 
Q 26.265625 48.1875 28.421875 48.1875 
Q 40.625 48.1875 47.75 41.5 
Q 54.890625 34.8125 54.890625 23.390625 
Q 54.890625 11.625 47.5625 5.09375 
Q 40.234375 -1.421875 26.90625 -1.421875 
Q 22.3125 -1.421875 17.546875 -0.640625 
Q 12.796875 0.140625 7.71875 1.703125 
L 7.71875 11.625 
Q 12.109375 9.234375 16.796875 8.0625 
Q 21.484375 6.890625 26.703125 6.890625 
Q 35.15625 6.890625 40.078125 11.328125 
Q 45.015625 15.765625 45.015625 23.390625 
Q 45.015625 31 40.078125 35.4375 
Q 35.15625 39.890625 26.703125 39.890625 
Q 22.75 39.890625 18.8125 39.015625 
Q 14.890625 38.140625 10.796875 36.28125 
z
" id="DejaVuSans-53"/>
      </defs>
      <g transform="translate(424.283357 399.078438)scale(0.1 -0.1)">
       <use xlink:href="#DejaVuSans-53"/>
       <use x="63.623047" xlink:href="#DejaVuSans-48"/>
      </g>
     </g>
    </g>
    <g id="xtick_7">
     <g id="line2d_7">
      <g>
       <use style="stroke:#000000;stroke-width:0.8;" x="498.316847" xlink:href="#m65c57c7407" y="384.48"/>
      </g>
     </g>
     <g id="text_7">
      <!-- 60 -->
      <defs>
       <path d="M 33.015625 40.375 
Q 26.375 40.375 22.484375 35.828125 
Q 18.609375 31.296875 18.609375 23.390625 
Q 18.609375 15.53125 22.484375 10.953125 
Q 26.375 6.390625 33.015625 6.390625 
Q 39.65625 6.390625 43.53125 10.953125 
Q 47.40625 15.53125 47.40625 23.390625 
Q 47.40625 31.296875 43.53125 35.828125 
Q 39.65625 40.375 33.015625 40.375 
z
M 52.59375 71.296875 
L 52.59375 62.3125 
Q 48.875 64.0625 45.09375 64.984375 
Q 41.3125 65.921875 37.59375 65.921875 
Q 27.828125 65.921875 22.671875 59.328125 
Q 17.53125 52.734375 16.796875 39.40625 
Q 19.671875 43.65625 24.015625 45.921875 
Q 28.375 48.1875 33.59375 48.1875 
Q 44.578125 48.1875 50.953125 41.515625 
Q 57.328125 34.859375 57.328125 23.390625 
Q 57.328125 12.15625 50.6875 5.359375 
Q 44.046875 -1.421875 33.015625 -1.421875 
Q 20.359375 -1.421875 13.671875 8.265625 
Q 6.984375 17.96875 6.984375 36.375 
Q 6.984375 53.65625 15.1875 63.9375 
Q 23.390625 74.21875 37.203125 74.21875 
Q 40.921875 74.21875 44.703125 73.484375 
Q 48.484375 72.75 52.59375 71.296875 
z
" id="DejaVuSans-54"/>
      </defs>
      <g transform="translate(491.954347 399.078438)scale(0.1 -0.1)">
       <use xlink:href="#DejaVuSans-54"/>
       <use x="63.623047" xlink:href="#DejaVuSans-48"/>
      </g>
     </g>
    </g>
    <g id="text_8">
     <!-- Time [s] -->
     <defs>
      <path d="M -0.296875 72.90625 
L 61.375 72.90625 
L 61.375 64.59375 
L 35.5 64.59375 
L 35.5 0 
L 25.59375 0 
L 25.59375 64.59375 
L -0.296875 64.59375 
z
" id="DejaVuSans-84"/>
      <path d="M 9.421875 54.6875 
L 18.40625 54.6875 
L 18.40625 0 
L 9.421875 0 
z
M 9.421875 75.984375 
L 18.40625 75.984375 
L 18.40625 64.59375 
L 9.421875 64.59375 
z
" id="DejaVuSans-105"/>
      <path d="M 52 44.1875 
Q 55.375 50.25 60.0625 53.125 
Q 64.75 56 71.09375 56 
Q 79.640625 56 84.28125 50.015625 
Q 88.921875 44.046875 88.921875 33.015625 
L 88.921875 0 
L 79.890625 0 
L 79.890625 32.71875 
Q 79.890625 40.578125 77.09375 44.375 
Q 74.3125 48.1875 68.609375 48.1875 
Q 61.625 48.1875 57.5625 43.546875 
Q 53.515625 38.921875 53.515625 30.90625 
L 53.515625 0 
L 44.484375 0 
L 44.484375 32.71875 
Q 44.484375 40.625 41.703125 44.40625 
Q 38.921875 48.1875 33.109375 48.1875 
Q 26.21875 48.1875 22.15625 43.53125 
Q 18.109375 38.875 18.109375 30.90625 
L 18.109375 0 
L 9.078125 0 
L 9.078125 54.6875 
L 18.109375 54.6875 
L 18.109375 46.1875 
Q 21.1875 51.21875 25.484375 53.609375 
Q 29.78125 56 35.6875 56 
Q 41.65625 56 45.828125 52.96875 
Q 50 49.953125 52 44.1875 
z
" id="DejaVuSans-109"/>
      <path d="M 56.203125 29.59375 
L 56.203125 25.203125 
L 14.890625 25.203125 
Q 15.484375 15.921875 20.484375 11.0625 
Q 25.484375 6.203125 34.421875 6.203125 
Q 39.59375 6.203125 44.453125 7.46875 
Q 49.3125 8.734375 54.109375 11.28125 
L 54.109375 2.78125 
Q 49.265625 0.734375 44.1875 -0.34375 
Q 39.109375 -1.421875 33.890625 -1.421875 
Q 20.796875 -1.421875 13.15625 6.1875 
Q 5.515625 13.8125 5.515625 26.8125 
Q 5.515625 40.234375 12.765625 48.109375 
Q 20.015625 56 32.328125 56 
Q 43.359375 56 49.78125 48.890625 
Q 56.203125 41.796875 56.203125 29.59375 
z
M 47.21875 32.234375 
Q 47.125 39.59375 43.09375 43.984375 
Q 39.0625 48.390625 32.421875 48.390625 
Q 24.90625 48.390625 20.390625 44.140625 
Q 15.875 39.890625 15.1875 32.171875 
z
" id="DejaVuSans-101"/>
      <path id="DejaVuSans-32"/>
      <path d="M 8.59375 75.984375 
L 29.296875 75.984375 
L 29.296875 69 
L 17.578125 69 
L 17.578125 -6.203125 
L 29.296875 -6.203125 
L 29.296875 -13.1875 
L 8.59375 -13.1875 
z
" id="DejaVuSans-91"/>
      <path d="M 44.28125 53.078125 
L 44.28125 44.578125 
Q 40.484375 46.53125 36.375 47.5 
Q 32.28125 48.484375 27.875 48.484375 
Q 21.1875 48.484375 17.84375 46.4375 
Q 14.5 44.390625 14.5 40.28125 
Q 14.5 37.15625 16.890625 35.375 
Q 19.28125 33.59375 26.515625 31.984375 
L 29.59375 31.296875 
Q 39.15625 29.25 43.1875 25.515625 
Q 47.21875 21.78125 47.21875 15.09375 
Q 47.21875 7.46875 41.1875 3.015625 
Q 35.15625 -1.421875 24.609375 -1.421875 
Q 20.21875 -1.421875 15.453125 -0.5625 
Q 10.6875 0.296875 5.421875 2 
L 5.421875 11.28125 
Q 10.40625 8.6875 15.234375 7.390625 
Q 20.0625 6.109375 24.8125 6.109375 
Q 31.15625 6.109375 34.5625 8.28125 
Q 37.984375 10.453125 37.984375 14.40625 
Q 37.984375 18.0625 35.515625 20.015625 
Q 33.0625 21.96875 24.703125 23.78125 
L 21.578125 24.515625 
Q 13.234375 26.265625 9.515625 29.90625 
Q 5.8125 33.546875 5.8125 39.890625 
Q 5.8125 47.609375 11.28125 51.796875 
Q 16.75 56 26.8125 56 
Q 31.78125 56 36.171875 55.265625 
Q 40.578125 54.546875 44.28125 53.078125 
z
" id="DejaVuSans-115"/>
      <path d="M 30.421875 75.984375 
L 30.421875 -13.1875 
L 9.71875 -13.1875 
L 9.71875 -6.203125 
L 21.390625 -6.203125 
L 21.390625 69 
L 9.71875 69 
L 9.71875 75.984375 
z
" id="DejaVuSans-93"/>
     </defs>
     <g transform="translate(274.717187 412.756563)scale(0.1 -0.1)">
      <use xlink:href="#DejaVuSans-84"/>
      <use x="61.037109" xlink:href="#DejaVuSans-105"/>
      <use x="88.820312" xlink:href="#DejaVuSans-109"/>
      <use x="186.232422" xlink:href="#DejaVuSans-101"/>
      <use x="247.755859" xlink:href="#DejaVuSans-32"/>
      <use x="279.542969" xlink:href="#DejaVuSans-91"/>
      <use x="318.556641" xlink:href="#DejaVuSans-115"/>
      <use x="370.65625" xlink:href="#DejaVuSans-93"/>
     </g>
    </g>
   </g>
   <g id="matplotlib.axis_2">
    <g id="ytick_1">
     <g id="line2d_8">
      <defs>
       <path d="M 0 0 
L -3.5 0 
" id="m244898820b" style="stroke:#000000;stroke-width:0.8;"/>
      </defs>
      <g>
       <use style="stroke:#000000;stroke-width:0.8;" x="72" xlink:href="#m244898820b" y="369.36"/>
      </g>
     </g>
     <g id="text_9">
      <!-- 0.00 -->
      <defs>
       <path d="M 10.6875 12.40625 
L 21 12.40625 
L 21 0 
L 10.6875 0 
z
" id="DejaVuSans-46"/>
      </defs>
      <g transform="translate(42.734375 373.159219)scale(0.1 -0.1)">
       <use xlink:href="#DejaVuSans-48"/>
       <use x="63.623047" xlink:href="#DejaVuSans-46"/>
       <use x="95.410156" xlink:href="#DejaVuSans-48"/>
       <use x="159.033203" xlink:href="#DejaVuSans-48"/>
      </g>
     </g>
    </g>
    <g id="ytick_2">
     <g id="line2d_9">
      <g>
       <use style="stroke:#000000;stroke-width:0.8;" x="72" xlink:href="#m244898820b" y="328.490785"/>
      </g>
     </g>
     <g id="text_10">
      <!-- 0.02 -->
      <g transform="translate(42.734375 332.290004)scale(0.1 -0.1)">
       <use xlink:href="#DejaVuSans-48"/>
       <use x="63.623047" xlink:href="#DejaVuSans-46"/>
       <use x="95.410156" xlink:href="#DejaVuSans-48"/>
       <use x="159.033203" xlink:href="#DejaVuSans-50"/>
      </g>
     </g>
    </g>
    <g id="ytick_3">
     <g id="line2d_10">
      <g>
       <use style="stroke:#000000;stroke-width:0.8;" x="72" xlink:href="#m244898820b" y="287.62157"/>
      </g>
     </g>
     <g id="text_11">
      <!-- 0.04 -->
      <g transform="translate(42.734375 291.420789)scale(0.1 -0.1)">
       <use xlink:href="#DejaVuSans-48"/>
       <use x="63.623047" xlink:href="#DejaVuSans-46"/>
       <use x="95.410156" xlink:href="#DejaVuSans-48"/>
       <use x="159.033203" xlink:href="#DejaVuSans-52"/>
      </g>
     </g>
    </g>
    <g id="ytick_4">
     <g id="line2d_11">
      <g>
       <use style="stroke:#000000;stroke-width:0.8;" x="72" xlink:href="#m244898820b" y="246.752355"/>
      </g>
     </g>
     <g id="text_12">
      <!-- 0.06 -->
      <g transform="translate(42.734375 250.551574)scale(0.1 -0.1)">
       <use xlink:href="#DejaVuSans-48"/>
       <use x="63.623047" xlink:href="#DejaVuSans-46"/>
       <use x="95.410156" xlink:href="#DejaVuSans-48"/>
       <use x="159.033203" xlink:href="#DejaVuSans-54"/>
      </g>
     </g>
    </g>
    <g id="ytick_5">
     <g id="line2d_12">
      <g>
       <use style="stroke:#000000;stroke-width:0.8;" x="72" xlink:href="#m244898820b" y="205.88314"/>
      </g>
     </g>
     <g id="text_13">
      <!-- 0.08 -->
      <defs>
       <path d="M 31.78125 34.625 
Q 24.75 34.625 20.71875 30.859375 
Q 16.703125 27.09375 16.703125 20.515625 
Q 16.703125 13.921875 20.71875 10.15625 
Q 24.75 6.390625 31.78125 6.390625 
Q 38.8125 6.390625 42.859375 10.171875 
Q 46.921875 13.96875 46.921875 20.515625 
Q 46.921875 27.09375 42.890625 30.859375 
Q 38.875 34.625 31.78125 34.625 
z
M 21.921875 38.8125 
Q 15.578125 40.375 12.03125 44.71875 
Q 8.5 49.078125 8.5 55.328125 
Q 8.5 64.0625 14.71875 69.140625 
Q 20.953125 74.21875 31.78125 74.21875 
Q 42.671875 74.21875 48.875 69.140625 
Q 55.078125 64.0625 55.078125 55.328125 
Q 55.078125 49.078125 51.53125 44.71875 
Q 48 40.375 41.703125 38.8125 
Q 48.828125 37.15625 52.796875 32.3125 
Q 56.78125 27.484375 56.78125 20.515625 
Q 56.78125 9.90625 50.3125 4.234375 
Q 43.84375 -1.421875 31.78125 -1.421875 
Q 19.734375 -1.421875 13.25 4.234375 
Q 6.78125 9.90625 6.78125 20.515625 
Q 6.78125 27.484375 10.78125 32.3125 
Q 14.796875 37.15625 21.921875 38.8125 
z
M 18.3125 54.390625 
Q 18.3125 48.734375 21.84375 45.5625 
Q 25.390625 42.390625 31.78125 42.390625 
Q 38.140625 42.390625 41.71875 45.5625 
Q 45.3125 48.734375 45.3125 54.390625 
Q 45.3125 60.0625 41.71875 63.234375 
Q 38.140625 66.40625 31.78125 66.40625 
Q 25.390625 66.40625 21.84375 63.234375 
Q 18.3125 60.0625 18.3125 54.390625 
z
" id="DejaVuSans-56"/>
      </defs>
      <g transform="translate(42.734375 209.682359)scale(0.1 -0.1)">
       <use xlink:href="#DejaVuSans-48"/>
       <use x="63.623047" xlink:href="#DejaVuSans-46"/>
       <use x="95.410156" xlink:href="#DejaVuSans-48"/>
       <use x="159.033203" xlink:href="#DejaVuSans-56"/>
      </g>
     </g>
    </g>
    <g id="ytick_6">
     <g id="line2d_13">
      <g>
       <use style="stroke:#000000;stroke-width:0.8;" x="72" xlink:href="#m244898820b" y="165.013925"/>
      </g>
     </g>
     <g id="text_14">
      <!-- 0.10 -->
      <g transform="translate(42.734375 168.813144)scale(0.1 -0.1)">
       <use xlink:href="#DejaVuSans-48"/>
       <use x="63.623047" xlink:href="#DejaVuSans-46"/>
       <use x="95.410156" xlink:href="#DejaVuSans-49"/>
       <use x="159.033203" xlink:href="#DejaVuSans-48"/>
      </g>
     </g>
    </g>
    <g id="ytick_7">
     <g id="line2d_14">
      <g>
       <use style="stroke:#000000;stroke-width:0.8;" x="72" xlink:href="#m244898820b" y="124.14471"/>
      </g>
     </g>
     <g id="text_15">
      <!-- 0.12 -->
      <g transform="translate(42.734375 127.943929)scale(0.1 -0.1)">
       <use xlink:href="#DejaVuSans-48"/>
       <use x="63.623047" xlink:href="#DejaVuSans-46"/>
       <use x="95.410156" xlink:href="#DejaVuSans-49"/>
       <use x="159.033203" xlink:href="#DejaVuSans-50"/>
      </g>
     </g>
    </g>
    <g id="ytick_8">
     <g id="line2d_15">
      <g>
       <use style="stroke:#000000;stroke-width:0.8;" x="72" xlink:href="#m244898820b" y="83.275495"/>
      </g>
     </g>
     <g id="text_16">
      <!-- 0.14 -->
      <g transform="translate(42.734375 87.074714)scale(0.1 -0.1)">
       <use xlink:href="#DejaVuSans-48"/>
       <use x="63.623047" xlink:href="#DejaVuSans-46"/>
       <use x="95.410156" xlink:href="#DejaVuSans-49"/>
       <use x="159.033203" xlink:href="#DejaVuSans-52"/>
      </g>
     </g>
    </g>
    <g id="text_17">
     <!-- Mass [g] -->
     <defs>
      <path d="M 9.8125 72.90625 
L 24.515625 72.90625 
L 43.109375 23.296875 
L 61.8125 72.90625 
L 76.515625 72.90625 
L 76.515625 0 
L 66.890625 0 
L 66.890625 64.015625 
L 48.09375 14.015625 
L 38.1875 14.015625 
L 19.390625 64.015625 
L 19.390625 0 
L 9.8125 0 
z
" id="DejaVuSans-77"/>
      <path d="M 34.28125 27.484375 
Q 23.390625 27.484375 19.1875 25 
Q 14.984375 22.515625 14.984375 16.5 
Q 14.984375 11.71875 18.140625 8.90625 
Q 21.296875 6.109375 26.703125 6.109375 
Q 34.1875 6.109375 38.703125 11.40625 
Q 43.21875 16.703125 43.21875 25.484375 
L 43.21875 27.484375 
z
M 52.203125 31.203125 
L 52.203125 0 
L 43.21875 0 
L 43.21875 8.296875 
Q 40.140625 3.328125 35.546875 0.953125 
Q 30.953125 -1.421875 24.3125 -1.421875 
Q 15.921875 -1.421875 10.953125 3.296875 
Q 6 8.015625 6 15.921875 
Q 6 25.140625 12.171875 29.828125 
Q 18.359375 34.515625 30.609375 34.515625 
L 43.21875 34.515625 
L 43.21875 35.40625 
Q 43.21875 41.609375 39.140625 45 
Q 35.0625 48.390625 27.6875 48.390625 
Q 23 48.390625 18.546875 47.265625 
Q 14.109375 46.140625 10.015625 43.890625 
L 10.015625 52.203125 
Q 14.9375 54.109375 19.578125 55.046875 
Q 24.21875 56 28.609375 56 
Q 40.484375 56 46.34375 49.84375 
Q 52.203125 43.703125 52.203125 31.203125 
z
" id="DejaVuSans-97"/>
      <path d="M 45.40625 27.984375 
Q 45.40625 37.75 41.375 43.109375 
Q 37.359375 48.484375 30.078125 48.484375 
Q 22.859375 48.484375 18.828125 43.109375 
Q 14.796875 37.75 14.796875 27.984375 
Q 14.796875 18.265625 18.828125 12.890625 
Q 22.859375 7.515625 30.078125 7.515625 
Q 37.359375 7.515625 41.375 12.890625 
Q 45.40625 18.265625 45.40625 27.984375 
z
M 54.390625 6.78125 
Q 54.390625 -7.171875 48.1875 -13.984375 
Q 42 -20.796875 29.203125 -20.796875 
Q 24.46875 -20.796875 20.265625 -20.09375 
Q 16.0625 -19.390625 12.109375 -17.921875 
L 12.109375 -9.1875 
Q 16.0625 -11.328125 19.921875 -12.34375 
Q 23.78125 -13.375 27.78125 -13.375 
Q 36.625 -13.375 41.015625 -8.765625 
Q 45.40625 -4.15625 45.40625 5.171875 
L 45.40625 9.625 
Q 42.625 4.78125 38.28125 2.390625 
Q 33.9375 0 27.875 0 
Q 17.828125 0 11.671875 7.65625 
Q 5.515625 15.328125 5.515625 27.984375 
Q 5.515625 40.671875 11.671875 48.328125 
Q 17.828125 56 27.875 56 
Q 33.9375 56 38.28125 53.609375 
Q 42.625 51.21875 45.40625 46.390625 
L 45.40625 54.6875 
L 54.390625 54.6875 
z
" id="DejaVuSans-103"/>
     </defs>
     <g transform="translate(36.654687 239.412344)rotate(-90)scale(0.1 -0.1)">
      <use xlink:href="#DejaVuSans-77"/>
      <use x="86.279297" xlink:href="#DejaVuSans-97"/>
      <use x="147.558594" xlink:href="#DejaVuSans-115"/>
      <use x="199.658203" xlink:href="#DejaVuSans-115"/>
      <use x="251.757812" xlink:href="#DejaVuSans-32"/>
      <use x="283.544922" xlink:href="#DejaVuSans-91"/>
      <use x="322.558594" xlink:href="#DejaVuSans-103"/>
      <use x="386.035156" xlink:href="#DejaVuSans-93"/>
     </g>
    </g>
   </g>
   <g id="line2d_16">
    <path clip-path="url(#p0b5b77a0cf)" d="M 92.290909 369.36 
L 111.251359 369.36 
L 112.603906 367.316539 
L 151.826052 367.316539 
L 153.171806 365.273079 
L 154.538651 365.273079 
L 155.900854 312.143099 
L 192.411559 312.143099 
L 199.18328 301.925795 
L 200.520526 297.838874 
L 207.276731 287.62157 
L 208.626726 287.62157 
L 209.995615 285.578109 
L 211.349942 285.578109 
L 212.693698 283.534649 
L 214.05645 283.534649 
L 215.410385 281.491188 
L 216.76245 281.491188 
L 218.105084 279.447727 
L 220.811118 279.447727 
L 222.162358 277.404266 
L 223.502298 277.404266 
L 224.855644 275.360806 
L 258.694353 275.360806 
L 260.019697 273.317345 
L 262.943977 273.317345 
L 264.081472 218.143905 
L 300.615672 218.143905 
L 301.971792 216.100444 
L 369.603782 216.100444 
L 370.935418 156.840082 
L 372.303536 156.840082 
L 375.016548 152.753161 
L 380.41741 160.927004 
L 381.764171 158.883543 
L 384.470652 158.883543 
L 385.833912 156.840082 
L 388.531527 156.840082 
L 389.899219 158.883543 
L 391.257024 158.883543 
L 392.611898 160.927004 
L 395.313811 160.927004 
L 396.656634 162.970465 
L 398.98911 165.013925 
L 399.671342 165.013925 
L 400.693391 167.057386 
L 403.428078 171.144308 
L 404.774893 171.144308 
L 406.125551 173.187768 
L 407.467813 171.144308 
L 408.83212 173.187768 
L 410.181202 171.144308 
L 422.360018 171.144308 
L 423.703119 173.187768 
L 427.763553 173.187768 
L 429.127903 171.144308 
L 435.879355 171.144308 
L 437.234041 103.710103 
L 442.648093 103.710103 
L 444.00828 101.666642 
L 445.341498 101.666642 
L 446.699805 99.623181 
L 448.064465 99.623181 
L 449.403214 97.579721 
L 454.817204 97.579721 
L 456.162178 99.623181 
L 460.246285 99.623181 
L 461.581475 101.666642 
L 468.357167 101.666642 
L 469.707644 103.710103 
L 479.185236 103.710103 
L 480.52192 105.753564 
L 498.109091 105.753564 
L 498.109091 105.753564 
" style="fill:none;stroke:#1f77b4;stroke-linecap:square;stroke-width:1.5;"/>
    <defs>
     <path d="M 0 3 
C 0.795609 3 1.55874 2.683901 2.12132 2.12132 
C 2.683901 1.55874 3 0.795609 3 0 
C 3 -0.795609 2.683901 -1.55874 2.12132 -2.12132 
C 1.55874 -2.683901 0.795609 -3 0 -3 
C -0.795609 -3 -1.55874 -2.683901 -2.12132 -2.12132 
C -2.683901 -1.55874 -3 -0.795609 -3 0 
C -3 0.795609 -2.683901 1.55874 -2.12132 2.12132 
C -1.55874 2.683901 -0.795609 3 0 3 
z
" id="m2a45db7309" style="stroke:#1f77b4;"/>
    </defs>
    <g clip-path="url(#p0b5b77a0cf)">
     <use style="fill:#1f77b4;stroke:#1f77b4;" x="92.290909" xlink:href="#m2a45db7309" y="369.36"/>
     <use style="fill:#1f77b4;stroke:#1f77b4;" x="93.666546" xlink:href="#m2a45db7309" y="369.36"/>
     <use style="fill:#1f77b4;stroke:#1f77b4;" x="95.006675" xlink:href="#m2a45db7309" y="369.36"/>
     <use style="fill:#1f77b4;stroke:#1f77b4;" x="96.350952" xlink:href="#m2a45db7309" y="369.36"/>
     <use style="fill:#1f77b4;stroke:#1f77b4;" x="97.72543" xlink:href="#m2a45db7309" y="369.36"/>
     <use style="fill:#1f77b4;stroke:#1f77b4;" x="99.056783" xlink:href="#m2a45db7309" y="369.36"/>
     <use style="fill:#1f77b4;stroke:#1f77b4;" x="100.413553" xlink:href="#m2a45db7309" y="369.36"/>
     <use style="fill:#1f77b4;stroke:#1f77b4;" x="101.761863" xlink:href="#m2a45db7309" y="369.36"/>
     <use style="fill:#1f77b4;stroke:#1f77b4;" x="103.128749" xlink:href="#m2a45db7309" y="369.36"/>
     <use style="fill:#1f77b4;stroke:#1f77b4;" x="104.482101" xlink:href="#m2a45db7309" y="369.36"/>
     <use style="fill:#1f77b4;stroke:#1f77b4;" x="105.835651" xlink:href="#m2a45db7309" y="369.36"/>
     <use style="fill:#1f77b4;stroke:#1f77b4;" x="107.188637" xlink:href="#m2a45db7309" y="369.36"/>
     <use style="fill:#1f77b4;stroke:#1f77b4;" x="108.531005" xlink:href="#m2a45db7309" y="369.36"/>
     <use style="fill:#1f77b4;stroke:#1f77b4;" x="109.882247" xlink:href="#m2a45db7309" y="369.36"/>
     <use style="fill:#1f77b4;stroke:#1f77b4;" x="111.251359" xlink:href="#m2a45db7309" y="369.36"/>
     <use style="fill:#1f77b4;stroke:#1f77b4;" x="112.603906" xlink:href="#m2a45db7309" y="367.316539"/>
     <use style="fill:#1f77b4;stroke:#1f77b4;" x="113.9453" xlink:href="#m2a45db7309" y="367.316539"/>
     <use style="fill:#1f77b4;stroke:#1f77b4;" x="115.310346" xlink:href="#m2a45db7309" y="367.316539"/>
     <use style="fill:#1f77b4;stroke:#1f77b4;" x="116.662332" xlink:href="#m2a45db7309" y="367.316539"/>
     <use style="fill:#1f77b4;stroke:#1f77b4;" x="118.01381" xlink:href="#m2a45db7309" y="367.316539"/>
     <use style="fill:#1f77b4;stroke:#1f77b4;" x="119.370904" xlink:href="#m2a45db7309" y="367.316539"/>
     <use style="fill:#1f77b4;stroke:#1f77b4;" x="120.705849" xlink:href="#m2a45db7309" y="367.316539"/>
     <use style="fill:#1f77b4;stroke:#1f77b4;" x="122.061542" xlink:href="#m2a45db7309" y="367.316539"/>
     <use style="fill:#1f77b4;stroke:#1f77b4;" x="123.411666" xlink:href="#m2a45db7309" y="367.316539"/>
     <use style="fill:#1f77b4;stroke:#1f77b4;" x="124.761074" xlink:href="#m2a45db7309" y="367.316539"/>
     <use style="fill:#1f77b4;stroke:#1f77b4;" x="126.08693" xlink:href="#m2a45db7309" y="367.316539"/>
     <use style="fill:#1f77b4;stroke:#1f77b4;" x="127.479127" xlink:href="#m2a45db7309" y="367.316539"/>
     <use style="fill:#1f77b4;stroke:#1f77b4;" x="128.820209" xlink:href="#m2a45db7309" y="367.316539"/>
     <use style="fill:#1f77b4;stroke:#1f77b4;" x="130.18579" xlink:href="#m2a45db7309" y="367.316539"/>
     <use style="fill:#1f77b4;stroke:#1f77b4;" x="131.527361" xlink:href="#m2a45db7309" y="367.316539"/>
     <use style="fill:#1f77b4;stroke:#1f77b4;" x="132.8933" xlink:href="#m2a45db7309" y="367.316539"/>
     <use style="fill:#1f77b4;stroke:#1f77b4;" x="134.237307" xlink:href="#m2a45db7309" y="367.316539"/>
     <use style="fill:#1f77b4;stroke:#1f77b4;" x="135.60068" xlink:href="#m2a45db7309" y="367.316539"/>
     <use style="fill:#1f77b4;stroke:#1f77b4;" x="136.941839" xlink:href="#m2a45db7309" y="367.316539"/>
     <use style="fill:#1f77b4;stroke:#1f77b4;" x="138.302667" xlink:href="#m2a45db7309" y="367.316539"/>
     <use style="fill:#1f77b4;stroke:#1f77b4;" x="139.649253" xlink:href="#m2a45db7309" y="367.316539"/>
     <use style="fill:#1f77b4;stroke:#1f77b4;" x="141.001752" xlink:href="#m2a45db7309" y="367.316539"/>
     <use style="fill:#1f77b4;stroke:#1f77b4;" x="142.356918" xlink:href="#m2a45db7309" y="367.316539"/>
     <use style="fill:#1f77b4;stroke:#1f77b4;" x="143.695174" xlink:href="#m2a45db7309" y="367.316539"/>
     <use style="fill:#1f77b4;stroke:#1f77b4;" x="145.062777" xlink:href="#m2a45db7309" y="367.316539"/>
     <use style="fill:#1f77b4;stroke:#1f77b4;" x="146.401843" xlink:href="#m2a45db7309" y="367.316539"/>
     <use style="fill:#1f77b4;stroke:#1f77b4;" x="147.756894" xlink:href="#m2a45db7309" y="367.316539"/>
     <use style="fill:#1f77b4;stroke:#1f77b4;" x="149.112283" xlink:href="#m2a45db7309" y="367.316539"/>
     <use style="fill:#1f77b4;stroke:#1f77b4;" x="150.476348" xlink:href="#m2a45db7309" y="367.316539"/>
     <use style="fill:#1f77b4;stroke:#1f77b4;" x="151.826052" xlink:href="#m2a45db7309" y="367.316539"/>
     <use style="fill:#1f77b4;stroke:#1f77b4;" x="153.171806" xlink:href="#m2a45db7309" y="365.273079"/>
     <use style="fill:#1f77b4;stroke:#1f77b4;" x="154.538651" xlink:href="#m2a45db7309" y="365.273079"/>
     <use style="fill:#1f77b4;stroke:#1f77b4;" x="155.900854" xlink:href="#m2a45db7309" y="312.143099"/>
     <use style="fill:#1f77b4;stroke:#1f77b4;" x="157.2318" xlink:href="#m2a45db7309" y="312.143099"/>
     <use style="fill:#1f77b4;stroke:#1f77b4;" x="158.586682" xlink:href="#m2a45db7309" y="312.143099"/>
     <use style="fill:#1f77b4;stroke:#1f77b4;" x="160.88956" xlink:href="#m2a45db7309" y="312.143099"/>
     <use style="fill:#1f77b4;stroke:#1f77b4;" x="161.366599" xlink:href="#m2a45db7309" y="312.143099"/>
     <use style="fill:#1f77b4;stroke:#1f77b4;" x="162.650467" xlink:href="#m2a45db7309" y="312.143099"/>
     <use style="fill:#1f77b4;stroke:#1f77b4;" x="163.986813" xlink:href="#m2a45db7309" y="312.143099"/>
     <use style="fill:#1f77b4;stroke:#1f77b4;" x="165.348739" xlink:href="#m2a45db7309" y="312.143099"/>
     <use style="fill:#1f77b4;stroke:#1f77b4;" x="166.705394" xlink:href="#m2a45db7309" y="312.143099"/>
     <use style="fill:#1f77b4;stroke:#1f77b4;" x="168.061521" xlink:href="#m2a45db7309" y="312.143099"/>
     <use style="fill:#1f77b4;stroke:#1f77b4;" x="169.413181" xlink:href="#m2a45db7309" y="312.143099"/>
     <use style="fill:#1f77b4;stroke:#1f77b4;" x="170.754852" xlink:href="#m2a45db7309" y="312.143099"/>
     <use style="fill:#1f77b4;stroke:#1f77b4;" x="172.124405" xlink:href="#m2a45db7309" y="312.143099"/>
     <use style="fill:#1f77b4;stroke:#1f77b4;" x="173.469739" xlink:href="#m2a45db7309" y="312.143099"/>
     <use style="fill:#1f77b4;stroke:#1f77b4;" x="174.828343" xlink:href="#m2a45db7309" y="312.143099"/>
     <use style="fill:#1f77b4;stroke:#1f77b4;" x="176.169825" xlink:href="#m2a45db7309" y="312.143099"/>
     <use style="fill:#1f77b4;stroke:#1f77b4;" x="177.528402" xlink:href="#m2a45db7309" y="312.143099"/>
     <use style="fill:#1f77b4;stroke:#1f77b4;" x="178.881841" xlink:href="#m2a45db7309" y="312.143099"/>
     <use style="fill:#1f77b4;stroke:#1f77b4;" x="180.238056" xlink:href="#m2a45db7309" y="312.143099"/>
     <use style="fill:#1f77b4;stroke:#1f77b4;" x="181.583464" xlink:href="#m2a45db7309" y="312.143099"/>
     <use style="fill:#1f77b4;stroke:#1f77b4;" x="182.921251" xlink:href="#m2a45db7309" y="312.143099"/>
     <use style="fill:#1f77b4;stroke:#1f77b4;" x="184.276538" xlink:href="#m2a45db7309" y="312.143099"/>
     <use style="fill:#1f77b4;stroke:#1f77b4;" x="185.645265" xlink:href="#m2a45db7309" y="312.143099"/>
     <use style="fill:#1f77b4;stroke:#1f77b4;" x="187.058316" xlink:href="#m2a45db7309" y="312.143099"/>
     <use style="fill:#1f77b4;stroke:#1f77b4;" x="188.322418" xlink:href="#m2a45db7309" y="312.143099"/>
     <use style="fill:#1f77b4;stroke:#1f77b4;" x="189.700653" xlink:href="#m2a45db7309" y="312.143099"/>
     <use style="fill:#1f77b4;stroke:#1f77b4;" x="191.043116" xlink:href="#m2a45db7309" y="312.143099"/>
     <use style="fill:#1f77b4;stroke:#1f77b4;" x="192.411559" xlink:href="#m2a45db7309" y="312.143099"/>
     <use style="fill:#1f77b4;stroke:#1f77b4;" x="193.755971" xlink:href="#m2a45db7309" y="310.099638"/>
     <use style="fill:#1f77b4;stroke:#1f77b4;" x="195.120382" xlink:href="#m2a45db7309" y="308.056178"/>
     <use style="fill:#1f77b4;stroke:#1f77b4;" x="196.477916" xlink:href="#m2a45db7309" y="306.012717"/>
     <use style="fill:#1f77b4;stroke:#1f77b4;" x="197.822517" xlink:href="#m2a45db7309" y="303.969256"/>
     <use style="fill:#1f77b4;stroke:#1f77b4;" x="199.18328" xlink:href="#m2a45db7309" y="301.925795"/>
     <use style="fill:#1f77b4;stroke:#1f77b4;" x="200.520526" xlink:href="#m2a45db7309" y="297.838874"/>
     <use style="fill:#1f77b4;stroke:#1f77b4;" x="201.874995" xlink:href="#m2a45db7309" y="295.795413"/>
     <use style="fill:#1f77b4;stroke:#1f77b4;" x="203.214873" xlink:href="#m2a45db7309" y="293.751952"/>
     <use style="fill:#1f77b4;stroke:#1f77b4;" x="204.583343" xlink:href="#m2a45db7309" y="291.708492"/>
     <use style="fill:#1f77b4;stroke:#1f77b4;" x="205.937028" xlink:href="#m2a45db7309" y="289.665031"/>
     <use style="fill:#1f77b4;stroke:#1f77b4;" x="207.276731" xlink:href="#m2a45db7309" y="287.62157"/>
     <use style="fill:#1f77b4;stroke:#1f77b4;" x="208.626726" xlink:href="#m2a45db7309" y="287.62157"/>
     <use style="fill:#1f77b4;stroke:#1f77b4;" x="209.995615" xlink:href="#m2a45db7309" y="285.578109"/>
     <use style="fill:#1f77b4;stroke:#1f77b4;" x="211.349942" xlink:href="#m2a45db7309" y="285.578109"/>
     <use style="fill:#1f77b4;stroke:#1f77b4;" x="212.693698" xlink:href="#m2a45db7309" y="283.534649"/>
     <use style="fill:#1f77b4;stroke:#1f77b4;" x="214.05645" xlink:href="#m2a45db7309" y="283.534649"/>
     <use style="fill:#1f77b4;stroke:#1f77b4;" x="215.410385" xlink:href="#m2a45db7309" y="281.491188"/>
     <use style="fill:#1f77b4;stroke:#1f77b4;" x="216.76245" xlink:href="#m2a45db7309" y="281.491188"/>
     <use style="fill:#1f77b4;stroke:#1f77b4;" x="218.105084" xlink:href="#m2a45db7309" y="279.447727"/>
     <use style="fill:#1f77b4;stroke:#1f77b4;" x="219.470529" xlink:href="#m2a45db7309" y="279.447727"/>
     <use style="fill:#1f77b4;stroke:#1f77b4;" x="220.811118" xlink:href="#m2a45db7309" y="279.447727"/>
     <use style="fill:#1f77b4;stroke:#1f77b4;" x="222.162358" xlink:href="#m2a45db7309" y="277.404266"/>
     <use style="fill:#1f77b4;stroke:#1f77b4;" x="223.502298" xlink:href="#m2a45db7309" y="277.404266"/>
     <use style="fill:#1f77b4;stroke:#1f77b4;" x="224.855644" xlink:href="#m2a45db7309" y="275.360806"/>
     <use style="fill:#1f77b4;stroke:#1f77b4;" x="226.22657" xlink:href="#m2a45db7309" y="275.360806"/>
     <use style="fill:#1f77b4;stroke:#1f77b4;" x="228.496059" xlink:href="#m2a45db7309" y="275.360806"/>
     <use style="fill:#1f77b4;stroke:#1f77b4;" x="229.07788" xlink:href="#m2a45db7309" y="275.360806"/>
     <use style="fill:#1f77b4;stroke:#1f77b4;" x="230.286193" xlink:href="#m2a45db7309" y="275.360806"/>
     <use style="fill:#1f77b4;stroke:#1f77b4;" x="231.637211" xlink:href="#m2a45db7309" y="275.360806"/>
     <use style="fill:#1f77b4;stroke:#1f77b4;" x="232.994095" xlink:href="#m2a45db7309" y="275.360806"/>
     <use style="fill:#1f77b4;stroke:#1f77b4;" x="234.346026" xlink:href="#m2a45db7309" y="275.360806"/>
     <use style="fill:#1f77b4;stroke:#1f77b4;" x="235.686567" xlink:href="#m2a45db7309" y="275.360806"/>
     <use style="fill:#1f77b4;stroke:#1f77b4;" x="237.040691" xlink:href="#m2a45db7309" y="275.360806"/>
     <use style="fill:#1f77b4;stroke:#1f77b4;" x="238.393556" xlink:href="#m2a45db7309" y="275.360806"/>
     <use style="fill:#1f77b4;stroke:#1f77b4;" x="239.755355" xlink:href="#m2a45db7309" y="275.360806"/>
     <use style="fill:#1f77b4;stroke:#1f77b4;" x="241.091687" xlink:href="#m2a45db7309" y="275.360806"/>
     <use style="fill:#1f77b4;stroke:#1f77b4;" x="242.455041" xlink:href="#m2a45db7309" y="275.360806"/>
     <use style="fill:#1f77b4;stroke:#1f77b4;" x="243.804529" xlink:href="#m2a45db7309" y="275.360806"/>
     <use style="fill:#1f77b4;stroke:#1f77b4;" x="245.159742" xlink:href="#m2a45db7309" y="275.360806"/>
     <use style="fill:#1f77b4;stroke:#1f77b4;" x="246.510001" xlink:href="#m2a45db7309" y="275.360806"/>
     <use style="fill:#1f77b4;stroke:#1f77b4;" x="247.853954" xlink:href="#m2a45db7309" y="275.360806"/>
     <use style="fill:#1f77b4;stroke:#1f77b4;" x="249.21764" xlink:href="#m2a45db7309" y="275.360806"/>
     <use style="fill:#1f77b4;stroke:#1f77b4;" x="250.574247" xlink:href="#m2a45db7309" y="275.360806"/>
     <use style="fill:#1f77b4;stroke:#1f77b4;" x="251.913956" xlink:href="#m2a45db7309" y="275.360806"/>
     <use style="fill:#1f77b4;stroke:#1f77b4;" x="253.267457" xlink:href="#m2a45db7309" y="275.360806"/>
     <use style="fill:#1f77b4;stroke:#1f77b4;" x="254.624762" xlink:href="#m2a45db7309" y="275.360806"/>
     <use style="fill:#1f77b4;stroke:#1f77b4;" x="255.975081" xlink:href="#m2a45db7309" y="275.360806"/>
     <use style="fill:#1f77b4;stroke:#1f77b4;" x="257.328563" xlink:href="#m2a45db7309" y="275.360806"/>
     <use style="fill:#1f77b4;stroke:#1f77b4;" x="258.694353" xlink:href="#m2a45db7309" y="275.360806"/>
     <use style="fill:#1f77b4;stroke:#1f77b4;" x="260.019697" xlink:href="#m2a45db7309" y="273.317345"/>
     <use style="fill:#1f77b4;stroke:#1f77b4;" x="262.335701" xlink:href="#m2a45db7309" y="273.317345"/>
     <use style="fill:#1f77b4;stroke:#1f77b4;" x="262.943977" xlink:href="#m2a45db7309" y="273.317345"/>
     <use style="fill:#1f77b4;stroke:#1f77b4;" x="264.081472" xlink:href="#m2a45db7309" y="218.143905"/>
     <use style="fill:#1f77b4;stroke:#1f77b4;" x="265.450997" xlink:href="#m2a45db7309" y="218.143905"/>
     <use style="fill:#1f77b4;stroke:#1f77b4;" x="266.788866" xlink:href="#m2a45db7309" y="218.143905"/>
     <use style="fill:#1f77b4;stroke:#1f77b4;" x="268.143964" xlink:href="#m2a45db7309" y="218.143905"/>
     <use style="fill:#1f77b4;stroke:#1f77b4;" x="269.495941" xlink:href="#m2a45db7309" y="218.143905"/>
     <use style="fill:#1f77b4;stroke:#1f77b4;" x="270.850342" xlink:href="#m2a45db7309" y="218.143905"/>
     <use style="fill:#1f77b4;stroke:#1f77b4;" x="272.20287" xlink:href="#m2a45db7309" y="218.143905"/>
     <use style="fill:#1f77b4;stroke:#1f77b4;" x="273.560648" xlink:href="#m2a45db7309" y="218.143905"/>
     <use style="fill:#1f77b4;stroke:#1f77b4;" x="274.911781" xlink:href="#m2a45db7309" y="218.143905"/>
     <use style="fill:#1f77b4;stroke:#1f77b4;" x="276.279357" xlink:href="#m2a45db7309" y="218.143905"/>
     <use style="fill:#1f77b4;stroke:#1f77b4;" x="277.626618" xlink:href="#m2a45db7309" y="218.143905"/>
     <use style="fill:#1f77b4;stroke:#1f77b4;" x="278.966578" xlink:href="#m2a45db7309" y="218.143905"/>
     <use style="fill:#1f77b4;stroke:#1f77b4;" x="280.336306" xlink:href="#m2a45db7309" y="218.143905"/>
     <use style="fill:#1f77b4;stroke:#1f77b4;" x="281.678081" xlink:href="#m2a45db7309" y="218.143905"/>
     <use style="fill:#1f77b4;stroke:#1f77b4;" x="283.033185" xlink:href="#m2a45db7309" y="218.143905"/>
     <use style="fill:#1f77b4;stroke:#1f77b4;" x="284.377882" xlink:href="#m2a45db7309" y="218.143905"/>
     <use style="fill:#1f77b4;stroke:#1f77b4;" x="285.745466" xlink:href="#m2a45db7309" y="218.143905"/>
     <use style="fill:#1f77b4;stroke:#1f77b4;" x="287.098905" xlink:href="#m2a45db7309" y="218.143905"/>
     <use style="fill:#1f77b4;stroke:#1f77b4;" x="288.43467" xlink:href="#m2a45db7309" y="218.143905"/>
     <use style="fill:#1f77b4;stroke:#1f77b4;" x="289.809277" xlink:href="#m2a45db7309" y="218.143905"/>
     <use style="fill:#1f77b4;stroke:#1f77b4;" x="291.154327" xlink:href="#m2a45db7309" y="218.143905"/>
     <use style="fill:#1f77b4;stroke:#1f77b4;" x="292.5114" xlink:href="#m2a45db7309" y="218.143905"/>
     <use style="fill:#1f77b4;stroke:#1f77b4;" x="293.862926" xlink:href="#m2a45db7309" y="218.143905"/>
     <use style="fill:#1f77b4;stroke:#1f77b4;" x="295.21776" xlink:href="#m2a45db7309" y="218.143905"/>
     <use style="fill:#1f77b4;stroke:#1f77b4;" x="296.540828" xlink:href="#m2a45db7309" y="218.143905"/>
     <use style="fill:#1f77b4;stroke:#1f77b4;" x="297.923814" xlink:href="#m2a45db7309" y="218.143905"/>
     <use style="fill:#1f77b4;stroke:#1f77b4;" x="299.291858" xlink:href="#m2a45db7309" y="218.143905"/>
     <use style="fill:#1f77b4;stroke:#1f77b4;" x="300.615672" xlink:href="#m2a45db7309" y="218.143905"/>
     <use style="fill:#1f77b4;stroke:#1f77b4;" x="301.971792" xlink:href="#m2a45db7309" y="216.100444"/>
     <use style="fill:#1f77b4;stroke:#1f77b4;" x="303.316414" xlink:href="#m2a45db7309" y="216.100444"/>
     <use style="fill:#1f77b4;stroke:#1f77b4;" x="304.808593" xlink:href="#m2a45db7309" y="216.100444"/>
     <use style="fill:#1f77b4;stroke:#1f77b4;" x="306.0299" xlink:href="#m2a45db7309" y="216.100444"/>
     <use style="fill:#1f77b4;stroke:#1f77b4;" x="307.393178" xlink:href="#m2a45db7309" y="216.100444"/>
     <use style="fill:#1f77b4;stroke:#1f77b4;" x="308.730993" xlink:href="#m2a45db7309" y="216.100444"/>
     <use style="fill:#1f77b4;stroke:#1f77b4;" x="310.091518" xlink:href="#m2a45db7309" y="216.100444"/>
     <use style="fill:#1f77b4;stroke:#1f77b4;" x="311.451252" xlink:href="#m2a45db7309" y="216.100444"/>
     <use style="fill:#1f77b4;stroke:#1f77b4;" x="312.787896" xlink:href="#m2a45db7309" y="216.100444"/>
     <use style="fill:#1f77b4;stroke:#1f77b4;" x="314.15998" xlink:href="#m2a45db7309" y="216.100444"/>
     <use style="fill:#1f77b4;stroke:#1f77b4;" x="315.515571" xlink:href="#m2a45db7309" y="216.100444"/>
     <use style="fill:#1f77b4;stroke:#1f77b4;" x="316.866217" xlink:href="#m2a45db7309" y="216.100444"/>
     <use style="fill:#1f77b4;stroke:#1f77b4;" x="318.205913" xlink:href="#m2a45db7309" y="216.100444"/>
     <use style="fill:#1f77b4;stroke:#1f77b4;" x="319.565903" xlink:href="#m2a45db7309" y="216.100444"/>
     <use style="fill:#1f77b4;stroke:#1f77b4;" x="320.90625" xlink:href="#m2a45db7309" y="216.100444"/>
     <use style="fill:#1f77b4;stroke:#1f77b4;" x="322.263797" xlink:href="#m2a45db7309" y="216.100444"/>
     <use style="fill:#1f77b4;stroke:#1f77b4;" x="323.602485" xlink:href="#m2a45db7309" y="216.100444"/>
     <use style="fill:#1f77b4;stroke:#1f77b4;" x="324.964154" xlink:href="#m2a45db7309" y="216.100444"/>
     <use style="fill:#1f77b4;stroke:#1f77b4;" x="326.32135" xlink:href="#m2a45db7309" y="216.100444"/>
     <use style="fill:#1f77b4;stroke:#1f77b4;" x="327.663983" xlink:href="#m2a45db7309" y="216.100444"/>
     <use style="fill:#1f77b4;stroke:#1f77b4;" x="329.016698" xlink:href="#m2a45db7309" y="216.100444"/>
     <use style="fill:#1f77b4;stroke:#1f77b4;" x="330.342468" xlink:href="#m2a45db7309" y="216.100444"/>
     <use style="fill:#1f77b4;stroke:#1f77b4;" x="331.738081" xlink:href="#m2a45db7309" y="216.100444"/>
     <use style="fill:#1f77b4;stroke:#1f77b4;" x="333.076247" xlink:href="#m2a45db7309" y="216.100444"/>
     <use style="fill:#1f77b4;stroke:#1f77b4;" x="334.428124" xlink:href="#m2a45db7309" y="216.100444"/>
     <use style="fill:#1f77b4;stroke:#1f77b4;" x="335.78346" xlink:href="#m2a45db7309" y="216.100444"/>
     <use style="fill:#1f77b4;stroke:#1f77b4;" x="337.13673" xlink:href="#m2a45db7309" y="216.100444"/>
     <use style="fill:#1f77b4;stroke:#1f77b4;" x="338.514924" xlink:href="#m2a45db7309" y="216.100444"/>
     <use style="fill:#1f77b4;stroke:#1f77b4;" x="339.843523" xlink:href="#m2a45db7309" y="216.100444"/>
     <use style="fill:#1f77b4;stroke:#1f77b4;" x="341.197382" xlink:href="#m2a45db7309" y="216.100444"/>
     <use style="fill:#1f77b4;stroke:#1f77b4;" x="342.55051" xlink:href="#m2a45db7309" y="216.100444"/>
     <use style="fill:#1f77b4;stroke:#1f77b4;" x="343.889023" xlink:href="#m2a45db7309" y="216.100444"/>
     <use style="fill:#1f77b4;stroke:#1f77b4;" x="345.266202" xlink:href="#m2a45db7309" y="216.100444"/>
     <use style="fill:#1f77b4;stroke:#1f77b4;" x="346.602155" xlink:href="#m2a45db7309" y="216.100444"/>
     <use style="fill:#1f77b4;stroke:#1f77b4;" x="347.95209" xlink:href="#m2a45db7309" y="216.100444"/>
     <use style="fill:#1f77b4;stroke:#1f77b4;" x="349.3309" xlink:href="#m2a45db7309" y="216.100444"/>
     <use style="fill:#1f77b4;stroke:#1f77b4;" x="350.677397" xlink:href="#m2a45db7309" y="216.100444"/>
     <use style="fill:#1f77b4;stroke:#1f77b4;" x="352.017473" xlink:href="#m2a45db7309" y="216.100444"/>
     <use style="fill:#1f77b4;stroke:#1f77b4;" x="353.371732" xlink:href="#m2a45db7309" y="216.100444"/>
     <use style="fill:#1f77b4;stroke:#1f77b4;" x="354.719981" xlink:href="#m2a45db7309" y="216.100444"/>
     <use style="fill:#1f77b4;stroke:#1f77b4;" x="356.074118" xlink:href="#m2a45db7309" y="216.100444"/>
     <use style="fill:#1f77b4;stroke:#1f77b4;" x="357.42565" xlink:href="#m2a45db7309" y="216.100444"/>
     <use style="fill:#1f77b4;stroke:#1f77b4;" x="358.8031" xlink:href="#m2a45db7309" y="216.100444"/>
     <use style="fill:#1f77b4;stroke:#1f77b4;" x="360.136063" xlink:href="#m2a45db7309" y="216.100444"/>
     <use style="fill:#1f77b4;stroke:#1f77b4;" x="361.486809" xlink:href="#m2a45db7309" y="216.100444"/>
     <use style="fill:#1f77b4;stroke:#1f77b4;" x="362.843017" xlink:href="#m2a45db7309" y="216.100444"/>
     <use style="fill:#1f77b4;stroke:#1f77b4;" x="364.184669" xlink:href="#m2a45db7309" y="216.100444"/>
     <use style="fill:#1f77b4;stroke:#1f77b4;" x="365.537939" xlink:href="#m2a45db7309" y="216.100444"/>
     <use style="fill:#1f77b4;stroke:#1f77b4;" x="366.891022" xlink:href="#m2a45db7309" y="216.100444"/>
     <use style="fill:#1f77b4;stroke:#1f77b4;" x="368.243108" xlink:href="#m2a45db7309" y="216.100444"/>
     <use style="fill:#1f77b4;stroke:#1f77b4;" x="369.603782" xlink:href="#m2a45db7309" y="216.100444"/>
     <use style="fill:#1f77b4;stroke:#1f77b4;" x="370.935418" xlink:href="#m2a45db7309" y="156.840082"/>
     <use style="fill:#1f77b4;stroke:#1f77b4;" x="372.303536" xlink:href="#m2a45db7309" y="156.840082"/>
     <use style="fill:#1f77b4;stroke:#1f77b4;" x="373.651217" xlink:href="#m2a45db7309" y="154.796622"/>
     <use style="fill:#1f77b4;stroke:#1f77b4;" x="375.016548" xlink:href="#m2a45db7309" y="152.753161"/>
     <use style="fill:#1f77b4;stroke:#1f77b4;" x="376.364411" xlink:href="#m2a45db7309" y="154.796622"/>
     <use style="fill:#1f77b4;stroke:#1f77b4;" x="377.721019" xlink:href="#m2a45db7309" y="156.840082"/>
     <use style="fill:#1f77b4;stroke:#1f77b4;" x="379.078255" xlink:href="#m2a45db7309" y="158.883543"/>
     <use style="fill:#1f77b4;stroke:#1f77b4;" x="380.41741" xlink:href="#m2a45db7309" y="160.927004"/>
     <use style="fill:#1f77b4;stroke:#1f77b4;" x="381.764171" xlink:href="#m2a45db7309" y="158.883543"/>
     <use style="fill:#1f77b4;stroke:#1f77b4;" x="383.13865" xlink:href="#m2a45db7309" y="158.883543"/>
     <use style="fill:#1f77b4;stroke:#1f77b4;" x="384.470652" xlink:href="#m2a45db7309" y="158.883543"/>
     <use style="fill:#1f77b4;stroke:#1f77b4;" x="385.833912" xlink:href="#m2a45db7309" y="156.840082"/>
     <use style="fill:#1f77b4;stroke:#1f77b4;" x="387.190857" xlink:href="#m2a45db7309" y="156.840082"/>
     <use style="fill:#1f77b4;stroke:#1f77b4;" x="388.531527" xlink:href="#m2a45db7309" y="156.840082"/>
     <use style="fill:#1f77b4;stroke:#1f77b4;" x="389.899219" xlink:href="#m2a45db7309" y="158.883543"/>
     <use style="fill:#1f77b4;stroke:#1f77b4;" x="391.257024" xlink:href="#m2a45db7309" y="158.883543"/>
     <use style="fill:#1f77b4;stroke:#1f77b4;" x="392.611898" xlink:href="#m2a45db7309" y="160.927004"/>
     <use style="fill:#1f77b4;stroke:#1f77b4;" x="393.961407" xlink:href="#m2a45db7309" y="160.927004"/>
     <use style="fill:#1f77b4;stroke:#1f77b4;" x="395.313811" xlink:href="#m2a45db7309" y="160.927004"/>
     <use style="fill:#1f77b4;stroke:#1f77b4;" x="396.656634" xlink:href="#m2a45db7309" y="162.970465"/>
     <use style="fill:#1f77b4;stroke:#1f77b4;" x="398.98911" xlink:href="#m2a45db7309" y="165.013925"/>
     <use style="fill:#1f77b4;stroke:#1f77b4;" x="399.671342" xlink:href="#m2a45db7309" y="165.013925"/>
     <use style="fill:#1f77b4;stroke:#1f77b4;" x="400.693391" xlink:href="#m2a45db7309" y="167.057386"/>
     <use style="fill:#1f77b4;stroke:#1f77b4;" x="402.069305" xlink:href="#m2a45db7309" y="169.100847"/>
     <use style="fill:#1f77b4;stroke:#1f77b4;" x="403.428078" xlink:href="#m2a45db7309" y="171.144308"/>
     <use style="fill:#1f77b4;stroke:#1f77b4;" x="404.774893" xlink:href="#m2a45db7309" y="171.144308"/>
     <use style="fill:#1f77b4;stroke:#1f77b4;" x="406.125551" xlink:href="#m2a45db7309" y="173.187768"/>
     <use style="fill:#1f77b4;stroke:#1f77b4;" x="407.467813" xlink:href="#m2a45db7309" y="171.144308"/>
     <use style="fill:#1f77b4;stroke:#1f77b4;" x="408.83212" xlink:href="#m2a45db7309" y="173.187768"/>
     <use style="fill:#1f77b4;stroke:#1f77b4;" x="410.181202" xlink:href="#m2a45db7309" y="171.144308"/>
     <use style="fill:#1f77b4;stroke:#1f77b4;" x="411.544414" xlink:href="#m2a45db7309" y="171.144308"/>
     <use style="fill:#1f77b4;stroke:#1f77b4;" x="412.888191" xlink:href="#m2a45db7309" y="171.144308"/>
     <use style="fill:#1f77b4;stroke:#1f77b4;" x="414.25436" xlink:href="#m2a45db7309" y="171.144308"/>
     <use style="fill:#1f77b4;stroke:#1f77b4;" x="415.603659" xlink:href="#m2a45db7309" y="171.144308"/>
     <use style="fill:#1f77b4;stroke:#1f77b4;" x="416.943585" xlink:href="#m2a45db7309" y="171.144308"/>
     <use style="fill:#1f77b4;stroke:#1f77b4;" x="418.29762" xlink:href="#m2a45db7309" y="171.144308"/>
     <use style="fill:#1f77b4;stroke:#1f77b4;" x="419.634785" xlink:href="#m2a45db7309" y="171.144308"/>
     <use style="fill:#1f77b4;stroke:#1f77b4;" x="421.016383" xlink:href="#m2a45db7309" y="171.144308"/>
     <use style="fill:#1f77b4;stroke:#1f77b4;" x="422.360018" xlink:href="#m2a45db7309" y="171.144308"/>
     <use style="fill:#1f77b4;stroke:#1f77b4;" x="423.703119" xlink:href="#m2a45db7309" y="173.187768"/>
     <use style="fill:#1f77b4;stroke:#1f77b4;" x="425.066763" xlink:href="#m2a45db7309" y="173.187768"/>
     <use style="fill:#1f77b4;stroke:#1f77b4;" x="426.43061" xlink:href="#m2a45db7309" y="173.187768"/>
     <use style="fill:#1f77b4;stroke:#1f77b4;" x="427.763553" xlink:href="#m2a45db7309" y="173.187768"/>
     <use style="fill:#1f77b4;stroke:#1f77b4;" x="429.127903" xlink:href="#m2a45db7309" y="171.144308"/>
     <use style="fill:#1f77b4;stroke:#1f77b4;" x="430.480605" xlink:href="#m2a45db7309" y="171.144308"/>
     <use style="fill:#1f77b4;stroke:#1f77b4;" x="431.821655" xlink:href="#m2a45db7309" y="171.144308"/>
     <use style="fill:#1f77b4;stroke:#1f77b4;" x="433.186293" xlink:href="#m2a45db7309" y="171.144308"/>
     <use style="fill:#1f77b4;stroke:#1f77b4;" x="434.535044" xlink:href="#m2a45db7309" y="171.144308"/>
     <use style="fill:#1f77b4;stroke:#1f77b4;" x="435.879355" xlink:href="#m2a45db7309" y="171.144308"/>
     <use style="fill:#1f77b4;stroke:#1f77b4;" x="437.234041" xlink:href="#m2a45db7309" y="103.710103"/>
     <use style="fill:#1f77b4;stroke:#1f77b4;" x="438.589443" xlink:href="#m2a45db7309" y="103.710103"/>
     <use style="fill:#1f77b4;stroke:#1f77b4;" x="439.950496" xlink:href="#m2a45db7309" y="103.710103"/>
     <use style="fill:#1f77b4;stroke:#1f77b4;" x="441.291465" xlink:href="#m2a45db7309" y="103.710103"/>
     <use style="fill:#1f77b4;stroke:#1f77b4;" x="442.648093" xlink:href="#m2a45db7309" y="103.710103"/>
     <use style="fill:#1f77b4;stroke:#1f77b4;" x="444.00828" xlink:href="#m2a45db7309" y="101.666642"/>
     <use style="fill:#1f77b4;stroke:#1f77b4;" x="445.341498" xlink:href="#m2a45db7309" y="101.666642"/>
     <use style="fill:#1f77b4;stroke:#1f77b4;" x="446.699805" xlink:href="#m2a45db7309" y="99.623181"/>
     <use style="fill:#1f77b4;stroke:#1f77b4;" x="448.064465" xlink:href="#m2a45db7309" y="99.623181"/>
     <use style="fill:#1f77b4;stroke:#1f77b4;" x="449.403214" xlink:href="#m2a45db7309" y="97.579721"/>
     <use style="fill:#1f77b4;stroke:#1f77b4;" x="450.769619" xlink:href="#m2a45db7309" y="97.579721"/>
     <use style="fill:#1f77b4;stroke:#1f77b4;" x="452.126219" xlink:href="#m2a45db7309" y="97.579721"/>
     <use style="fill:#1f77b4;stroke:#1f77b4;" x="453.464407" xlink:href="#m2a45db7309" y="97.579721"/>
     <use style="fill:#1f77b4;stroke:#1f77b4;" x="454.817204" xlink:href="#m2a45db7309" y="97.579721"/>
     <use style="fill:#1f77b4;stroke:#1f77b4;" x="456.162178" xlink:href="#m2a45db7309" y="99.623181"/>
     <use style="fill:#1f77b4;stroke:#1f77b4;" x="457.502199" xlink:href="#m2a45db7309" y="99.623181"/>
     <use style="fill:#1f77b4;stroke:#1f77b4;" x="458.891335" xlink:href="#m2a45db7309" y="99.623181"/>
     <use style="fill:#1f77b4;stroke:#1f77b4;" x="460.246285" xlink:href="#m2a45db7309" y="99.623181"/>
     <use style="fill:#1f77b4;stroke:#1f77b4;" x="461.581475" xlink:href="#m2a45db7309" y="101.666642"/>
     <use style="fill:#1f77b4;stroke:#1f77b4;" x="462.942365" xlink:href="#m2a45db7309" y="101.666642"/>
     <use style="fill:#1f77b4;stroke:#1f77b4;" x="464.292955" xlink:href="#m2a45db7309" y="101.666642"/>
     <use style="fill:#1f77b4;stroke:#1f77b4;" x="465.638959" xlink:href="#m2a45db7309" y="101.666642"/>
     <use style="fill:#1f77b4;stroke:#1f77b4;" x="466.999478" xlink:href="#m2a45db7309" y="101.666642"/>
     <use style="fill:#1f77b4;stroke:#1f77b4;" x="468.357167" xlink:href="#m2a45db7309" y="101.666642"/>
     <use style="fill:#1f77b4;stroke:#1f77b4;" x="469.707644" xlink:href="#m2a45db7309" y="103.710103"/>
     <use style="fill:#1f77b4;stroke:#1f77b4;" x="471.058755" xlink:href="#m2a45db7309" y="103.710103"/>
     <use style="fill:#1f77b4;stroke:#1f77b4;" x="472.41472" xlink:href="#m2a45db7309" y="103.710103"/>
     <use style="fill:#1f77b4;stroke:#1f77b4;" x="473.76023" xlink:href="#m2a45db7309" y="103.710103"/>
     <use style="fill:#1f77b4;stroke:#1f77b4;" x="475.124395" xlink:href="#m2a45db7309" y="103.710103"/>
     <use style="fill:#1f77b4;stroke:#1f77b4;" x="476.480271" xlink:href="#m2a45db7309" y="103.710103"/>
     <use style="fill:#1f77b4;stroke:#1f77b4;" x="477.804233" xlink:href="#m2a45db7309" y="103.710103"/>
     <use style="fill:#1f77b4;stroke:#1f77b4;" x="479.185236" xlink:href="#m2a45db7309" y="103.710103"/>
     <use style="fill:#1f77b4;stroke:#1f77b4;" x="480.52192" xlink:href="#m2a45db7309" y="105.753564"/>
     <use style="fill:#1f77b4;stroke:#1f77b4;" x="481.887481" xlink:href="#m2a45db7309" y="105.753564"/>
     <use style="fill:#1f77b4;stroke:#1f77b4;" x="483.229235" xlink:href="#m2a45db7309" y="105.753564"/>
     <use style="fill:#1f77b4;stroke:#1f77b4;" x="484.600519" xlink:href="#m2a45db7309" y="105.753564"/>
     <use style="fill:#1f77b4;stroke:#1f77b4;" x="485.922364" xlink:href="#m2a45db7309" y="105.753564"/>
     <use style="fill:#1f77b4;stroke:#1f77b4;" x="487.291801" xlink:href="#m2a45db7309" y="105.753564"/>
     <use style="fill:#1f77b4;stroke:#1f77b4;" x="488.62944" xlink:href="#m2a45db7309" y="105.753564"/>
     <use style="fill:#1f77b4;stroke:#1f77b4;" x="489.998938" xlink:href="#m2a45db7309" y="105.753564"/>
     <use style="fill:#1f77b4;stroke:#1f77b4;" x="491.339177" xlink:href="#m2a45db7309" y="105.753564"/>
     <use style="fill:#1f77b4;stroke:#1f77b4;" x="492.710765" xlink:href="#m2a45db7309" y="105.753564"/>
     <use style="fill:#1f77b4;stroke:#1f77b4;" x="494.045299" xlink:href="#m2a45db7309" y="105.753564"/>
     <use style="fill:#1f77b4;stroke:#1f77b4;" x="495.400323" xlink:href="#m2a45db7309" y="105.753564"/>
     <use style="fill:#1f77b4;stroke:#1f77b4;" x="496.752192" xlink:href="#m2a45db7309" y="105.753564"/>
     <use style="fill:#1f77b4;stroke:#1f77b4;" x="498.109091" xlink:href="#m2a45db7309" y="105.753564"/>
    </g>
   </g>
   <g id="line2d_17">
    <path clip-path="url(#p0b5b77a0cf)" d="M 92.290909 369.36 
L 498.109091 66.96 
L 498.109091 66.96 
" style="fill:none;stroke:#ff7f0e;stroke-linecap:square;stroke-width:1.5;"/>
   </g>
   <g id="line2d_18">
    <path clip-path="url(#p0b5b77a0cf)" d="M 92.290909 369.36 
L 498.109091 66.96 
L 498.109091 66.96 
" style="fill:none;stroke:#2ca02c;stroke-linecap:square;stroke-width:1.5;"/>
   </g>
   <g id="patch_3">
    <path d="M 72 384.48 
L 72 51.84 
" style="fill:none;stroke:#000000;stroke-linecap:square;stroke-linejoin:miter;stroke-width:0.8;"/>
   </g>
   <g id="patch_4">
    <path d="M 518.4 384.48 
L 518.4 51.84 
" style="fill:none;stroke:#000000;stroke-linecap:square;stroke-linejoin:miter;stroke-width:0.8;"/>
   </g>
   <g id="patch_5">
    <path d="M 72 384.48 
L 518.4 384.48 
" style="fill:none;stroke:#000000;stroke-linecap:square;stroke-linejoin:miter;stroke-width:0.8;"/>
   </g>
   <g id="patch_6">
    <path d="M 72 51.84 
L 518.4 51.84 
" style="fill:none;stroke:#000000;stroke-linecap:square;stroke-linejoin:miter;stroke-width:0.8;"/>
   </g>
   <g id="text_18">
    <!-- 10_06_08_13_minuto_continuo -->
    <defs>
     <path d="M 50.984375 -16.609375 
L 50.984375 -23.578125 
L -0.984375 -23.578125 
L -0.984375 -16.609375 
z
" id="DejaVuSans-95"/>
     <path d="M 54.890625 33.015625 
L 54.890625 0 
L 45.90625 0 
L 45.90625 32.71875 
Q 45.90625 40.484375 42.875 44.328125 
Q 39.84375 48.1875 33.796875 48.1875 
Q 26.515625 48.1875 22.3125 43.546875 
Q 18.109375 38.921875 18.109375 30.90625 
L 18.109375 0 
L 9.078125 0 
L 9.078125 54.6875 
L 18.109375 54.6875 
L 18.109375 46.1875 
Q 21.34375 51.125 25.703125 53.5625 
Q 30.078125 56 35.796875 56 
Q 45.21875 56 50.046875 50.171875 
Q 54.890625 44.34375 54.890625 33.015625 
z
" id="DejaVuSans-110"/>
     <path d="M 8.5 21.578125 
L 8.5 54.6875 
L 17.484375 54.6875 
L 17.484375 21.921875 
Q 17.484375 14.15625 20.5 10.265625 
Q 23.53125 6.390625 29.59375 6.390625 
Q 36.859375 6.390625 41.078125 11.03125 
Q 45.3125 15.671875 45.3125 23.6875 
L 45.3125 54.6875 
L 54.296875 54.6875 
L 54.296875 0 
L 45.3125 0 
L 45.3125 8.40625 
Q 42.046875 3.421875 37.71875 1 
Q 33.40625 -1.421875 27.6875 -1.421875 
Q 18.265625 -1.421875 13.375 4.4375 
Q 8.5 10.296875 8.5 21.578125 
z
M 31.109375 56 
z
" id="DejaVuSans-117"/>
     <path d="M 18.3125 70.21875 
L 18.3125 54.6875 
L 36.8125 54.6875 
L 36.8125 47.703125 
L 18.3125 47.703125 
L 18.3125 18.015625 
Q 18.3125 11.328125 20.140625 9.421875 
Q 21.96875 7.515625 27.59375 7.515625 
L 36.8125 7.515625 
L 36.8125 0 
L 27.59375 0 
Q 17.1875 0 13.234375 3.875 
Q 9.28125 7.765625 9.28125 18.015625 
L 9.28125 47.703125 
L 2.6875 47.703125 
L 2.6875 54.6875 
L 9.28125 54.6875 
L 9.28125 70.21875 
z
" id="DejaVuSans-116"/>
     <path d="M 30.609375 48.390625 
Q 23.390625 48.390625 19.1875 42.75 
Q 14.984375 37.109375 14.984375 27.296875 
Q 14.984375 17.484375 19.15625 11.84375 
Q 23.34375 6.203125 30.609375 6.203125 
Q 37.796875 6.203125 41.984375 11.859375 
Q 46.1875 17.53125 46.1875 27.296875 
Q 46.1875 37.015625 41.984375 42.703125 
Q 37.796875 48.390625 30.609375 48.390625 
z
M 30.609375 56 
Q 42.328125 56 49.015625 48.375 
Q 55.71875 40.765625 55.71875 27.296875 
Q 55.71875 13.875 49.015625 6.21875 
Q 42.328125 -1.421875 30.609375 -1.421875 
Q 18.84375 -1.421875 12.171875 6.21875 
Q 5.515625 13.875 5.515625 27.296875 
Q 5.515625 40.765625 12.171875 48.375 
Q 18.84375 56 30.609375 56 
z
" id="DejaVuSans-111"/>
     <path d="M 48.78125 52.59375 
L 48.78125 44.1875 
Q 44.96875 46.296875 41.140625 47.34375 
Q 37.3125 48.390625 33.40625 48.390625 
Q 24.65625 48.390625 19.8125 42.84375 
Q 14.984375 37.3125 14.984375 27.296875 
Q 14.984375 17.28125 19.8125 11.734375 
Q 24.65625 6.203125 33.40625 6.203125 
Q 37.3125 6.203125 41.140625 7.25 
Q 44.96875 8.296875 48.78125 10.40625 
L 48.78125 2.09375 
Q 45.015625 0.34375 40.984375 -0.53125 
Q 36.96875 -1.421875 32.421875 -1.421875 
Q 20.0625 -1.421875 12.78125 6.34375 
Q 5.515625 14.109375 5.515625 27.296875 
Q 5.515625 40.671875 12.859375 48.328125 
Q 20.21875 56 33.015625 56 
Q 37.15625 56 41.109375 55.140625 
Q 45.0625 54.296875 48.78125 52.59375 
z
" id="DejaVuSans-99"/>
    </defs>
    <g transform="translate(202.452187 45.84)scale(0.12 -0.12)">
     <use xlink:href="#DejaVuSans-49"/>
     <use x="63.623047" xlink:href="#DejaVuSans-48"/>
     <use x="127.246094" xlink:href="#DejaVuSans-95"/>
     <use x="177.246094" xlink:href="#DejaVuSans-48"/>
     <use x="240.869141" xlink:href="#DejaVuSans-54"/>
     <use x="304.492188" xlink:href="#DejaVuSans-95"/>
     <use x="354.492188" xlink:href="#DejaVuSans-48"/>
     <use x="418.115234" xlink:href="#DejaVuSans-56"/>
     <use x="481.738281" xlink:href="#DejaVuSans-95"/>
     <use x="531.738281" xlink:href="#DejaVuSans-49"/>
     <use x="595.361328" xlink:href="#DejaVuSans-51"/>
     <use x="658.984375" xlink:href="#DejaVuSans-95"/>
     <use x="708.984375" xlink:href="#DejaVuSans-109"/>
     <use x="806.396484" xlink:href="#DejaVuSans-105"/>
     <use x="834.179688" xlink:href="#DejaVuSans-110"/>
     <use x="897.558594" xlink:href="#DejaVuSans-117"/>
     <use x="960.9375" xlink:href="#DejaVuSans-116"/>
     <use x="1000.146484" xlink:href="#DejaVuSans-111"/>
     <use x="1061.328125" xlink:href="#DejaVuSans-95"/>
     <use x="1111.328125" xlink:href="#DejaVuSans-99"/>
     <use x="1166.308594" xlink:href="#DejaVuSans-111"/>
     <use x="1227.490234" xlink:href="#DejaVuSans-110"/>
     <use x="1290.869141" xlink:href="#DejaVuSans-116"/>
     <use x="1330.078125" xlink:href="#DejaVuSans-105"/>
     <use x="1357.861328" xlink:href="#DejaVuSans-110"/>
     <use x="1421.240234" xlink:href="#DejaVuSans-117"/>
     <use x="1484.619141" xlink:href="#DejaVuSans-111"/>
    </g>
   </g>
   <g id="legend_1">
    <g id="patch_7">
     <path d="M 79 103.874375 
L 163.667188 103.874375 
Q 165.667188 103.874375 165.667188 101.874375 
L 165.667188 58.84 
Q 165.667188 56.84 163.667188 56.84 
L 79 56.84 
Q 77 56.84 77 58.84 
L 77 101.874375 
Q 77 103.874375 79 103.874375 
z
" style="fill:#ffffff;opacity:0.8;stroke:#cccccc;stroke-linejoin:miter;"/>
    </g>
    <g id="line2d_19">
     <path d="M 81 64.938437 
L 101 64.938437 
" style="fill:none;stroke:#1f77b4;stroke-linecap:square;stroke-width:1.5;"/>
    </g>
    <g id="line2d_20">
     <g>
      <use style="fill:#1f77b4;stroke:#1f77b4;" x="91" xlink:href="#m2a45db7309" y="64.938437"/>
     </g>
    </g>
    <g id="text_19">
     <!-- Bilancia -->
     <defs>
      <path d="M 19.671875 34.8125 
L 19.671875 8.109375 
L 35.5 8.109375 
Q 43.453125 8.109375 47.28125 11.40625 
Q 51.125 14.703125 51.125 21.484375 
Q 51.125 28.328125 47.28125 31.5625 
Q 43.453125 34.8125 35.5 34.8125 
z
M 19.671875 64.796875 
L 19.671875 42.828125 
L 34.28125 42.828125 
Q 41.5 42.828125 45.03125 45.53125 
Q 48.578125 48.25 48.578125 53.8125 
Q 48.578125 59.328125 45.03125 62.0625 
Q 41.5 64.796875 34.28125 64.796875 
z
M 9.8125 72.90625 
L 35.015625 72.90625 
Q 46.296875 72.90625 52.390625 68.21875 
Q 58.5 63.53125 58.5 54.890625 
Q 58.5 48.1875 55.375 44.234375 
Q 52.25 40.28125 46.1875 39.3125 
Q 53.46875 37.75 57.5 32.78125 
Q 61.53125 27.828125 61.53125 20.40625 
Q 61.53125 10.640625 54.890625 5.3125 
Q 48.25 0 35.984375 0 
L 9.8125 0 
z
" id="DejaVuSans-66"/>
      <path d="M 9.421875 75.984375 
L 18.40625 75.984375 
L 18.40625 0 
L 9.421875 0 
z
" id="DejaVuSans-108"/>
     </defs>
     <g transform="translate(109 68.438437)scale(0.1 -0.1)">
      <use xlink:href="#DejaVuSans-66"/>
      <use x="68.603516" xlink:href="#DejaVuSans-105"/>
      <use x="96.386719" xlink:href="#DejaVuSans-108"/>
      <use x="124.169922" xlink:href="#DejaVuSans-97"/>
      <use x="185.449219" xlink:href="#DejaVuSans-110"/>
      <use x="248.828125" xlink:href="#DejaVuSans-99"/>
      <use x="303.808594" xlink:href="#DejaVuSans-105"/>
      <use x="331.591797" xlink:href="#DejaVuSans-97"/>
     </g>
    </g>
    <g id="line2d_21">
     <path d="M 81 79.616562 
L 101 79.616562 
" style="fill:none;stroke:#ff7f0e;stroke-linecap:square;stroke-width:1.5;"/>
    </g>
    <g id="line2d_22"/>
    <g id="text_20">
     <!-- From flow -->
     <defs>
      <path d="M 9.8125 72.90625 
L 51.703125 72.90625 
L 51.703125 64.59375 
L 19.671875 64.59375 
L 19.671875 43.109375 
L 48.578125 43.109375 
L 48.578125 34.8125 
L 19.671875 34.8125 
L 19.671875 0 
L 9.8125 0 
z
" id="DejaVuSans-70"/>
      <path d="M 41.109375 46.296875 
Q 39.59375 47.171875 37.8125 47.578125 
Q 36.03125 48 33.890625 48 
Q 26.265625 48 22.1875 43.046875 
Q 18.109375 38.09375 18.109375 28.8125 
L 18.109375 0 
L 9.078125 0 
L 9.078125 54.6875 
L 18.109375 54.6875 
L 18.109375 46.1875 
Q 20.953125 51.171875 25.484375 53.578125 
Q 30.03125 56 36.53125 56 
Q 37.453125 56 38.578125 55.875 
Q 39.703125 55.765625 41.0625 55.515625 
z
" id="DejaVuSans-114"/>
      <path d="M 37.109375 75.984375 
L 37.109375 68.5 
L 28.515625 68.5 
Q 23.6875 68.5 21.796875 66.546875 
Q 19.921875 64.59375 19.921875 59.515625 
L 19.921875 54.6875 
L 34.71875 54.6875 
L 34.71875 47.703125 
L 19.921875 47.703125 
L 19.921875 0 
L 10.890625 0 
L 10.890625 47.703125 
L 2.296875 47.703125 
L 2.296875 54.6875 
L 10.890625 54.6875 
L 10.890625 58.5 
Q 10.890625 67.625 15.140625 71.796875 
Q 19.390625 75.984375 28.609375 75.984375 
z
" id="DejaVuSans-102"/>
      <path d="M 4.203125 54.6875 
L 13.1875 54.6875 
L 24.421875 12.015625 
L 35.59375 54.6875 
L 46.1875 54.6875 
L 57.421875 12.015625 
L 68.609375 54.6875 
L 77.59375 54.6875 
L 63.28125 0 
L 52.6875 0 
L 40.921875 44.828125 
L 29.109375 0 
L 18.5 0 
z
" id="DejaVuSans-119"/>
     </defs>
     <g transform="translate(109 83.116562)scale(0.1 -0.1)">
      <use xlink:href="#DejaVuSans-70"/>
      <use x="57.410156" xlink:href="#DejaVuSans-114"/>
      <use x="98.492188" xlink:href="#DejaVuSans-111"/>
      <use x="159.673828" xlink:href="#DejaVuSans-109"/>
      <use x="257.085938" xlink:href="#DejaVuSans-32"/>
      <use x="288.873047" xlink:href="#DejaVuSans-102"/>
      <use x="324.078125" xlink:href="#DejaVuSans-108"/>
      <use x="351.861328" xlink:href="#DejaVuSans-111"/>
      <use x="413.042969" xlink:href="#DejaVuSans-119"/>
     </g>
    </g>
    <g id="line2d_23">
     <path d="M 81 94.294687 
L 101 94.294687 
" style="fill:none;stroke:#2ca02c;stroke-linecap:square;stroke-width:1.5;"/>
    </g>
    <g id="line2d_24"/>
    <g id="text_21">
     <!-- From level -->
     <defs>
      <path d="M 2.984375 54.6875 
L 12.5 54.6875 
L 29.59375 8.796875 
L 46.6875 54.6875 
L 56.203125 54.6875 
L 35.6875 0 
L 23.484375 0 
z
" id="DejaVuSans-118"/>
     </defs>
     <g transform="translate(109 97.794687)scale(0.1 -0.1)">
      <use xlink:href="#DejaVuSans-70"/>
      <use x="57.410156" xlink:href="#DejaVuSans-114"/>
      <use x="98.492188" xlink:href="#DejaVuSans-111"/>
      <use x="159.673828" xlink:href="#DejaVuSans-109"/>
      <use x="257.085938" xlink:href="#DejaVuSans-32"/>
      <use x="288.873047" xlink:href="#DejaVuSans-108"/>
      <use x="316.65625" xlink:href="#DejaVuSans-101"/>
      <use x="378.179688" xlink:href="#DejaVuSans-118"/>
      <use x="437.359375" xlink:href="#DejaVuSans-101"/>
      <use x="498.882812" xlink:href="#DejaVuSans-108"/>
     </g>
    </g>
   </g>
  </g>
 </g>
 <defs>
  <clipPath id="p0b5b77a0cf">
   <rect height="332.64" width="446.4" x="72" y="51.84"/>
  </clipPath>
 </defs>
</svg>
